M48
; DRILL file {KiCad 9.0.1} date 2026-03-31T21:39:30-0500
; FORMAT={-:-/ absolute / metric / decimal}
; #@! TF.CreationDate,2026-03-31T21:39:30-05:00
; #@! TF.GenerationSoftware,Kicad,Pcbnew,9.0.1
; #@! TF.FileFunction,Plated,1,2,PTH
FMAT,2
METRIC
; #@! TA.AperFunction,Plated,PTH,ViaDrill
T1C0.300
; #@! TA.AperFunction,Plated,PTH,ComponentDrill
T2C0.762
; #@! TA.AperFunction,Plated,PTH,ComponentDrill
T3C0.900
; #@! TA.AperFunction,Plated,PTH,ComponentDrill
T4C1.000
; #@! TA.AperFunction,Plated,PTH,ComponentDrill
T5C1.400
; #@! TA.AperFunction,Plated,PTH,ComponentDrill
T6C2.700
; #@! TA.AperFunction,Plated,PTH,ComponentDrill
T7C4.500
%
G90
G05
T1
X46.535Y-147.346
X48.25Y-59.5
X48.25Y-72.5
X48.45Y-104.0
X48.5Y-81.5
X48.5Y-94.0
X49.5Y-143.0
X53.0Y-59.5
X53.0Y-72.5
X53.2Y-104.0
X53.25Y-81.5
X53.25Y-94.0
X53.75Y-143.0
X55.75Y-64.0
X56.2Y-54.65
X56.2Y-59.4
X56.5Y-77.0
X57.25Y-143.0
X60.4Y-54.65
X60.4Y-59.4
X62.5Y-77.25
X64.2Y-54.6
X64.2Y-59.35
X66.25Y-146.25
X68.2Y-141.6
X70.1Y-138.8
X70.2Y-141.6
X71.5Y-110.0
X71.5Y-121.7
X71.515Y-100.691
X72.7Y-143.9
X73.841Y-142.959
X74.6Y-141.5
X74.9Y-136.5
X75.64Y-101.0
X75.76Y-92.259
X76.2Y-54.65
X76.2Y-59.4
X77.523Y-113.533
X78.39Y-101.0
X82.238Y-117.171
X85.3Y-142.2
X86.935Y-155.502
X87.6Y-90.0
X89.8Y-142.3
X91.279Y-61.116
X91.8Y-90.0
X92.5Y-75.0
X93.75Y-114.25
X94.508Y-61.163
X94.914Y-92.203
X95.108Y-66.027
X95.111Y-56.645
X96.356Y-110.231
X97.972Y-61.256
X98.75Y-110.75
X101.25Y-109.25
X101.482Y-61.233
X101.75Y-113.75
X103.5Y-87.25
X104.761Y-97.099
X110.3Y-133.625
X110.75Y-100.0
X110.75Y-110.0
X111.6Y-141.4
X111.859Y-123.925
X112.25Y-115.25
X113.8Y-137.987
X113.85Y-115.65
X114.0Y-127.5
X114.0Y-129.4
X114.0Y-131.7
X114.205Y-62.0
X114.25Y-102.0
X114.5Y-57.5
X115.5Y-103.0
X115.763Y-112.261
X116.0Y-98.75
X116.742Y-101.788
X116.75Y-117.5
X116.8Y-129.25
X117.403Y-100.25
X119.0Y-91.25
X119.0Y-99.0
X119.0Y-124.25
X119.75Y-113.5
X120.75Y-76.25
X120.931Y-56.186
X120.974Y-65.047
X121.387Y-128.5
X121.6Y-129.8
X121.604Y-91.252
X121.632Y-108.589
X121.65Y-99.061
X121.763Y-60.486
X123.0Y-118.25
X123.0Y-123.0
X123.5Y-124.5
X123.91Y-99.004
X124.027Y-91.258
X124.5Y-118.5
X124.88Y-110.23
X125.166Y-60.386
X126.4Y-125.8
X127.0Y-111.6
X128.37Y-60.5
X128.894Y-123.597
X129.245Y-118.402
X129.491Y-56.389
X129.551Y-111.6
X132.279Y-119.079
X132.353Y-116.579
X132.4Y-114.0
T2
X76.32Y-115.8
X76.32Y-118.34
X76.32Y-120.88
X76.32Y-123.42
X76.32Y-125.96
X76.32Y-128.5
X77.11Y-76.84
X77.11Y-79.38
X77.11Y-81.92
X77.11Y-84.46
X77.11Y-87.0
X78.86Y-115.8
X78.86Y-118.34
X78.86Y-120.88
X78.86Y-123.42
X78.86Y-125.96
X78.86Y-128.5
T3
X108.246Y-128.007
X108.246Y-130.547
X108.246Y-133.087
X108.25Y-79.75
X108.25Y-82.29
X108.25Y-84.83
X108.25Y-87.37
X108.25Y-89.91
X108.25Y-92.45
X108.25Y-94.99
X108.25Y-97.53
X108.25Y-100.07
X108.25Y-102.61
X108.25Y-105.15
X108.25Y-107.69
X108.25Y-110.23
X108.25Y-112.77
X108.25Y-115.31
X108.25Y-117.85
X108.25Y-120.39
X108.25Y-122.93
X108.25Y-125.47
X133.65Y-79.75
X133.65Y-82.29
X133.65Y-84.83
X133.65Y-87.37
X133.65Y-89.91
X133.65Y-92.45
X133.65Y-94.99
X133.65Y-97.53
X133.65Y-100.07
X133.65Y-102.61
X133.65Y-105.15
X133.65Y-107.69
X133.65Y-110.23
X133.65Y-112.77
X133.65Y-115.31
X133.65Y-117.85
X133.65Y-120.39
X133.65Y-122.93
X133.65Y-125.47
X133.65Y-128.01
X133.65Y-130.55
X133.65Y-133.09
T4
X64.0Y-142.25
X64.0Y-144.79
X64.0Y-147.33
X90.42Y-95.75
X92.96Y-95.75
X95.5Y-95.75
X98.04Y-95.75
T5
X71.4Y-150.45
X71.4Y-155.95
X77.25Y-105.0
X82.75Y-105.0
X93.065Y-58.5
X93.065Y-64.0
X97.265Y-58.5
X97.265Y-64.0
X101.465Y-58.5
X101.465Y-64.0
X105.665Y-58.5
X105.665Y-64.0
X118.805Y-57.75
X118.805Y-63.25
X123.005Y-57.75
X123.005Y-63.25
X123.2Y-150.9
X123.2Y-156.4
X127.205Y-57.75
X127.205Y-63.25
T6
X51.25Y-138.75
X51.25Y-147.25
X56.25Y-138.75
X56.25Y-147.25
X77.5Y-97.25
X82.5Y-97.25
X87.62Y-139.99
X87.62Y-144.99
T7
X50.767Y-66.286
X51.012Y-77.301
X51.037Y-100.05
X51.1Y-88.45
X57.967Y-66.286
X58.212Y-77.301
X58.237Y-100.05
X58.3Y-88.45
X70.65Y-57.2
X70.65Y-64.4
X82.564Y-57.161
X82.564Y-64.361
M30
