G04 #@! TF.GenerationSoftware,KiCad,Pcbnew,9.0.6-1.fc42*
G04 #@! TF.CreationDate,2026-01-19T19:35:52-06:00*
G04 #@! TF.ProjectId,Arm,41726d2e-6b69-4636-9164-5f7063625858,rev?*
G04 #@! TF.SameCoordinates,Original*
G04 #@! TF.FileFunction,Paste,Bot*
G04 #@! TF.FilePolarity,Positive*
%FSLAX46Y46*%
G04 Gerber Fmt 4.6, Leading zero omitted, Abs format (unit mm)*
G04 Created by KiCad (PCBNEW 9.0.6-1.fc42) date 2026-01-19 19:35:52*
%MOMM*%
%LPD*%
G01*
G04 APERTURE LIST*
G04 Aperture macros list*
%AMRoundRect*
0 Rectangle with rounded corners*
0 $1 Rounding radius*
0 $2 $3 $4 $5 $6 $7 $8 $9 X,Y pos of 4 corners*
0 Add a 4 corners polygon primitive as box body*
4,1,4,$2,$3,$4,$5,$6,$7,$8,$9,$2,$3,0*
0 Add four circle primitives for the rounded corners*
1,1,$1+$1,$2,$3*
1,1,$1+$1,$4,$5*
1,1,$1+$1,$6,$7*
1,1,$1+$1,$8,$9*
0 Add four rect primitives between the rounded corners*
20,1,$1+$1,$2,$3,$4,$5,0*
20,1,$1+$1,$4,$5,$6,$7,0*
20,1,$1+$1,$6,$7,$8,$9,0*
20,1,$1+$1,$8,$9,$2,$3,0*%
G04 Aperture macros list end*
%ADD10RoundRect,0.237500X0.250000X0.237500X-0.250000X0.237500X-0.250000X-0.237500X0.250000X-0.237500X0*%
%ADD11RoundRect,0.150000X0.150000X-0.825000X0.150000X0.825000X-0.150000X0.825000X-0.150000X-0.825000X0*%
%ADD12RoundRect,0.237500X0.300000X0.237500X-0.300000X0.237500X-0.300000X-0.237500X0.300000X-0.237500X0*%
%ADD13RoundRect,0.250000X-0.450000X-0.350000X0.450000X-0.350000X0.450000X0.350000X-0.450000X0.350000X0*%
%ADD14RoundRect,0.237500X-0.250000X-0.237500X0.250000X-0.237500X0.250000X0.237500X-0.250000X0.237500X0*%
%ADD15RoundRect,0.237500X-0.237500X0.300000X-0.237500X-0.300000X0.237500X-0.300000X0.237500X0.300000X0*%
%ADD16RoundRect,0.100000X0.850000X0.100000X-0.850000X0.100000X-0.850000X-0.100000X0.850000X-0.100000X0*%
%ADD17RoundRect,0.237500X0.237500X-0.300000X0.237500X0.300000X-0.237500X0.300000X-0.237500X-0.300000X0*%
G04 APERTURE END LIST*
D10*
X104337500Y-107750000D03*
X106162500Y-107750000D03*
D11*
X116770000Y-105000000D03*
X115500000Y-105000000D03*
X114230000Y-105000000D03*
X112960000Y-105000000D03*
X112960000Y-109950000D03*
X114230000Y-109950000D03*
X115500000Y-109950000D03*
X116770000Y-109950000D03*
D12*
X125937500Y-118087500D03*
X127662500Y-118087500D03*
D13*
X125912500Y-121837500D03*
X128112500Y-121837500D03*
X128112500Y-120137500D03*
X125912500Y-120137500D03*
D14*
X105662500Y-118000000D03*
X103837500Y-118000000D03*
X106112500Y-110200000D03*
X104287500Y-110200000D03*
D15*
X113000000Y-102112500D03*
X113000000Y-100387500D03*
D16*
X114035000Y-117775000D03*
X114035000Y-118425000D03*
X114035000Y-119075000D03*
X114035000Y-119725000D03*
X114035000Y-120375000D03*
X114035000Y-121025000D03*
X114035000Y-121675000D03*
X114035000Y-122325000D03*
X114035000Y-122975000D03*
X114035000Y-123625000D03*
X114035000Y-124275000D03*
X114035000Y-124925000D03*
X114035000Y-125575000D03*
X114035000Y-126225000D03*
X121035000Y-126225000D03*
X121035000Y-125575000D03*
X121035000Y-124925000D03*
X121035000Y-124275000D03*
X121035000Y-123625000D03*
X121035000Y-122975000D03*
X121035000Y-122325000D03*
X121035000Y-121675000D03*
X121035000Y-121025000D03*
X121035000Y-120375000D03*
X121035000Y-119725000D03*
X121035000Y-119075000D03*
X121035000Y-118425000D03*
X121035000Y-117775000D03*
D15*
X85782500Y-62500000D03*
X85782500Y-60775000D03*
D12*
X125500000Y-123887500D03*
X127225000Y-123887500D03*
D17*
X116000000Y-134637500D03*
X116000000Y-136362500D03*
D10*
X117000000Y-132862500D03*
X118825000Y-132862500D03*
X113087500Y-132862500D03*
X114912500Y-132862500D03*
D14*
X112412500Y-92500000D03*
X110587500Y-92500000D03*
M02*
