G04 #@! TF.GenerationSoftware,KiCad,Pcbnew,9.0.1*
G04 #@! TF.CreationDate,2026-03-31T21:50:44-05:00*
G04 #@! TF.ProjectId,Arm,41726d2e-6b69-4636-9164-5f7063625858,rev?*
G04 #@! TF.SameCoordinates,Original*
G04 #@! TF.FileFunction,Paste,Bot*
G04 #@! TF.FilePolarity,Positive*
%FSLAX46Y46*%
G04 Gerber Fmt 4.6, Leading zero omitted, Abs format (unit mm)*
G04 Created by KiCad (PCBNEW 9.0.1) date 2026-03-31 21:50:44*
%MOMM*%
%LPD*%
G01*
G04 APERTURE LIST*
G04 Aperture macros list*
%AMRoundRect*
0 Rectangle with rounded corners*
0 $1 Rounding radius*
0 $2 $3 $4 $5 $6 $7 $8 $9 X,Y pos of 4 corners*
0 Add a 4 corners polygon primitive as box body*
4,1,4,$2,$3,$4,$5,$6,$7,$8,$9,$2,$3,0*
0 Add four circle primitives for the rounded corners*
1,1,$1+$1,$2,$3*
1,1,$1+$1,$4,$5*
1,1,$1+$1,$6,$7*
1,1,$1+$1,$8,$9*
0 Add four rect primitives between the rounded corners*
20,1,$1+$1,$2,$3,$4,$5,0*
20,1,$1+$1,$4,$5,$6,$7,0*
20,1,$1+$1,$6,$7,$8,$9,0*
20,1,$1+$1,$8,$9,$2,$3,0*%
G04 Aperture macros list end*
%ADD10RoundRect,0.150000X0.150000X-0.825000X0.150000X0.825000X-0.150000X0.825000X-0.150000X-0.825000X0*%
%ADD11RoundRect,0.237500X0.300000X0.237500X-0.300000X0.237500X-0.300000X-0.237500X0.300000X-0.237500X0*%
%ADD12RoundRect,0.237500X0.237500X-0.300000X0.237500X0.300000X-0.237500X0.300000X-0.237500X-0.300000X0*%
%ADD13RoundRect,0.237500X-0.237500X0.300000X-0.237500X-0.300000X0.237500X-0.300000X0.237500X0.300000X0*%
%ADD14RoundRect,0.250000X-0.450000X-0.350000X0.450000X-0.350000X0.450000X0.350000X-0.450000X0.350000X0*%
%ADD15RoundRect,0.237500X-0.250000X-0.237500X0.250000X-0.237500X0.250000X0.237500X-0.250000X0.237500X0*%
%ADD16RoundRect,0.237500X0.250000X0.237500X-0.250000X0.237500X-0.250000X-0.237500X0.250000X-0.237500X0*%
%ADD17RoundRect,0.237500X-0.237500X0.250000X-0.237500X-0.250000X0.237500X-0.250000X0.237500X0.250000X0*%
%ADD18RoundRect,0.100000X0.850000X0.100000X-0.850000X0.100000X-0.850000X-0.100000X0.850000X-0.100000X0*%
%ADD19RoundRect,0.237500X0.377236X-0.064025X-0.024242X0.381862X-0.377236X0.064025X0.024242X-0.381862X0*%
G04 APERTURE END LIST*
D10*
X116770000Y-109950000D03*
X115500000Y-109950000D03*
X114230000Y-109950000D03*
X112960000Y-109950000D03*
X112960000Y-105000000D03*
X114230000Y-105000000D03*
X115500000Y-105000000D03*
X116770000Y-105000000D03*
D11*
X113862500Y-113000000D03*
X112137500Y-113000000D03*
D12*
X116750000Y-115400000D03*
X116750000Y-113675000D03*
D11*
X127662500Y-118087500D03*
X125937500Y-118087500D03*
D13*
X123200000Y-127337500D03*
X123200000Y-129062500D03*
D14*
X125912500Y-120137500D03*
X128112500Y-120137500D03*
X128112500Y-121837500D03*
X125912500Y-121837500D03*
D15*
X103837500Y-118000000D03*
X105662500Y-118000000D03*
X104288500Y-112000000D03*
X106113500Y-112000000D03*
D13*
X113000000Y-100387500D03*
X113000000Y-102112500D03*
D16*
X106127255Y-106035244D03*
X104302255Y-106035244D03*
D17*
X105659731Y-89212364D03*
X105659731Y-91037364D03*
D18*
X121035000Y-117775000D03*
X121035000Y-118425000D03*
X121035000Y-119075000D03*
X121035000Y-119725000D03*
X121035000Y-120375000D03*
X121035000Y-121025000D03*
X121035000Y-121675000D03*
X121035000Y-122325000D03*
X121035000Y-122975000D03*
X121035000Y-123625000D03*
X121035000Y-124275000D03*
X121035000Y-124925000D03*
X121035000Y-125575000D03*
X121035000Y-126225000D03*
X114035000Y-126225000D03*
X114035000Y-125575000D03*
X114035000Y-124925000D03*
X114035000Y-124275000D03*
X114035000Y-123625000D03*
X114035000Y-122975000D03*
X114035000Y-122325000D03*
X114035000Y-121675000D03*
X114035000Y-121025000D03*
X114035000Y-120375000D03*
X114035000Y-119725000D03*
X114035000Y-119075000D03*
X114035000Y-118425000D03*
X114035000Y-117775000D03*
D13*
X66282500Y-143025000D03*
X66282500Y-144750000D03*
D11*
X127225000Y-123887500D03*
X125500000Y-123887500D03*
D12*
X114550000Y-136600000D03*
X114550000Y-134875000D03*
D16*
X117375000Y-133100000D03*
X115550000Y-133100000D03*
X113462500Y-133100000D03*
X111637500Y-133100000D03*
D19*
X119377126Y-130640963D03*
X118222874Y-129359037D03*
D15*
X110587500Y-92500000D03*
X112412500Y-92500000D03*
M02*
