%TF.GenerationSoftware,KiCad,Pcbnew,8.0.7*%
%TF.CreationDate,2025-01-20T10:57:14-06:00*%
%TF.ProjectId,Digit,44696769-742e-46b6-9963-61645f706362,1.2*%
%TF.SameCoordinates,Original*%
%TF.FileFunction,Drillmap*%
%TF.FilePolarity,Positive*%
%FSLAX45Y45*%
G04 Gerber Fmt 4.5, Leading zero omitted, Abs format (unit mm)*
G04 Created by KiCad (PCBNEW 8.0.7) date 2025-01-20 10:57:14*
%MOMM*%
%LPD*%
G01*
G04 APERTURE LIST*
%ADD10C,0.200000*%
%ADD11C,0.050000*%
G04 APERTURE END LIST*
D10*
X6786657Y-12342500D02*
G75*
G02*
X6387500Y-12742496I-399997J0D01*
G01*
X2447000Y-3844000D02*
X2447000Y-12344000D01*
X2847000Y-12744000D02*
G75*
G02*
X2447000Y-12344000I0J400000D01*
G01*
X6386657Y-3442500D02*
X2847000Y-3444000D01*
X6386657Y-3442503D02*
G75*
G02*
X6786657Y-3842500I3J-399997D01*
G01*
X6387500Y-12742500D02*
X2847000Y-12744000D01*
X6786657Y-12342500D02*
X6786657Y-3842500D01*
X2447000Y-3844000D02*
G75*
G02*
X2847000Y-3444000I400000J0D01*
G01*
D11*
X6560000Y-4595500D02*
G75*
G02*
X6215000Y-4595500I-172500J0D01*
G01*
X6215000Y-4595500D02*
G75*
G02*
X6560000Y-4595500I172500J0D01*
G01*
X6560000Y-12344500D02*
G75*
G02*
X6215000Y-12344500I-172500J0D01*
G01*
X6215000Y-12344500D02*
G75*
G02*
X6560000Y-12344500I172500J0D01*
G01*
X3019500Y-4595500D02*
G75*
G02*
X2674500Y-4595500I-172500J0D01*
G01*
X2674500Y-4595500D02*
G75*
G02*
X3019500Y-4595500I172500J0D01*
G01*
X3039000Y-6600000D02*
G75*
G02*
X2821000Y-6600000I-109000J0D01*
G01*
X2821000Y-6600000D02*
G75*
G02*
X3039000Y-6600000I109000J0D01*
G01*
X4359000Y-5280000D02*
G75*
G02*
X4141000Y-5280000I-109000J0D01*
G01*
X4141000Y-5280000D02*
G75*
G02*
X4359000Y-5280000I109000J0D01*
G01*
X3019500Y-12344500D02*
G75*
G02*
X2674500Y-12344500I-172500J0D01*
G01*
X2674500Y-12344500D02*
G75*
G02*
X3019500Y-12344500I172500J0D01*
G01*
D10*
X2697777Y-13065484D02*
X2697777Y-12865484D01*
X2697777Y-12865484D02*
X2745396Y-12865484D01*
X2745396Y-12865484D02*
X2773967Y-12875008D01*
X2773967Y-12875008D02*
X2793015Y-12894055D01*
X2793015Y-12894055D02*
X2802539Y-12913103D01*
X2802539Y-12913103D02*
X2812062Y-12951198D01*
X2812062Y-12951198D02*
X2812062Y-12979769D01*
X2812062Y-12979769D02*
X2802539Y-13017865D01*
X2802539Y-13017865D02*
X2793015Y-13036912D01*
X2793015Y-13036912D02*
X2773967Y-13055960D01*
X2773967Y-13055960D02*
X2745396Y-13065484D01*
X2745396Y-13065484D02*
X2697777Y-13065484D01*
X2897777Y-13065484D02*
X2897777Y-12932150D01*
X2897777Y-12970246D02*
X2907301Y-12951198D01*
X2907301Y-12951198D02*
X2916824Y-12941674D01*
X2916824Y-12941674D02*
X2935872Y-12932150D01*
X2935872Y-12932150D02*
X2954920Y-12932150D01*
X3021586Y-13065484D02*
X3021586Y-12932150D01*
X3021586Y-12865484D02*
X3012062Y-12875008D01*
X3012062Y-12875008D02*
X3021586Y-12884531D01*
X3021586Y-12884531D02*
X3031110Y-12875008D01*
X3031110Y-12875008D02*
X3021586Y-12865484D01*
X3021586Y-12865484D02*
X3021586Y-12884531D01*
X3145396Y-13065484D02*
X3126348Y-13055960D01*
X3126348Y-13055960D02*
X3116824Y-13036912D01*
X3116824Y-13036912D02*
X3116824Y-12865484D01*
X3250158Y-13065484D02*
X3231110Y-13055960D01*
X3231110Y-13055960D02*
X3221586Y-13036912D01*
X3221586Y-13036912D02*
X3221586Y-12865484D01*
X3478729Y-13065484D02*
X3478729Y-12865484D01*
X3478729Y-12865484D02*
X3545396Y-13008341D01*
X3545396Y-13008341D02*
X3612062Y-12865484D01*
X3612062Y-12865484D02*
X3612062Y-13065484D01*
X3793015Y-13065484D02*
X3793015Y-12960722D01*
X3793015Y-12960722D02*
X3783491Y-12941674D01*
X3783491Y-12941674D02*
X3764443Y-12932150D01*
X3764443Y-12932150D02*
X3726348Y-12932150D01*
X3726348Y-12932150D02*
X3707301Y-12941674D01*
X3793015Y-13055960D02*
X3773967Y-13065484D01*
X3773967Y-13065484D02*
X3726348Y-13065484D01*
X3726348Y-13065484D02*
X3707301Y-13055960D01*
X3707301Y-13055960D02*
X3697777Y-13036912D01*
X3697777Y-13036912D02*
X3697777Y-13017865D01*
X3697777Y-13017865D02*
X3707301Y-12998817D01*
X3707301Y-12998817D02*
X3726348Y-12989293D01*
X3726348Y-12989293D02*
X3773967Y-12989293D01*
X3773967Y-12989293D02*
X3793015Y-12979769D01*
X3888253Y-12932150D02*
X3888253Y-13132150D01*
X3888253Y-12941674D02*
X3907301Y-12932150D01*
X3907301Y-12932150D02*
X3945396Y-12932150D01*
X3945396Y-12932150D02*
X3964443Y-12941674D01*
X3964443Y-12941674D02*
X3973967Y-12951198D01*
X3973967Y-12951198D02*
X3983491Y-12970246D01*
X3983491Y-12970246D02*
X3983491Y-13027388D01*
X3983491Y-13027388D02*
X3973967Y-13046436D01*
X3973967Y-13046436D02*
X3964443Y-13055960D01*
X3964443Y-13055960D02*
X3945396Y-13065484D01*
X3945396Y-13065484D02*
X3907301Y-13065484D01*
X3907301Y-13065484D02*
X3888253Y-13055960D01*
X4069205Y-13046436D02*
X4078729Y-13055960D01*
X4078729Y-13055960D02*
X4069205Y-13065484D01*
X4069205Y-13065484D02*
X4059682Y-13055960D01*
X4059682Y-13055960D02*
X4069205Y-13046436D01*
X4069205Y-13046436D02*
X4069205Y-13065484D01*
X4069205Y-12941674D02*
X4078729Y-12951198D01*
X4078729Y-12951198D02*
X4069205Y-12960722D01*
X4069205Y-12960722D02*
X4059682Y-12951198D01*
X4059682Y-12951198D02*
X4069205Y-12941674D01*
X4069205Y-12941674D02*
X4069205Y-12960722D01*
M02*
