G04 #@! TF.GenerationSoftware,KiCad,Pcbnew,8.0.7*
G04 #@! TF.CreationDate,2025-01-20T10:56:57-06:00*
G04 #@! TF.ProjectId,Digit,44696769-742e-46b6-9963-61645f706362,1.2*
G04 #@! TF.SameCoordinates,Original*
G04 #@! TF.FileFunction,Copper,L1,Top*
G04 #@! TF.FilePolarity,Positive*
%FSLAX46Y46*%
G04 Gerber Fmt 4.6, Leading zero omitted, Abs format (unit mm)*
G04 Created by KiCad (PCBNEW 8.0.7) date 2025-01-20 10:56:57*
%MOMM*%
%LPD*%
G01*
G04 APERTURE LIST*
G04 Aperture macros list*
%AMRoundRect*
0 Rectangle with rounded corners*
0 $1 Rounding radius*
0 $2 $3 $4 $5 $6 $7 $8 $9 X,Y pos of 4 corners*
0 Add a 4 corners polygon primitive as box body*
4,1,4,$2,$3,$4,$5,$6,$7,$8,$9,$2,$3,0*
0 Add four circle primitives for the rounded corners*
1,1,$1+$1,$2,$3*
1,1,$1+$1,$4,$5*
1,1,$1+$1,$6,$7*
1,1,$1+$1,$8,$9*
0 Add four rect primitives between the rounded corners*
20,1,$1+$1,$2,$3,$4,$5,0*
20,1,$1+$1,$4,$5,$6,$7,0*
20,1,$1+$1,$6,$7,$8,$9,0*
20,1,$1+$1,$8,$9,$2,$3,0*%
G04 Aperture macros list end*
G04 #@! TA.AperFunction,ComponentPad*
%ADD10C,1.700000*%
G04 #@! TD*
G04 #@! TA.AperFunction,ComponentPad*
%ADD11RoundRect,0.250000X1.050000X0.550000X-1.050000X0.550000X-1.050000X-0.550000X1.050000X-0.550000X0*%
G04 #@! TD*
G04 #@! TA.AperFunction,ComponentPad*
%ADD12O,2.600000X1.600000*%
G04 #@! TD*
G04 #@! TA.AperFunction,ComponentPad*
%ADD13RoundRect,0.760000X1.140000X1.140000X-1.140000X1.140000X-1.140000X-1.140000X1.140000X-1.140000X0*%
G04 #@! TD*
G04 #@! TA.AperFunction,ComponentPad*
%ADD14C,4.000000*%
G04 #@! TD*
G04 #@! TA.AperFunction,ComponentPad*
%ADD15R,0.900000X2.000000*%
G04 #@! TD*
G04 #@! TA.AperFunction,ComponentPad*
%ADD16RoundRect,1.025000X-1.025000X-1.025000X1.025000X-1.025000X1.025000X1.025000X-1.025000X1.025000X0*%
G04 #@! TD*
G04 #@! TA.AperFunction,ComponentPad*
%ADD17C,4.100000*%
G04 #@! TD*
G04 #@! TA.AperFunction,ComponentPad*
%ADD18RoundRect,0.250001X-1.099999X-1.399999X1.099999X-1.399999X1.099999X1.399999X-1.099999X1.399999X0*%
G04 #@! TD*
G04 #@! TA.AperFunction,ComponentPad*
%ADD19O,2.700000X3.300000*%
G04 #@! TD*
G04 #@! TA.AperFunction,SMDPad,CuDef*
%ADD20RoundRect,0.237500X-0.287500X-0.237500X0.287500X-0.237500X0.287500X0.237500X-0.287500X0.237500X0*%
G04 #@! TD*
G04 #@! TA.AperFunction,ComponentPad*
%ADD21R,1.700000X1.700000*%
G04 #@! TD*
G04 #@! TA.AperFunction,ComponentPad*
%ADD22O,1.700000X1.700000*%
G04 #@! TD*
G04 #@! TA.AperFunction,ComponentPad*
%ADD23C,1.524000*%
G04 #@! TD*
G04 #@! TA.AperFunction,SMDPad,CuDef*
%ADD24RoundRect,0.237500X0.250000X0.237500X-0.250000X0.237500X-0.250000X-0.237500X0.250000X-0.237500X0*%
G04 #@! TD*
G04 #@! TA.AperFunction,SMDPad,CuDef*
%ADD25RoundRect,0.237500X0.287500X0.237500X-0.287500X0.237500X-0.287500X-0.237500X0.287500X-0.237500X0*%
G04 #@! TD*
G04 #@! TA.AperFunction,SMDPad,CuDef*
%ADD26RoundRect,0.237500X-0.250000X-0.237500X0.250000X-0.237500X0.250000X0.237500X-0.250000X0.237500X0*%
G04 #@! TD*
G04 #@! TA.AperFunction,ComponentPad*
%ADD27C,1.400000*%
G04 #@! TD*
G04 #@! TA.AperFunction,ComponentPad*
%ADD28RoundRect,0.770000X-0.980000X-0.980000X0.980000X-0.980000X0.980000X0.980000X-0.980000X0.980000X0*%
G04 #@! TD*
G04 #@! TA.AperFunction,ComponentPad*
%ADD29C,3.500000*%
G04 #@! TD*
G04 #@! TA.AperFunction,ComponentPad*
%ADD30RoundRect,0.770000X0.980000X0.980000X-0.980000X0.980000X-0.980000X-0.980000X0.980000X-0.980000X0*%
G04 #@! TD*
G04 #@! TA.AperFunction,ViaPad*
%ADD31C,0.750000*%
G04 #@! TD*
G04 #@! TA.AperFunction,ViaPad*
%ADD32C,1.000000*%
G04 #@! TD*
G04 #@! TA.AperFunction,Conductor*
%ADD33C,1.000000*%
G04 #@! TD*
G04 #@! TA.AperFunction,Conductor*
%ADD34C,0.500000*%
G04 #@! TD*
G04 #@! TA.AperFunction,Conductor*
%ADD35C,1.500000*%
G04 #@! TD*
G04 #@! TA.AperFunction,Conductor*
%ADD36C,0.250000*%
G04 #@! TD*
G04 #@! TA.AperFunction,Conductor*
%ADD37C,0.750000*%
G04 #@! TD*
G04 #@! TA.AperFunction,Conductor*
%ADD38C,0.350000*%
G04 #@! TD*
G04 APERTURE END LIST*
D10*
X52740000Y-55440000D03*
X52740000Y-57980000D03*
X52740000Y-60520000D03*
X52740000Y-63060000D03*
X52740000Y-65600000D03*
X52740000Y-68130000D03*
X52740000Y-70670000D03*
X65400000Y-55440000D03*
X65400000Y-57980000D03*
X65400000Y-60520000D03*
X65400000Y-63060000D03*
X65400000Y-65600000D03*
X65400000Y-68130000D03*
X65400000Y-70670000D03*
D11*
X57270000Y-118805000D03*
D12*
X57270000Y-116265000D03*
X57270000Y-113725000D03*
X57270000Y-111185000D03*
X57270000Y-108645000D03*
X57270000Y-106105000D03*
X57270000Y-103565000D03*
X57270000Y-101025000D03*
X57270000Y-98485000D03*
X57270000Y-95945000D03*
X57270000Y-93405000D03*
X57270000Y-90865000D03*
X57270000Y-88325000D03*
X57270000Y-85785000D03*
X57270000Y-83245000D03*
X57270000Y-80705000D03*
X37550000Y-80705000D03*
X37550000Y-83245000D03*
X37550000Y-85785000D03*
X37550000Y-88325000D03*
X37550000Y-90865000D03*
X37550000Y-93405000D03*
X37550000Y-95945000D03*
X37550000Y-98485000D03*
X37550000Y-101025000D03*
X37550000Y-103565000D03*
X37550000Y-106105000D03*
X37550000Y-108645000D03*
D13*
X32500000Y-92000000D03*
D14*
X27500000Y-92000000D03*
D15*
X31750000Y-38800000D03*
X45250000Y-38800000D03*
D16*
X34900000Y-44800000D03*
D17*
X42100000Y-44800000D03*
D18*
X63170000Y-77000000D03*
D19*
X63170000Y-82500000D03*
D20*
X26495000Y-39400000D03*
X28245000Y-39400000D03*
D21*
X61889564Y-93366282D03*
D22*
X64429564Y-93366282D03*
X61889564Y-95906282D03*
X64429564Y-95906282D03*
X61889564Y-98446282D03*
X64429564Y-98446282D03*
D23*
X28270000Y-51770000D03*
X28270000Y-54310000D03*
X28270000Y-56850000D03*
X28270000Y-59390000D03*
X28270000Y-61930000D03*
X38960000Y-51770000D03*
D24*
X65482500Y-52505000D03*
X63657500Y-52505000D03*
D25*
X65470000Y-50605000D03*
X63720000Y-50605000D03*
D13*
X32460000Y-101810000D03*
D14*
X27460000Y-101810000D03*
D26*
X63857500Y-41505000D03*
X65682500Y-41505000D03*
D18*
X63270000Y-110955000D03*
D19*
X63270000Y-116455000D03*
D26*
X26457500Y-41405000D03*
X28282500Y-41405000D03*
D18*
X30060000Y-110900000D03*
D19*
X30060000Y-116400000D03*
D27*
X49970000Y-39940000D03*
X60970000Y-39940000D03*
D28*
X57970000Y-49940000D03*
D29*
X52970000Y-49940000D03*
D20*
X63895000Y-39605000D03*
X65645000Y-39605000D03*
D18*
X27970000Y-76940000D03*
D19*
X32170000Y-76940000D03*
X27970000Y-82440000D03*
X32170000Y-82440000D03*
D27*
X60970000Y-37090000D03*
X49970000Y-37090000D03*
D30*
X57970000Y-42090000D03*
D29*
X52970000Y-42090000D03*
D31*
X56500000Y-79000000D03*
X53070000Y-80205000D03*
X52800000Y-75400000D03*
X46020000Y-94015000D03*
X58720000Y-63535000D03*
X40250000Y-75500000D03*
X40940000Y-66075000D03*
X52500000Y-83750000D03*
X43480000Y-124495000D03*
X35860000Y-114335000D03*
X53640000Y-121955000D03*
X25700000Y-119415000D03*
X25700000Y-99095000D03*
X38400000Y-116875000D03*
X28240000Y-106715000D03*
X28240000Y-114335000D03*
X33320000Y-121955000D03*
X66340000Y-116875000D03*
X66340000Y-83855000D03*
X33320000Y-35595000D03*
X51100000Y-119415000D03*
X47890000Y-108270000D03*
X48200000Y-73300000D03*
X51100000Y-116875000D03*
X53640000Y-114335000D03*
X66340000Y-86395000D03*
X40940000Y-91475000D03*
X53640000Y-35595000D03*
X56180000Y-121955000D03*
X33320000Y-38135000D03*
X33320000Y-124495000D03*
X46020000Y-68615000D03*
X51100000Y-114335000D03*
X43480000Y-121955000D03*
X61260000Y-86395000D03*
X38400000Y-53375000D03*
X53640000Y-119415000D03*
X33320000Y-119415000D03*
X56180000Y-35595000D03*
X38400000Y-35595000D03*
X40940000Y-38135000D03*
X30780000Y-73695000D03*
X43480000Y-38135000D03*
X43480000Y-68615000D03*
X48560000Y-48295000D03*
X38400000Y-58455000D03*
X48560000Y-121955000D03*
X48560000Y-63535000D03*
X46020000Y-66075000D03*
X43480000Y-119415000D03*
X35860000Y-38135000D03*
X48560000Y-124495000D03*
X38400000Y-119415000D03*
X46020000Y-124495000D03*
X58720000Y-121955000D03*
X48560000Y-71155000D03*
X25700000Y-111795000D03*
X33320000Y-48295000D03*
X43480000Y-48295000D03*
X25700000Y-68615000D03*
X46020000Y-50835000D03*
X33320000Y-109255000D03*
X66340000Y-114335000D03*
X40940000Y-124495000D03*
X28240000Y-86395000D03*
X53640000Y-116875000D03*
X58720000Y-66075000D03*
X63800000Y-35595000D03*
X40940000Y-81315000D03*
X33320000Y-40675000D03*
X61260000Y-48295000D03*
X52500000Y-73500000D03*
X33320000Y-73695000D03*
X40940000Y-55915000D03*
X46020000Y-109255000D03*
X38500000Y-72000000D03*
X43480000Y-35595000D03*
X53640000Y-111795000D03*
X30780000Y-35595000D03*
X25700000Y-106715000D03*
X30780000Y-88935000D03*
X41910000Y-110060000D03*
X63800000Y-38135000D03*
X58720000Y-60995000D03*
X40940000Y-40675000D03*
X66340000Y-76235000D03*
X28240000Y-119415000D03*
X46020000Y-106715000D03*
X46020000Y-40675000D03*
X48560000Y-116875000D03*
X38400000Y-124495000D03*
X58720000Y-35595000D03*
X48560000Y-35595000D03*
X48560000Y-68615000D03*
X51100000Y-106715000D03*
X38400000Y-55915000D03*
X25700000Y-116875000D03*
X33320000Y-86395000D03*
X63800000Y-88935000D03*
X48560000Y-55915000D03*
X33320000Y-88935000D03*
X61260000Y-124495000D03*
X38400000Y-43215000D03*
X25700000Y-63535000D03*
X35860000Y-60995000D03*
X53640000Y-38135000D03*
X53300000Y-90900000D03*
X51100000Y-124495000D03*
X35860000Y-116875000D03*
X53640000Y-109255000D03*
X63800000Y-86395000D03*
X46020000Y-35595000D03*
X25700000Y-96555000D03*
X35860000Y-55915000D03*
X66340000Y-73695000D03*
X25700000Y-109255000D03*
X33320000Y-116875000D03*
X58720000Y-71155000D03*
X61260000Y-53375000D03*
X46020000Y-63535000D03*
X46020000Y-121955000D03*
X48560000Y-91475000D03*
X40940000Y-68615000D03*
X30780000Y-40675000D03*
X55250000Y-94500000D03*
X56180000Y-124495000D03*
X25700000Y-60995000D03*
X66340000Y-81315000D03*
X42780000Y-102470000D03*
X61260000Y-58455000D03*
X66340000Y-111795000D03*
X66340000Y-119415000D03*
X43480000Y-63535000D03*
X48560000Y-43215000D03*
X35860000Y-58455000D03*
X43480000Y-60995000D03*
X51100000Y-109255000D03*
X56180000Y-60995000D03*
X45890000Y-82610000D03*
X35860000Y-124495000D03*
X66340000Y-38135000D03*
X25700000Y-114335000D03*
X66340000Y-109255000D03*
X48560000Y-94015000D03*
X46020000Y-78775000D03*
X30780000Y-60995000D03*
X48560000Y-58455000D03*
X40940000Y-121955000D03*
X56180000Y-58455000D03*
X58720000Y-38135000D03*
X25700000Y-66075000D03*
X43480000Y-71155000D03*
X66340000Y-78775000D03*
X46020000Y-114335000D03*
X48560000Y-114335000D03*
X40940000Y-94015000D03*
X48560000Y-101635000D03*
X40940000Y-88935000D03*
X28240000Y-35595000D03*
X39970000Y-99980000D03*
X38400000Y-66075000D03*
X37680000Y-77550000D03*
X66340000Y-91475000D03*
X40940000Y-119415000D03*
X66340000Y-121955000D03*
X43480000Y-78775000D03*
X46020000Y-101635000D03*
X25700000Y-71155000D03*
X46020000Y-71155000D03*
X38400000Y-121955000D03*
X35860000Y-40675000D03*
X25700000Y-73695000D03*
X30780000Y-119415000D03*
X30780000Y-50835000D03*
X53640000Y-124495000D03*
X66340000Y-43215000D03*
X40940000Y-48295000D03*
X40940000Y-35595000D03*
X28240000Y-88935000D03*
X58720000Y-58455000D03*
X46020000Y-60995000D03*
X40940000Y-63535000D03*
X38400000Y-38135000D03*
X35860000Y-53375000D03*
X35860000Y-35595000D03*
X30780000Y-43215000D03*
X58720000Y-124495000D03*
X30780000Y-53375000D03*
X41940000Y-106950000D03*
X51100000Y-121955000D03*
X43480000Y-40675000D03*
X40320000Y-77550000D03*
X61260000Y-121955000D03*
X58170000Y-77400000D03*
X35860000Y-121955000D03*
X38400000Y-40675000D03*
X48560000Y-66075000D03*
X46020000Y-58455000D03*
X43480000Y-66075000D03*
X61260000Y-60995000D03*
X51100000Y-111795000D03*
X30780000Y-86395000D03*
X66340000Y-48295000D03*
X56180000Y-38135000D03*
X61260000Y-50835000D03*
X40750000Y-85010000D03*
X28240000Y-68615000D03*
X30780000Y-48295000D03*
X66340000Y-88935000D03*
X30780000Y-58455000D03*
X38400000Y-114335000D03*
X63800000Y-119415000D03*
X33000000Y-50000000D03*
X46020000Y-48295000D03*
X48560000Y-60995000D03*
X48100000Y-75400000D03*
X25700000Y-121955000D03*
X61260000Y-101635000D03*
X63800000Y-101635000D03*
X40940000Y-116875000D03*
X35860000Y-119415000D03*
X48560000Y-96555000D03*
X46020000Y-43215000D03*
X51900000Y-77335000D03*
X53070000Y-82005000D03*
X35487500Y-70822500D03*
X51537500Y-95537500D03*
X54920000Y-92155000D03*
X51300000Y-103705000D03*
X35510000Y-78870000D03*
X26500000Y-42805000D03*
X49250000Y-98405000D03*
X37320000Y-69055000D03*
D32*
X32400000Y-54200000D03*
D31*
X49670000Y-85205000D03*
X49670000Y-72596000D03*
X50800000Y-83905000D03*
X50800000Y-72600000D03*
D33*
X32400000Y-54200000D02*
X41800000Y-44800000D01*
X41800000Y-44800000D02*
X42100000Y-44800000D01*
X32400000Y-54200000D02*
X29750000Y-56850000D01*
X29750000Y-56850000D02*
X28270000Y-56850000D01*
D34*
X43205000Y-45905000D02*
X59470000Y-45905000D01*
X63857500Y-41517500D02*
X63857500Y-41505000D01*
X59470000Y-45905000D02*
X63857500Y-41517500D01*
X42100000Y-44800000D02*
X43205000Y-45905000D01*
D35*
X27970000Y-76940000D02*
X27970000Y-73830000D01*
X27970000Y-73830000D02*
X51860000Y-49940000D01*
X51860000Y-49940000D02*
X52835000Y-49940000D01*
D33*
X65400000Y-60520000D02*
X64755000Y-60520000D01*
X64755000Y-60520000D02*
X60670000Y-64605000D01*
X60670000Y-64605000D02*
X60670000Y-78720000D01*
X63170000Y-81220000D02*
X63170000Y-82500000D01*
X60670000Y-78720000D02*
X63170000Y-81220000D01*
D34*
X56500000Y-79000000D02*
X58100000Y-79000000D01*
X58100000Y-79000000D02*
X59200000Y-80100000D01*
X59200000Y-80100000D02*
X59200000Y-88136718D01*
X59200000Y-88136718D02*
X64429564Y-93366282D01*
X60400000Y-108660000D02*
X60400000Y-113435000D01*
X64429564Y-93366282D02*
X65920000Y-94856718D01*
X65920000Y-94856718D02*
X65920000Y-103140000D01*
X60400000Y-113435000D02*
X57570000Y-116265000D01*
X65920000Y-103140000D02*
X60400000Y-108660000D01*
D36*
X52800000Y-75400000D02*
X52800000Y-79935000D01*
X52800000Y-79935000D02*
X53070000Y-80205000D01*
X51900000Y-80835000D02*
X53070000Y-82005000D01*
X51900000Y-77335000D02*
X51900000Y-80835000D01*
D34*
X39300000Y-106595000D02*
X39300000Y-106622767D01*
D37*
X35510000Y-70845000D02*
X35487500Y-70822500D01*
X35510000Y-78870000D02*
X35510000Y-106905000D01*
X59995000Y-120680000D02*
X63270000Y-117405000D01*
D34*
X38540000Y-107355000D02*
X37250000Y-108645000D01*
X42190000Y-103705000D02*
X39300000Y-106595000D01*
X60643282Y-92120000D02*
X61889564Y-93366282D01*
X38567767Y-107355000D02*
X38540000Y-107355000D01*
X51300000Y-95775000D02*
X51537500Y-95537500D01*
D38*
X26500000Y-42805000D02*
X26457500Y-42762500D01*
D37*
X35510000Y-78870000D02*
X35510000Y-70845000D01*
X63270000Y-117405000D02*
X63270000Y-116455000D01*
D34*
X54955000Y-92120000D02*
X60643282Y-92120000D01*
X51300000Y-103705000D02*
X42190000Y-103705000D01*
D37*
X35510000Y-106905000D02*
X37250000Y-108645000D01*
D34*
X51300000Y-103705000D02*
X51300000Y-95775000D01*
X39300000Y-106622767D02*
X38567767Y-107355000D01*
D37*
X37250000Y-108645000D02*
X49285000Y-120680000D01*
X49285000Y-120680000D02*
X59995000Y-120680000D01*
D38*
X26457500Y-42762500D02*
X26457500Y-41405000D01*
D34*
X54920000Y-92155000D02*
X54955000Y-92120000D01*
X42170000Y-73905000D02*
X37320000Y-69055000D01*
X42170000Y-94905000D02*
X42170000Y-73905000D01*
X45670000Y-98405000D02*
X42170000Y-94905000D01*
X49250000Y-98405000D02*
X45670000Y-98405000D01*
D35*
X27970000Y-76940000D02*
X25570000Y-79340000D01*
D33*
X52835000Y-49940000D02*
X52970000Y-49940000D01*
D35*
X27500000Y-92000000D02*
X27460000Y-92040000D01*
D37*
X65482500Y-52505000D02*
X65482500Y-55357500D01*
D35*
X27460000Y-92040000D02*
X27460000Y-101810000D01*
X25570000Y-79340000D02*
X25570000Y-90070000D01*
D37*
X65482500Y-55357500D02*
X65400000Y-55440000D01*
D35*
X25570000Y-90070000D02*
X27500000Y-92000000D01*
D36*
X52890000Y-94010000D02*
X52890000Y-97170000D01*
X49670000Y-90790000D02*
X52890000Y-94010000D01*
X49670000Y-85205000D02*
X49670000Y-90790000D01*
X49670000Y-85205000D02*
X49670000Y-72596000D01*
X55440000Y-99720000D02*
X63155846Y-99720000D01*
X63155846Y-99720000D02*
X64429564Y-98446282D01*
X52890000Y-97170000D02*
X55440000Y-99720000D01*
X50800000Y-83905000D02*
X50800000Y-90010000D01*
X54030000Y-95470000D02*
X55830000Y-97270000D01*
X50800000Y-72600000D02*
X50800000Y-83905000D01*
X54030000Y-93240000D02*
X54030000Y-95470000D01*
X60713282Y-97270000D02*
X61889564Y-98446282D01*
X50800000Y-90010000D02*
X54030000Y-93240000D01*
X55830000Y-97270000D02*
X60713282Y-97270000D01*
D37*
X65682500Y-41505000D02*
X65682500Y-39642500D01*
X65682500Y-39642500D02*
X65645000Y-39605000D01*
X63720000Y-50605000D02*
X63720000Y-52442500D01*
X63720000Y-52442500D02*
X63657500Y-52505000D01*
D34*
X28282500Y-41405000D02*
X28282500Y-39437500D01*
X28282500Y-39437500D02*
X28245000Y-39400000D01*
X54170000Y-88805000D02*
X54170000Y-64490000D01*
X57570000Y-90865000D02*
X56230000Y-90865000D01*
X54170000Y-64490000D02*
X52740000Y-63060000D01*
X56230000Y-90865000D02*
X54170000Y-88805000D01*
X56490000Y-88325000D02*
X57570000Y-88325000D01*
X55270000Y-87105000D02*
X56490000Y-88325000D01*
X55270000Y-63050000D02*
X55270000Y-87105000D01*
X52740000Y-60520000D02*
X55270000Y-63050000D01*
D33*
X65357500Y-63060000D02*
X63170000Y-65247500D01*
X63170000Y-65247500D02*
X63170000Y-77000000D01*
X65400000Y-63060000D02*
X65357500Y-63060000D01*
G04 #@! TA.AperFunction,Conductor*
G36*
X63808241Y-34725530D02*
G01*
X63808241Y-34725528D01*
X63818979Y-34725527D01*
X63818980Y-34725528D01*
X63863525Y-34725527D01*
X63869607Y-34725675D01*
X64223112Y-34743040D01*
X64235211Y-34744232D01*
X64582287Y-34795713D01*
X64594217Y-34798086D01*
X64934585Y-34883342D01*
X64946196Y-34886863D01*
X65276578Y-35005074D01*
X65287812Y-35009727D01*
X65605002Y-35159745D01*
X65615726Y-35165478D01*
X65916681Y-35345862D01*
X65926799Y-35352623D01*
X65964857Y-35380848D01*
X66208620Y-35561634D01*
X66218023Y-35569350D01*
X66478000Y-35804978D01*
X66486598Y-35813575D01*
X66722247Y-36073573D01*
X66729950Y-36082960D01*
X66874428Y-36277764D01*
X66938963Y-36364779D01*
X66945723Y-36374896D01*
X66954715Y-36389897D01*
X67126105Y-36675844D01*
X67131841Y-36686576D01*
X67281862Y-37003765D01*
X67286519Y-37015008D01*
X67404720Y-37345357D01*
X67408253Y-37357001D01*
X67493507Y-37697354D01*
X67495881Y-37709289D01*
X67547364Y-38056359D01*
X67548557Y-38068469D01*
X67565924Y-38421966D01*
X67566073Y-38428051D01*
X67566073Y-123369792D01*
X67566072Y-123369810D01*
X67566072Y-123421961D01*
X67565923Y-123428037D01*
X67548603Y-123781054D01*
X67547413Y-123793148D01*
X67496069Y-124139754D01*
X67493702Y-124151674D01*
X67408673Y-124491601D01*
X67405150Y-124503232D01*
X67287253Y-124833209D01*
X67282608Y-124844439D01*
X67132984Y-125161277D01*
X67127262Y-125171998D01*
X66947343Y-125472668D01*
X66940600Y-125482778D01*
X66732104Y-125764404D01*
X66724403Y-125773805D01*
X66489347Y-126033662D01*
X66480763Y-126042264D01*
X66221402Y-126277863D01*
X66212017Y-126285584D01*
X65930826Y-126494673D01*
X65920730Y-126501437D01*
X65620449Y-126681982D01*
X65609740Y-126687727D01*
X65293201Y-126838023D01*
X65281981Y-126842691D01*
X64952259Y-126961278D01*
X64940636Y-126964825D01*
X64600897Y-127050565D01*
X64588982Y-127052958D01*
X64242475Y-127105032D01*
X64230384Y-127106247D01*
X63877413Y-127124308D01*
X63871335Y-127124470D01*
X63852917Y-127124508D01*
X63852649Y-127124509D01*
X63852445Y-127124509D01*
X28473081Y-127139498D01*
X28466944Y-127139349D01*
X28113469Y-127121984D01*
X28101359Y-127120791D01*
X27754287Y-127069308D01*
X27742351Y-127066934D01*
X27401998Y-126981680D01*
X27390353Y-126978147D01*
X27060003Y-126859945D01*
X27048762Y-126855289D01*
X26731570Y-126705270D01*
X26720842Y-126699535D01*
X26419897Y-126519156D01*
X26409779Y-126512396D01*
X26127950Y-126303377D01*
X26118544Y-126295657D01*
X25982338Y-126172208D01*
X25858563Y-126060025D01*
X25849974Y-126051436D01*
X25614342Y-125791455D01*
X25606622Y-125782049D01*
X25397603Y-125500220D01*
X25390843Y-125490102D01*
X25383526Y-125477894D01*
X25210459Y-125189150D01*
X25204729Y-125178429D01*
X25201687Y-125171998D01*
X25136930Y-125035078D01*
X25054710Y-124861237D01*
X25050054Y-124849996D01*
X24931852Y-124519646D01*
X24928319Y-124508001D01*
X24843062Y-124167635D01*
X24840691Y-124155712D01*
X24789208Y-123808640D01*
X24788015Y-123796530D01*
X24770746Y-123445000D01*
X26439767Y-123445000D01*
X26458676Y-123721450D01*
X26458677Y-123721452D01*
X26515050Y-123992735D01*
X26515055Y-123992754D01*
X26569440Y-124145779D01*
X26607847Y-124253847D01*
X26735330Y-124499876D01*
X26888293Y-124716577D01*
X26904623Y-124748869D01*
X26969999Y-124944999D01*
X26970000Y-124945000D01*
X27175891Y-125013630D01*
X27214931Y-125035077D01*
X27299205Y-125103639D01*
X27535961Y-125247614D01*
X27535963Y-125247615D01*
X27535965Y-125247616D01*
X27705397Y-125321210D01*
X27790116Y-125358009D01*
X28056937Y-125432769D01*
X28298279Y-125465940D01*
X28331451Y-125470500D01*
X28331452Y-125470500D01*
X28608549Y-125470500D01*
X28638144Y-125466432D01*
X28883063Y-125432769D01*
X29149884Y-125358009D01*
X29404039Y-125247614D01*
X29640795Y-125103639D01*
X29725068Y-125035076D01*
X29764107Y-125013629D01*
X29970000Y-124945000D01*
X30035375Y-124748871D01*
X30051704Y-124716580D01*
X30204670Y-124499876D01*
X30332153Y-124253847D01*
X30424946Y-123992750D01*
X30481323Y-123721450D01*
X30500233Y-123445000D01*
X61844767Y-123445000D01*
X61863676Y-123721450D01*
X61863677Y-123721452D01*
X61920050Y-123992735D01*
X61920055Y-123992754D01*
X61974440Y-124145779D01*
X62012847Y-124253847D01*
X62140330Y-124499876D01*
X62293293Y-124716577D01*
X62309623Y-124748869D01*
X62374999Y-124944999D01*
X62375000Y-124945000D01*
X62580891Y-125013630D01*
X62619931Y-125035077D01*
X62704205Y-125103639D01*
X62940961Y-125247614D01*
X62940963Y-125247615D01*
X62940965Y-125247616D01*
X63110397Y-125321210D01*
X63195116Y-125358009D01*
X63461937Y-125432769D01*
X63703279Y-125465940D01*
X63736451Y-125470500D01*
X63736452Y-125470500D01*
X64013549Y-125470500D01*
X64043144Y-125466432D01*
X64288063Y-125432769D01*
X64554884Y-125358009D01*
X64809039Y-125247614D01*
X65045795Y-125103639D01*
X65130068Y-125035076D01*
X65169107Y-125013629D01*
X65375000Y-124945000D01*
X65440375Y-124748871D01*
X65456704Y-124716580D01*
X65609670Y-124499876D01*
X65737153Y-124253847D01*
X65829946Y-123992750D01*
X65886323Y-123721450D01*
X65905233Y-123445000D01*
X65886323Y-123168550D01*
X65829946Y-122897250D01*
X65737153Y-122636153D01*
X65609670Y-122390124D01*
X65456704Y-122173419D01*
X65440375Y-122141128D01*
X65375000Y-121945000D01*
X65374999Y-121944999D01*
X65169108Y-121876369D01*
X65130065Y-121854920D01*
X65045794Y-121786360D01*
X64809034Y-121642383D01*
X64554885Y-121531991D01*
X64288068Y-121457232D01*
X64288064Y-121457231D01*
X64288063Y-121457231D01*
X64150805Y-121438365D01*
X64013549Y-121419500D01*
X64013548Y-121419500D01*
X63736452Y-121419500D01*
X63736451Y-121419500D01*
X63461937Y-121457231D01*
X63461931Y-121457232D01*
X63195114Y-121531991D01*
X62940965Y-121642383D01*
X62704202Y-121786362D01*
X62704199Y-121786364D01*
X62619931Y-121854921D01*
X62580890Y-121876369D01*
X62375000Y-121945000D01*
X62309622Y-122141131D01*
X62293290Y-122173425D01*
X62140331Y-122390121D01*
X62012845Y-122636157D01*
X61920055Y-122897245D01*
X61920050Y-122897264D01*
X61863677Y-123168547D01*
X61863676Y-123168549D01*
X61844767Y-123445000D01*
X30500233Y-123445000D01*
X30481323Y-123168550D01*
X30424946Y-122897250D01*
X30332153Y-122636153D01*
X30204670Y-122390124D01*
X30051704Y-122173419D01*
X30035375Y-122141128D01*
X29970000Y-121945000D01*
X29969999Y-121944999D01*
X29764108Y-121876369D01*
X29725065Y-121854920D01*
X29640794Y-121786360D01*
X29404034Y-121642383D01*
X29149885Y-121531991D01*
X28883068Y-121457232D01*
X28883064Y-121457231D01*
X28883063Y-121457231D01*
X28745805Y-121438365D01*
X28608549Y-121419500D01*
X28608548Y-121419500D01*
X28331452Y-121419500D01*
X28331451Y-121419500D01*
X28056937Y-121457231D01*
X28056931Y-121457232D01*
X27790114Y-121531991D01*
X27535965Y-121642383D01*
X27299202Y-121786362D01*
X27299199Y-121786364D01*
X27214931Y-121854921D01*
X27175890Y-121876369D01*
X26970000Y-121945000D01*
X26904622Y-122141131D01*
X26888290Y-122173425D01*
X26735331Y-122390121D01*
X26607845Y-122636157D01*
X26515055Y-122897245D01*
X26515050Y-122897264D01*
X26458677Y-123168547D01*
X26458676Y-123168549D01*
X26439767Y-123445000D01*
X24770746Y-123445000D01*
X24770649Y-123443032D01*
X24770500Y-123436948D01*
X24770500Y-115978711D01*
X28209500Y-115978711D01*
X28209500Y-116821288D01*
X28241161Y-117061785D01*
X28303947Y-117296104D01*
X28326729Y-117351104D01*
X28396776Y-117520212D01*
X28518064Y-117730289D01*
X28518066Y-117730292D01*
X28518067Y-117730293D01*
X28665733Y-117922736D01*
X28665739Y-117922743D01*
X28837256Y-118094260D01*
X28837263Y-118094266D01*
X28908941Y-118149266D01*
X29029711Y-118241936D01*
X29239788Y-118363224D01*
X29463900Y-118456054D01*
X29698211Y-118518838D01*
X29878586Y-118542584D01*
X29938711Y-118550500D01*
X29938712Y-118550500D01*
X30181289Y-118550500D01*
X30229388Y-118544167D01*
X30421789Y-118518838D01*
X30656100Y-118456054D01*
X30880212Y-118363224D01*
X31090289Y-118241936D01*
X31282738Y-118094265D01*
X31454265Y-117922738D01*
X31601936Y-117730289D01*
X31723224Y-117520212D01*
X31816054Y-117296100D01*
X31878838Y-117061789D01*
X31910500Y-116821288D01*
X31910500Y-115978712D01*
X31909770Y-115973170D01*
X31886079Y-115793214D01*
X31878838Y-115738211D01*
X31816054Y-115503900D01*
X31723224Y-115279788D01*
X31601936Y-115069711D01*
X31541018Y-114990321D01*
X31454266Y-114877263D01*
X31454260Y-114877256D01*
X31282743Y-114705739D01*
X31282736Y-114705733D01*
X31090293Y-114558067D01*
X31090292Y-114558066D01*
X31090289Y-114558064D01*
X30880212Y-114436776D01*
X30880205Y-114436773D01*
X30656104Y-114343947D01*
X30421785Y-114281161D01*
X30181289Y-114249500D01*
X30181288Y-114249500D01*
X29938712Y-114249500D01*
X29938711Y-114249500D01*
X29698214Y-114281161D01*
X29463895Y-114343947D01*
X29239794Y-114436773D01*
X29239785Y-114436777D01*
X29029706Y-114558067D01*
X28837263Y-114705733D01*
X28837256Y-114705739D01*
X28665739Y-114877256D01*
X28665733Y-114877263D01*
X28518067Y-115069706D01*
X28396777Y-115279785D01*
X28396773Y-115279794D01*
X28303947Y-115503895D01*
X28241161Y-115738214D01*
X28209500Y-115978711D01*
X24770500Y-115978711D01*
X24770500Y-109449984D01*
X28209500Y-109449984D01*
X28209500Y-112350015D01*
X28220000Y-112452795D01*
X28220001Y-112452796D01*
X28275186Y-112619335D01*
X28275187Y-112619337D01*
X28367286Y-112768651D01*
X28367289Y-112768655D01*
X28491344Y-112892710D01*
X28491348Y-112892713D01*
X28640662Y-112984812D01*
X28640664Y-112984813D01*
X28640666Y-112984814D01*
X28807203Y-113039999D01*
X28909992Y-113050500D01*
X28909997Y-113050500D01*
X31210003Y-113050500D01*
X31210008Y-113050500D01*
X31312797Y-113039999D01*
X31479334Y-112984814D01*
X31628655Y-112892711D01*
X31752711Y-112768655D01*
X31844814Y-112619334D01*
X31899999Y-112452797D01*
X31910500Y-112350008D01*
X31910500Y-109449992D01*
X31899999Y-109347203D01*
X31844814Y-109180666D01*
X31806728Y-109118920D01*
X31752713Y-109031348D01*
X31752710Y-109031344D01*
X31628655Y-108907289D01*
X31628651Y-108907286D01*
X31479337Y-108815187D01*
X31479335Y-108815186D01*
X31396065Y-108787593D01*
X31312797Y-108760001D01*
X31312795Y-108760000D01*
X31210015Y-108749500D01*
X31210008Y-108749500D01*
X28909992Y-108749500D01*
X28909984Y-108749500D01*
X28807204Y-108760000D01*
X28807203Y-108760001D01*
X28640664Y-108815186D01*
X28640662Y-108815187D01*
X28491348Y-108907286D01*
X28491344Y-108907289D01*
X28367289Y-109031344D01*
X28367286Y-109031348D01*
X28275187Y-109180662D01*
X28275186Y-109180664D01*
X28220001Y-109347203D01*
X28220000Y-109347204D01*
X28209500Y-109449984D01*
X24770500Y-109449984D01*
X24770500Y-102367376D01*
X24790185Y-102300337D01*
X24842989Y-102254582D01*
X24912147Y-102244638D01*
X24975703Y-102273663D01*
X25013477Y-102332441D01*
X25016300Y-102344125D01*
X25020736Y-102367376D01*
X25033270Y-102433083D01*
X25130497Y-102732316D01*
X25130499Y-102732321D01*
X25264461Y-103017003D01*
X25264464Y-103017009D01*
X25433051Y-103282661D01*
X25433054Y-103282665D01*
X25633606Y-103525090D01*
X25633608Y-103525092D01*
X25633610Y-103525094D01*
X25654526Y-103544735D01*
X25862968Y-103740476D01*
X25862978Y-103740484D01*
X26117504Y-103925408D01*
X26117509Y-103925410D01*
X26117516Y-103925416D01*
X26393234Y-104076994D01*
X26393239Y-104076996D01*
X26393241Y-104076997D01*
X26393242Y-104076998D01*
X26685771Y-104192818D01*
X26685774Y-104192819D01*
X26801133Y-104222438D01*
X26990527Y-104271066D01*
X27056010Y-104279338D01*
X27302670Y-104310499D01*
X27302679Y-104310499D01*
X27302682Y-104310500D01*
X27302684Y-104310500D01*
X27617316Y-104310500D01*
X27617318Y-104310500D01*
X27617321Y-104310499D01*
X27617329Y-104310499D01*
X27803593Y-104286968D01*
X27929473Y-104271066D01*
X28234225Y-104192819D01*
X28234228Y-104192818D01*
X28526757Y-104076998D01*
X28526758Y-104076997D01*
X28526756Y-104076997D01*
X28526766Y-104076994D01*
X28802484Y-103925416D01*
X29057030Y-103740478D01*
X29286390Y-103525094D01*
X29486947Y-103282663D01*
X29655537Y-103017007D01*
X29789503Y-102732315D01*
X29818069Y-102644397D01*
X29857506Y-102586723D01*
X29921865Y-102559524D01*
X29990711Y-102571439D01*
X30042187Y-102618683D01*
X30060000Y-102682716D01*
X30060000Y-103014719D01*
X30070482Y-103147906D01*
X30070483Y-103147912D01*
X30125898Y-103367829D01*
X30125899Y-103367832D01*
X30219695Y-103574330D01*
X30219698Y-103574336D01*
X30348851Y-103760758D01*
X30348861Y-103760770D01*
X30509229Y-103921138D01*
X30509241Y-103921148D01*
X30695663Y-104050301D01*
X30695669Y-104050304D01*
X30902167Y-104144100D01*
X30902170Y-104144101D01*
X31122087Y-104199516D01*
X31122093Y-104199517D01*
X31255280Y-104209999D01*
X31255294Y-104210000D01*
X32210000Y-104210000D01*
X32210000Y-103137231D01*
X32353753Y-103160000D01*
X32566247Y-103160000D01*
X32710000Y-103137231D01*
X32710000Y-104210000D01*
X33664706Y-104210000D01*
X33664719Y-104209999D01*
X33797906Y-104199517D01*
X33797912Y-104199516D01*
X34017829Y-104144101D01*
X34017832Y-104144100D01*
X34224330Y-104050304D01*
X34224336Y-104050301D01*
X34410758Y-103921148D01*
X34410770Y-103921138D01*
X34422819Y-103909090D01*
X34484142Y-103875605D01*
X34553834Y-103880589D01*
X34609767Y-103922461D01*
X34634184Y-103987925D01*
X34634500Y-103996771D01*
X34634500Y-106991233D01*
X34668143Y-107160366D01*
X34668146Y-107160378D01*
X34734138Y-107319698D01*
X34734145Y-107319711D01*
X34829954Y-107463098D01*
X34829957Y-107463102D01*
X35320295Y-107953439D01*
X35345496Y-107989800D01*
X35374779Y-108054210D01*
X35801549Y-108992927D01*
X35819641Y-109022230D01*
X35868516Y-109101394D01*
X35872194Y-109105946D01*
X35872195Y-109105947D01*
X35896925Y-109134326D01*
X36009345Y-109224121D01*
X36009346Y-109224121D01*
X36009348Y-109224123D01*
X36142500Y-109278602D01*
X36142510Y-109278606D01*
X36151196Y-109280783D01*
X36204321Y-109291111D01*
X36229181Y-109291003D01*
X36296302Y-109310394D01*
X36317399Y-109327320D01*
X36367581Y-109377502D01*
X36401066Y-109438825D01*
X36403900Y-109465196D01*
X36403899Y-109468172D01*
X36403900Y-109468182D01*
X36435417Y-109608568D01*
X36501677Y-109728020D01*
X36505211Y-109734391D01*
X36510628Y-109741527D01*
X36545590Y-109782803D01*
X36658218Y-109872341D01*
X38042382Y-110681264D01*
X38067497Y-110700641D01*
X48604955Y-121238099D01*
X48726898Y-121360042D01*
X48726902Y-121360046D01*
X48870288Y-121455854D01*
X48870301Y-121455861D01*
X49029621Y-121521853D01*
X49029626Y-121521855D01*
X49198766Y-121555499D01*
X49198769Y-121555500D01*
X49198771Y-121555500D01*
X60081231Y-121555500D01*
X60081232Y-121555499D01*
X60250374Y-121521855D01*
X60406388Y-121457232D01*
X60409698Y-121455861D01*
X60409698Y-121455860D01*
X60409705Y-121455858D01*
X60553099Y-121360045D01*
X62555365Y-119357777D01*
X62571801Y-119343971D01*
X63674290Y-118570236D01*
X63713416Y-118551965D01*
X63866100Y-118511054D01*
X64090212Y-118418224D01*
X64300289Y-118296936D01*
X64492738Y-118149265D01*
X64664265Y-117977738D01*
X64811936Y-117785289D01*
X64933224Y-117575212D01*
X65026054Y-117351100D01*
X65088838Y-117116789D01*
X65120500Y-116876288D01*
X65120500Y-116033712D01*
X65088838Y-115793211D01*
X65026054Y-115558900D01*
X64933224Y-115334788D01*
X64811936Y-115124711D01*
X64664265Y-114932262D01*
X64664260Y-114932256D01*
X64492743Y-114760739D01*
X64492736Y-114760733D01*
X64300293Y-114613067D01*
X64300292Y-114613066D01*
X64300289Y-114613064D01*
X64090212Y-114491776D01*
X64090205Y-114491773D01*
X63866104Y-114398947D01*
X63748944Y-114367554D01*
X63631789Y-114336162D01*
X63631788Y-114336161D01*
X63631785Y-114336161D01*
X63391289Y-114304500D01*
X63391288Y-114304500D01*
X63148712Y-114304500D01*
X63148711Y-114304500D01*
X62908214Y-114336161D01*
X62673895Y-114398947D01*
X62449794Y-114491773D01*
X62449785Y-114491777D01*
X62239706Y-114613067D01*
X62047263Y-114760733D01*
X62047256Y-114760739D01*
X61875739Y-114932256D01*
X61875733Y-114932263D01*
X61728067Y-115124706D01*
X61606777Y-115334785D01*
X61606773Y-115334794D01*
X61513947Y-115558895D01*
X61451161Y-115793214D01*
X61419500Y-116033711D01*
X61419500Y-116738202D01*
X61418632Y-116752850D01*
X61252845Y-118146427D01*
X61225378Y-118210672D01*
X61217394Y-118219460D01*
X59668675Y-119768181D01*
X59607352Y-119801666D01*
X59580994Y-119804500D01*
X58793791Y-119804500D01*
X58726752Y-119784815D01*
X58680997Y-119732011D01*
X58671053Y-119662853D01*
X58694020Y-119606868D01*
X58722793Y-119567882D01*
X58745219Y-119503790D01*
X58767646Y-119439701D01*
X58767646Y-119439699D01*
X58770500Y-119409269D01*
X58770500Y-118200730D01*
X58767646Y-118170300D01*
X58767646Y-118170298D01*
X58722793Y-118042119D01*
X58722792Y-118042117D01*
X58675282Y-117977743D01*
X58642150Y-117932850D01*
X58532882Y-117852207D01*
X58532880Y-117852206D01*
X58404700Y-117807353D01*
X58374270Y-117804500D01*
X58374266Y-117804500D01*
X56165734Y-117804500D01*
X56165730Y-117804500D01*
X56135300Y-117807353D01*
X56135298Y-117807353D01*
X56007119Y-117852206D01*
X56007117Y-117852207D01*
X55897850Y-117932850D01*
X55817207Y-118042117D01*
X55817206Y-118042119D01*
X55772353Y-118170298D01*
X55772353Y-118170300D01*
X55769500Y-118200730D01*
X55769500Y-119409269D01*
X55772353Y-119439699D01*
X55772353Y-119439701D01*
X55817206Y-119567880D01*
X55817207Y-119567882D01*
X55845979Y-119606867D01*
X55869950Y-119672495D01*
X55854635Y-119740665D01*
X55804895Y-119789734D01*
X55746209Y-119804500D01*
X49699006Y-119804500D01*
X49631967Y-119784815D01*
X49611325Y-119768181D01*
X39378983Y-109535839D01*
X39345498Y-109474516D01*
X39344657Y-109470300D01*
X39340972Y-109449997D01*
X39246314Y-108928417D01*
X39221630Y-108839538D01*
X39220122Y-108835559D01*
X39219306Y-108833419D01*
X39151241Y-108711620D01*
X39135722Y-108643497D01*
X39154264Y-108585525D01*
X39211651Y-108493486D01*
X39250295Y-108354892D01*
X39251448Y-108346012D01*
X39255533Y-108292063D01*
X39238200Y-108149231D01*
X39171189Y-107900893D01*
X39172729Y-107831040D01*
X39203224Y-107780909D01*
X39882952Y-107101183D01*
X39932080Y-107027653D01*
X39947492Y-107008874D01*
X40752823Y-106203543D01*
X55769499Y-106203543D01*
X55807947Y-106396829D01*
X55807950Y-106396839D01*
X55883364Y-106578907D01*
X55883371Y-106578920D01*
X55992860Y-106742781D01*
X55992863Y-106742785D01*
X56132214Y-106882136D01*
X56132218Y-106882139D01*
X56296079Y-106991628D01*
X56296092Y-106991635D01*
X56478160Y-107067049D01*
X56478165Y-107067051D01*
X56478169Y-107067051D01*
X56478170Y-107067052D01*
X56671456Y-107105500D01*
X56671459Y-107105500D01*
X57868543Y-107105500D01*
X57998582Y-107079632D01*
X58061835Y-107067051D01*
X58243914Y-106991632D01*
X58407782Y-106882139D01*
X58547139Y-106742782D01*
X58656632Y-106578914D01*
X58732051Y-106396835D01*
X58770500Y-106203541D01*
X58770500Y-106006459D01*
X58770500Y-106006456D01*
X58732052Y-105813170D01*
X58732051Y-105813169D01*
X58732051Y-105813165D01*
X58694031Y-105721375D01*
X58656635Y-105631092D01*
X58656628Y-105631079D01*
X58547139Y-105467218D01*
X58547136Y-105467214D01*
X58407785Y-105327863D01*
X58407781Y-105327860D01*
X58243920Y-105218371D01*
X58243907Y-105218364D01*
X58061839Y-105142950D01*
X58061829Y-105142947D01*
X57868543Y-105104500D01*
X57868541Y-105104500D01*
X56671459Y-105104500D01*
X56671457Y-105104500D01*
X56478170Y-105142947D01*
X56478160Y-105142950D01*
X56296092Y-105218364D01*
X56296079Y-105218371D01*
X56132218Y-105327860D01*
X56132214Y-105327863D01*
X55992863Y-105467214D01*
X55992860Y-105467218D01*
X55883371Y-105631079D01*
X55883364Y-105631092D01*
X55807950Y-105813160D01*
X55807947Y-105813170D01*
X55769500Y-106006456D01*
X55769500Y-106006459D01*
X55769500Y-106203541D01*
X55769500Y-106203543D01*
X55769499Y-106203543D01*
X40752823Y-106203543D01*
X42464548Y-104491819D01*
X42525871Y-104458334D01*
X42552229Y-104455500D01*
X50467904Y-104455500D01*
X50488289Y-104457187D01*
X51132002Y-104564471D01*
X51137311Y-104565477D01*
X51207981Y-104580500D01*
X51228693Y-104580500D01*
X51241574Y-104581303D01*
X51241579Y-104581248D01*
X51244058Y-104581456D01*
X51244081Y-104581459D01*
X51245973Y-104581618D01*
X51245984Y-104581617D01*
X51245986Y-104581618D01*
X51348366Y-104580563D01*
X51348366Y-104580610D01*
X51350078Y-104580500D01*
X51392019Y-104580500D01*
X51572034Y-104542236D01*
X51740161Y-104467381D01*
X51889050Y-104359207D01*
X52012195Y-104222440D01*
X52104214Y-104063059D01*
X52161085Y-103888029D01*
X52180322Y-103705000D01*
X52175964Y-103663543D01*
X55769499Y-103663543D01*
X55807947Y-103856829D01*
X55807950Y-103856839D01*
X55883364Y-104038907D01*
X55883371Y-104038920D01*
X55992860Y-104202781D01*
X55992863Y-104202785D01*
X56132214Y-104342136D01*
X56132218Y-104342139D01*
X56296079Y-104451628D01*
X56296092Y-104451635D01*
X56478160Y-104527049D01*
X56478165Y-104527051D01*
X56478169Y-104527051D01*
X56478170Y-104527052D01*
X56671456Y-104565500D01*
X56671459Y-104565500D01*
X57868543Y-104565500D01*
X57998582Y-104539632D01*
X58061835Y-104527051D01*
X58205895Y-104467380D01*
X58243907Y-104451635D01*
X58243907Y-104451634D01*
X58243914Y-104451632D01*
X58407782Y-104342139D01*
X58547139Y-104202782D01*
X58656632Y-104038914D01*
X58732051Y-103856835D01*
X58770500Y-103663541D01*
X58770500Y-103466459D01*
X58770500Y-103466456D01*
X58732052Y-103273170D01*
X58732051Y-103273169D01*
X58732051Y-103273165D01*
X58680170Y-103147912D01*
X58656635Y-103091092D01*
X58656628Y-103091079D01*
X58547139Y-102927218D01*
X58547136Y-102927214D01*
X58407785Y-102787863D01*
X58407781Y-102787860D01*
X58243920Y-102678371D01*
X58243907Y-102678364D01*
X58061839Y-102602950D01*
X58061829Y-102602947D01*
X57868543Y-102564500D01*
X57868541Y-102564500D01*
X56671459Y-102564500D01*
X56671457Y-102564500D01*
X56478170Y-102602947D01*
X56478160Y-102602950D01*
X56296092Y-102678364D01*
X56296079Y-102678371D01*
X56132218Y-102787860D01*
X56132214Y-102787863D01*
X55992863Y-102927214D01*
X55992860Y-102927218D01*
X55883371Y-103091079D01*
X55883364Y-103091092D01*
X55807950Y-103273160D01*
X55807947Y-103273170D01*
X55769500Y-103466456D01*
X55769500Y-103466459D01*
X55769500Y-103663541D01*
X55769500Y-103663543D01*
X55769499Y-103663543D01*
X52175964Y-103663543D01*
X52172211Y-103627838D01*
X52171565Y-103617672D01*
X52171357Y-103608310D01*
X52168728Y-103592540D01*
X52167723Y-103585133D01*
X52161085Y-103521971D01*
X52155489Y-103504751D01*
X52151108Y-103486820D01*
X52117082Y-103282663D01*
X52052187Y-102893284D01*
X52050500Y-102872899D01*
X52050500Y-97401170D01*
X52070185Y-97334131D01*
X52122989Y-97288376D01*
X52192147Y-97278432D01*
X52255703Y-97307457D01*
X52289061Y-97353718D01*
X52335685Y-97466281D01*
X52335690Y-97466290D01*
X52347679Y-97484232D01*
X52347680Y-97484233D01*
X52404140Y-97568731D01*
X52404141Y-97568732D01*
X52404142Y-97568733D01*
X52491267Y-97655858D01*
X52491268Y-97655858D01*
X52498335Y-97662925D01*
X52498334Y-97662925D01*
X52498338Y-97662928D01*
X55041263Y-100205855D01*
X55041267Y-100205858D01*
X55143710Y-100274309D01*
X55143711Y-100274309D01*
X55143715Y-100274312D01*
X55210396Y-100301931D01*
X55210398Y-100301933D01*
X55250640Y-100318601D01*
X55257548Y-100321463D01*
X55272817Y-100324500D01*
X55337337Y-100337334D01*
X55378393Y-100345501D01*
X55378394Y-100345501D01*
X55507721Y-100345501D01*
X55507741Y-100345500D01*
X55788748Y-100345500D01*
X55855787Y-100365185D01*
X55901542Y-100417989D01*
X55911486Y-100487147D01*
X55891850Y-100538391D01*
X55883371Y-100551080D01*
X55883364Y-100551092D01*
X55807950Y-100733160D01*
X55807947Y-100733170D01*
X55769500Y-100926456D01*
X55769500Y-100926459D01*
X55769500Y-101123541D01*
X55769500Y-101123543D01*
X55769499Y-101123543D01*
X55807947Y-101316829D01*
X55807950Y-101316839D01*
X55883364Y-101498907D01*
X55883371Y-101498920D01*
X55992860Y-101662781D01*
X55992863Y-101662785D01*
X56132214Y-101802136D01*
X56132218Y-101802139D01*
X56296079Y-101911628D01*
X56296092Y-101911635D01*
X56386868Y-101949235D01*
X56478165Y-101987051D01*
X56478169Y-101987051D01*
X56478170Y-101987052D01*
X56671456Y-102025500D01*
X56671459Y-102025500D01*
X57868543Y-102025500D01*
X57998582Y-101999632D01*
X58061835Y-101987051D01*
X58243914Y-101911632D01*
X58407782Y-101802139D01*
X58547139Y-101662782D01*
X58656632Y-101498914D01*
X58732051Y-101316835D01*
X58770500Y-101123541D01*
X58770500Y-100926459D01*
X58770500Y-100926456D01*
X58732052Y-100733170D01*
X58732051Y-100733169D01*
X58732051Y-100733165D01*
X58732049Y-100733160D01*
X58656635Y-100551092D01*
X58656633Y-100551088D01*
X58656632Y-100551086D01*
X58656627Y-100551079D01*
X58648150Y-100538391D01*
X58627272Y-100471714D01*
X58645756Y-100404334D01*
X58697735Y-100357643D01*
X58751252Y-100345500D01*
X63217454Y-100345500D01*
X63217454Y-100345499D01*
X63323029Y-100324500D01*
X63323030Y-100324500D01*
X63338293Y-100321464D01*
X63338293Y-100321463D01*
X63338298Y-100321463D01*
X63338303Y-100321460D01*
X63338306Y-100321460D01*
X63371633Y-100307654D01*
X63371632Y-100307654D01*
X63371638Y-100307652D01*
X63452132Y-100274312D01*
X63503355Y-100240084D01*
X63554579Y-100205858D01*
X63561059Y-100199378D01*
X63607667Y-100170056D01*
X64871474Y-99726380D01*
X64880411Y-99723618D01*
X64893227Y-99720185D01*
X64900186Y-99716939D01*
X64909963Y-99712879D01*
X64923280Y-99708003D01*
X64923291Y-99707998D01*
X64923315Y-99707990D01*
X64923905Y-99707765D01*
X64923914Y-99707761D01*
X64991474Y-99676653D01*
X64992452Y-99678778D01*
X65049772Y-99664073D01*
X65116094Y-99686055D01*
X65160002Y-99740404D01*
X65169500Y-99787999D01*
X65169500Y-102777769D01*
X65149815Y-102844808D01*
X65133181Y-102865450D01*
X59817050Y-108181580D01*
X59817044Y-108181588D01*
X59767812Y-108255268D01*
X59767813Y-108255269D01*
X59734921Y-108304496D01*
X59734914Y-108304508D01*
X59678342Y-108441086D01*
X59678340Y-108441092D01*
X59649500Y-108586079D01*
X59649500Y-113072769D01*
X59629815Y-113139808D01*
X59613181Y-113160450D01*
X58982181Y-113791450D01*
X58920858Y-113824935D01*
X58851166Y-113819951D01*
X58795233Y-113778079D01*
X58770816Y-113712615D01*
X58770500Y-113703769D01*
X58770500Y-113626456D01*
X58732052Y-113433170D01*
X58732051Y-113433169D01*
X58732051Y-113433165D01*
X58702194Y-113361083D01*
X58656635Y-113251092D01*
X58656628Y-113251079D01*
X58547139Y-113087218D01*
X58547136Y-113087214D01*
X58407785Y-112947863D01*
X58407781Y-112947860D01*
X58243920Y-112838371D01*
X58243907Y-112838364D01*
X58061839Y-112762950D01*
X58061829Y-112762947D01*
X57880937Y-112726965D01*
X57819026Y-112694580D01*
X57784452Y-112633864D01*
X57788192Y-112564095D01*
X57829059Y-112507423D01*
X57885731Y-112482875D01*
X58074417Y-112452990D01*
X58269031Y-112389755D01*
X58451349Y-112296859D01*
X58616894Y-112176582D01*
X58616895Y-112176582D01*
X58761582Y-112031895D01*
X58761582Y-112031894D01*
X58881859Y-111866349D01*
X58974755Y-111684029D01*
X59037990Y-111489413D01*
X59046609Y-111435000D01*
X58003012Y-111435000D01*
X58035925Y-111377993D01*
X58070000Y-111250826D01*
X58070000Y-111119174D01*
X58035925Y-110992007D01*
X58003012Y-110935000D01*
X59046609Y-110935000D01*
X59037990Y-110880586D01*
X58974755Y-110685970D01*
X58881859Y-110503650D01*
X58761582Y-110338105D01*
X58761582Y-110338104D01*
X58616895Y-110193417D01*
X58451349Y-110073140D01*
X58269031Y-109980244D01*
X58074417Y-109917009D01*
X57885731Y-109887124D01*
X57822596Y-109857194D01*
X57785665Y-109797883D01*
X57786663Y-109728020D01*
X57825273Y-109669788D01*
X57880938Y-109643034D01*
X58061835Y-109607051D01*
X58202655Y-109548721D01*
X58243907Y-109531635D01*
X58243907Y-109531634D01*
X58243914Y-109531632D01*
X58407782Y-109422139D01*
X58547139Y-109282782D01*
X58656632Y-109118914D01*
X58662004Y-109105946D01*
X58692904Y-109031344D01*
X58732051Y-108936835D01*
X58756286Y-108815000D01*
X58770500Y-108743543D01*
X58770500Y-108546456D01*
X58732052Y-108353170D01*
X58732051Y-108353169D01*
X58732051Y-108353165D01*
X58691502Y-108255270D01*
X58656635Y-108171092D01*
X58656628Y-108171079D01*
X58547139Y-108007218D01*
X58547136Y-108007214D01*
X58407785Y-107867863D01*
X58407781Y-107867860D01*
X58243920Y-107758371D01*
X58243907Y-107758364D01*
X58061839Y-107682950D01*
X58061829Y-107682947D01*
X57868543Y-107644500D01*
X57868541Y-107644500D01*
X56671459Y-107644500D01*
X56671457Y-107644500D01*
X56478170Y-107682947D01*
X56478160Y-107682950D01*
X56296092Y-107758364D01*
X56296079Y-107758371D01*
X56132218Y-107867860D01*
X56132214Y-107867863D01*
X55992863Y-108007214D01*
X55992860Y-108007218D01*
X55883371Y-108171079D01*
X55883364Y-108171092D01*
X55807950Y-108353160D01*
X55807947Y-108353170D01*
X55769500Y-108546456D01*
X55769500Y-108546459D01*
X55769500Y-108743541D01*
X55769500Y-108743543D01*
X55769499Y-108743543D01*
X55807947Y-108936829D01*
X55807950Y-108936839D01*
X55883364Y-109118907D01*
X55883371Y-109118920D01*
X55992860Y-109282781D01*
X55992863Y-109282785D01*
X56132214Y-109422136D01*
X56132218Y-109422139D01*
X56296079Y-109531628D01*
X56296092Y-109531635D01*
X56478160Y-109607049D01*
X56478165Y-109607051D01*
X56610674Y-109633409D01*
X56659061Y-109643034D01*
X56720972Y-109675419D01*
X56755546Y-109736134D01*
X56751807Y-109805904D01*
X56710940Y-109862576D01*
X56654269Y-109887124D01*
X56465581Y-109917010D01*
X56270968Y-109980244D01*
X56088650Y-110073140D01*
X55923105Y-110193417D01*
X55923104Y-110193417D01*
X55778417Y-110338104D01*
X55778417Y-110338105D01*
X55658140Y-110503650D01*
X55565244Y-110685970D01*
X55502009Y-110880586D01*
X55493391Y-110935000D01*
X57136988Y-110935000D01*
X57104075Y-110992007D01*
X57070000Y-111119174D01*
X57070000Y-111250826D01*
X57104075Y-111377993D01*
X57136988Y-111435000D01*
X55493391Y-111435000D01*
X55502009Y-111489413D01*
X55565244Y-111684029D01*
X55658140Y-111866349D01*
X55778417Y-112031894D01*
X55778417Y-112031895D01*
X55923104Y-112176582D01*
X56088650Y-112296859D01*
X56270968Y-112389755D01*
X56465582Y-112452990D01*
X56654268Y-112482875D01*
X56717403Y-112512804D01*
X56754334Y-112572116D01*
X56753336Y-112641978D01*
X56714726Y-112700211D01*
X56659062Y-112726965D01*
X56478170Y-112762947D01*
X56478160Y-112762950D01*
X56296092Y-112838364D01*
X56296079Y-112838371D01*
X56132218Y-112947860D01*
X56132214Y-112947863D01*
X55992863Y-113087214D01*
X55992860Y-113087218D01*
X55883371Y-113251079D01*
X55883364Y-113251092D01*
X55807950Y-113433160D01*
X55807947Y-113433170D01*
X55769500Y-113626456D01*
X55769500Y-113626459D01*
X55769500Y-113823541D01*
X55769500Y-113823543D01*
X55769499Y-113823543D01*
X55807947Y-114016829D01*
X55807950Y-114016839D01*
X55883364Y-114198907D01*
X55883371Y-114198920D01*
X55992860Y-114362781D01*
X55992863Y-114362785D01*
X56132214Y-114502136D01*
X56132218Y-114502139D01*
X56296079Y-114611628D01*
X56296092Y-114611635D01*
X56478160Y-114687049D01*
X56478165Y-114687051D01*
X56478169Y-114687051D01*
X56478170Y-114687052D01*
X56671456Y-114725500D01*
X56671459Y-114725500D01*
X57075588Y-114725500D01*
X57142627Y-114745185D01*
X57188382Y-114797989D01*
X57198326Y-114867147D01*
X57169301Y-114930703D01*
X57124989Y-114963234D01*
X57047803Y-114996759D01*
X57047776Y-114996771D01*
X57047776Y-114996772D01*
X57003365Y-115018707D01*
X56936362Y-115069706D01*
X56888873Y-115105852D01*
X56882740Y-115112083D01*
X56818040Y-115192948D01*
X56814050Y-115199427D01*
X56812764Y-115198635D01*
X56772617Y-115244879D01*
X56705677Y-115264500D01*
X56671457Y-115264500D01*
X56478170Y-115302947D01*
X56478160Y-115302950D01*
X56296092Y-115378364D01*
X56296079Y-115378371D01*
X56132218Y-115487860D01*
X56132214Y-115487863D01*
X55992863Y-115627214D01*
X55992860Y-115627218D01*
X55883371Y-115791079D01*
X55883364Y-115791092D01*
X55807950Y-115973160D01*
X55807947Y-115973170D01*
X55769500Y-116166456D01*
X55769500Y-116166459D01*
X55769500Y-116363541D01*
X55769500Y-116363543D01*
X55769499Y-116363543D01*
X55807947Y-116556829D01*
X55807950Y-116556839D01*
X55883364Y-116738907D01*
X55883371Y-116738920D01*
X55992860Y-116902781D01*
X55992863Y-116902785D01*
X56132214Y-117042136D01*
X56132218Y-117042139D01*
X56296079Y-117151628D01*
X56296092Y-117151635D01*
X56478160Y-117227049D01*
X56478165Y-117227051D01*
X56478169Y-117227051D01*
X56478170Y-117227052D01*
X56671456Y-117265500D01*
X56671459Y-117265500D01*
X57868543Y-117265500D01*
X57998582Y-117239632D01*
X58061835Y-117227051D01*
X58243914Y-117151632D01*
X58407782Y-117042139D01*
X58503340Y-116946579D01*
X58564663Y-116913094D01*
X58589828Y-116910266D01*
X58621789Y-116909959D01*
X58628611Y-116908911D01*
X58688218Y-116896032D01*
X58819831Y-116837897D01*
X58929734Y-116745038D01*
X58935682Y-116738344D01*
X58969434Y-116695990D01*
X59035424Y-116568135D01*
X59401274Y-115512680D01*
X59430752Y-115465614D01*
X60982951Y-113913416D01*
X61065084Y-113790495D01*
X61121658Y-113653913D01*
X61150500Y-113508918D01*
X61150500Y-113361083D01*
X61150500Y-109504984D01*
X61419500Y-109504984D01*
X61419500Y-112405015D01*
X61430000Y-112507795D01*
X61430001Y-112507796D01*
X61485186Y-112674335D01*
X61485187Y-112674337D01*
X61577286Y-112823651D01*
X61577289Y-112823655D01*
X61701344Y-112947710D01*
X61701348Y-112947713D01*
X61850662Y-113039812D01*
X61850664Y-113039813D01*
X61850666Y-113039814D01*
X62017203Y-113094999D01*
X62119992Y-113105500D01*
X62119997Y-113105500D01*
X64420003Y-113105500D01*
X64420008Y-113105500D01*
X64522797Y-113094999D01*
X64689334Y-113039814D01*
X64838655Y-112947711D01*
X64962711Y-112823655D01*
X65054814Y-112674334D01*
X65109999Y-112507797D01*
X65120500Y-112405008D01*
X65120500Y-109504992D01*
X65109999Y-109402203D01*
X65054814Y-109235666D01*
X65047694Y-109224123D01*
X64962713Y-109086348D01*
X64962710Y-109086344D01*
X64838655Y-108962289D01*
X64838651Y-108962286D01*
X64689337Y-108870187D01*
X64689335Y-108870186D01*
X64584837Y-108835559D01*
X64522797Y-108815001D01*
X64522795Y-108815000D01*
X64420015Y-108804500D01*
X64420008Y-108804500D01*
X62119992Y-108804500D01*
X62119984Y-108804500D01*
X62017204Y-108815000D01*
X62017203Y-108815001D01*
X61850664Y-108870186D01*
X61850662Y-108870187D01*
X61701348Y-108962286D01*
X61701344Y-108962289D01*
X61577289Y-109086344D01*
X61577286Y-109086348D01*
X61485187Y-109235662D01*
X61485186Y-109235664D01*
X61430001Y-109402203D01*
X61430000Y-109402204D01*
X61419500Y-109504984D01*
X61150500Y-109504984D01*
X61150500Y-109022230D01*
X61170185Y-108955191D01*
X61186819Y-108934549D01*
X63724539Y-106396829D01*
X66502952Y-103618416D01*
X66552186Y-103544729D01*
X66585084Y-103495495D01*
X66641658Y-103358913D01*
X66656825Y-103282665D01*
X66670500Y-103213920D01*
X66670500Y-94782797D01*
X66641659Y-94637810D01*
X66641658Y-94637809D01*
X66641658Y-94637805D01*
X66585084Y-94501223D01*
X66535212Y-94426584D01*
X66521125Y-94405500D01*
X66502954Y-94378304D01*
X66255013Y-94130363D01*
X66229173Y-94092572D01*
X65682244Y-92848090D01*
X65660670Y-92804761D01*
X65660667Y-92804758D01*
X65657542Y-92799743D01*
X65657742Y-92799618D01*
X65647709Y-92783046D01*
X65632077Y-92749524D01*
X65603599Y-92688453D01*
X65603596Y-92688449D01*
X65603596Y-92688448D01*
X65468058Y-92494879D01*
X65300966Y-92327788D01*
X65300959Y-92327783D01*
X65281296Y-92314015D01*
X65262085Y-92300563D01*
X65107398Y-92192249D01*
X65107395Y-92192247D01*
X65107394Y-92192247D01*
X65019315Y-92151175D01*
X64981442Y-92133514D01*
X64968310Y-92126398D01*
X64947756Y-92113601D01*
X63703270Y-91566670D01*
X63665479Y-91540830D01*
X59986819Y-87862169D01*
X59953334Y-87800846D01*
X59950500Y-87774488D01*
X59950500Y-80026079D01*
X59921659Y-79881092D01*
X59921658Y-79881091D01*
X59921658Y-79881087D01*
X59921656Y-79881082D01*
X59865085Y-79744507D01*
X59857931Y-79733799D01*
X59804749Y-79654207D01*
X59782952Y-79621584D01*
X59186180Y-79024812D01*
X58578421Y-78417052D01*
X58578414Y-78417046D01*
X58504729Y-78367812D01*
X58504729Y-78367813D01*
X58455491Y-78334913D01*
X58318917Y-78278343D01*
X58318907Y-78278340D01*
X58173920Y-78249500D01*
X58173918Y-78249500D01*
X57332104Y-78249500D01*
X57311718Y-78247813D01*
X56668000Y-78140526D01*
X56662626Y-78139507D01*
X56592019Y-78124500D01*
X56592015Y-78124500D01*
X56571269Y-78124500D01*
X56558272Y-78123691D01*
X56558269Y-78123737D01*
X56556157Y-78123560D01*
X56555906Y-78123544D01*
X56555759Y-78123526D01*
X56554277Y-78123401D01*
X56553862Y-78123367D01*
X56463635Y-78124312D01*
X56458982Y-78124361D01*
X56458981Y-78124361D01*
X56451638Y-78124438D01*
X56451637Y-78124389D01*
X56449915Y-78124500D01*
X56407981Y-78124500D01*
X56227966Y-78162763D01*
X56227965Y-78162763D01*
X56194935Y-78177470D01*
X56125685Y-78186754D01*
X56062408Y-78157125D01*
X56025196Y-78097990D01*
X56020500Y-78064190D01*
X56020500Y-64506454D01*
X59669500Y-64506454D01*
X59669500Y-64506459D01*
X59669500Y-78818541D01*
X59679468Y-78868655D01*
X59679736Y-78869999D01*
X59679736Y-78870001D01*
X59705980Y-79001942D01*
X59707947Y-79011833D01*
X59707948Y-79011835D01*
X59783364Y-79193907D01*
X59783371Y-79193920D01*
X59892860Y-79357781D01*
X59892863Y-79357785D01*
X60036537Y-79501459D01*
X60036559Y-79501479D01*
X61257089Y-80722009D01*
X61290574Y-80783332D01*
X61293319Y-80805001D01*
X61336203Y-81938338D01*
X61335231Y-81959211D01*
X61319500Y-82078709D01*
X61319500Y-82921288D01*
X61351161Y-83161785D01*
X61413947Y-83396104D01*
X61500969Y-83606192D01*
X61506776Y-83620212D01*
X61628064Y-83830289D01*
X61628066Y-83830292D01*
X61628067Y-83830293D01*
X61775733Y-84022736D01*
X61775739Y-84022743D01*
X61947256Y-84194260D01*
X61947262Y-84194265D01*
X62139711Y-84341936D01*
X62349788Y-84463224D01*
X62573900Y-84556054D01*
X62808211Y-84618838D01*
X62988586Y-84642584D01*
X63048711Y-84650500D01*
X63048712Y-84650500D01*
X63291289Y-84650500D01*
X63339388Y-84644167D01*
X63531789Y-84618838D01*
X63766100Y-84556054D01*
X63990212Y-84463224D01*
X64200289Y-84341936D01*
X64392738Y-84194265D01*
X64564265Y-84022738D01*
X64711936Y-83830289D01*
X64833224Y-83620212D01*
X64926054Y-83396100D01*
X64988838Y-83161789D01*
X65020500Y-82921288D01*
X65020500Y-82078712D01*
X64988838Y-81838211D01*
X64926054Y-81603900D01*
X64833224Y-81379788D01*
X64711936Y-81169711D01*
X64614121Y-81042236D01*
X64564266Y-80977263D01*
X64564260Y-80977256D01*
X64392743Y-80805739D01*
X64392736Y-80805733D01*
X64200293Y-80658067D01*
X64200292Y-80658066D01*
X64200289Y-80658064D01*
X64110901Y-80606456D01*
X63990219Y-80536779D01*
X63990207Y-80536773D01*
X63861894Y-80483624D01*
X63821666Y-80456744D01*
X63804686Y-80439764D01*
X63804655Y-80439735D01*
X63351265Y-79986345D01*
X63350646Y-79985722D01*
X62864687Y-79492831D01*
X62862238Y-79490366D01*
X62862161Y-79490289D01*
X62821915Y-79454137D01*
X62818729Y-79451796D01*
X62804474Y-79439554D01*
X62727101Y-79362181D01*
X62693616Y-79300858D01*
X62698600Y-79231166D01*
X62740472Y-79175233D01*
X62805936Y-79150816D01*
X62814782Y-79150500D01*
X64320003Y-79150500D01*
X64320008Y-79150500D01*
X64422797Y-79139999D01*
X64589334Y-79084814D01*
X64738655Y-78992711D01*
X64862711Y-78868655D01*
X64954814Y-78719334D01*
X65009999Y-78552797D01*
X65020500Y-78450008D01*
X65020500Y-75549992D01*
X65009999Y-75447203D01*
X64954814Y-75280666D01*
X64933268Y-75245735D01*
X64862713Y-75131348D01*
X64862710Y-75131344D01*
X64738655Y-75007289D01*
X64738651Y-75007286D01*
X64589342Y-74915190D01*
X64589337Y-74915187D01*
X64589334Y-74915186D01*
X64589328Y-74915184D01*
X64552419Y-74902953D01*
X64494975Y-74863180D01*
X64480516Y-74840702D01*
X64183591Y-74246851D01*
X64170500Y-74191397D01*
X64170500Y-71649758D01*
X64190185Y-71582719D01*
X64242989Y-71536964D01*
X64312147Y-71527020D01*
X64375703Y-71556045D01*
X64382181Y-71562077D01*
X64528599Y-71708495D01*
X64600389Y-71758763D01*
X64722165Y-71844032D01*
X64722167Y-71844033D01*
X64722170Y-71844035D01*
X64936337Y-71943903D01*
X64936343Y-71943904D01*
X64936344Y-71943905D01*
X64991285Y-71958626D01*
X65164592Y-72005063D01*
X65352918Y-72021539D01*
X65399999Y-72025659D01*
X65400000Y-72025659D01*
X65400001Y-72025659D01*
X65439234Y-72022226D01*
X65635408Y-72005063D01*
X65863663Y-71943903D01*
X66077830Y-71844035D01*
X66271401Y-71708495D01*
X66438495Y-71541401D01*
X66574035Y-71347830D01*
X66673903Y-71133663D01*
X66735063Y-70905408D01*
X66755659Y-70670000D01*
X66735063Y-70434592D01*
X66673903Y-70206337D01*
X66574035Y-69992171D01*
X66569172Y-69985225D01*
X66438494Y-69798597D01*
X66271402Y-69631506D01*
X66271396Y-69631501D01*
X66085842Y-69501575D01*
X66042217Y-69446998D01*
X66035023Y-69377500D01*
X66066546Y-69315145D01*
X66085842Y-69298425D01*
X66172096Y-69238029D01*
X66271401Y-69168495D01*
X66438495Y-69001401D01*
X66574035Y-68807830D01*
X66673903Y-68593663D01*
X66735063Y-68365408D01*
X66755659Y-68130000D01*
X66735063Y-67894592D01*
X66673903Y-67666337D01*
X66574035Y-67452171D01*
X66447464Y-67271407D01*
X66438494Y-67258597D01*
X66271402Y-67091506D01*
X66271395Y-67091501D01*
X66092983Y-66966575D01*
X66049358Y-66911998D01*
X66042164Y-66842500D01*
X66073687Y-66780145D01*
X66092983Y-66763425D01*
X66167403Y-66711315D01*
X66271401Y-66638495D01*
X66438495Y-66471401D01*
X66574035Y-66277830D01*
X66673903Y-66063663D01*
X66735063Y-65835408D01*
X66755659Y-65600000D01*
X66735063Y-65364592D01*
X66673903Y-65136337D01*
X66574035Y-64922171D01*
X66520346Y-64845494D01*
X66438494Y-64728597D01*
X66271402Y-64561506D01*
X66271396Y-64561501D01*
X66085842Y-64431575D01*
X66042217Y-64376998D01*
X66035023Y-64307500D01*
X66066546Y-64245145D01*
X66085842Y-64228425D01*
X66224856Y-64131086D01*
X66271401Y-64098495D01*
X66438495Y-63931401D01*
X66574035Y-63737830D01*
X66673903Y-63523663D01*
X66735063Y-63295408D01*
X66755659Y-63060000D01*
X66735063Y-62824592D01*
X66673903Y-62596337D01*
X66574035Y-62382171D01*
X66560928Y-62363451D01*
X66438494Y-62188597D01*
X66271402Y-62021506D01*
X66271396Y-62021501D01*
X66085842Y-61891575D01*
X66042217Y-61836998D01*
X66035023Y-61767500D01*
X66066546Y-61705145D01*
X66085842Y-61688425D01*
X66108026Y-61672891D01*
X66271401Y-61558495D01*
X66438495Y-61391401D01*
X66574035Y-61197830D01*
X66673903Y-60983663D01*
X66735063Y-60755408D01*
X66755659Y-60520000D01*
X66735063Y-60284592D01*
X66673903Y-60056337D01*
X66574035Y-59842171D01*
X66574032Y-59842166D01*
X66438494Y-59648597D01*
X66271402Y-59481506D01*
X66271401Y-59481505D01*
X66085405Y-59351269D01*
X66041781Y-59296692D01*
X66034588Y-59227193D01*
X66066110Y-59164839D01*
X66085404Y-59148120D01*
X66161371Y-59094925D01*
X65537574Y-58471128D01*
X65596853Y-58455245D01*
X65713147Y-58388102D01*
X65808102Y-58293147D01*
X65875245Y-58176853D01*
X65891128Y-58117574D01*
X66514925Y-58741371D01*
X66573599Y-58657580D01*
X66673429Y-58443492D01*
X66673433Y-58443483D01*
X66734567Y-58215326D01*
X66734569Y-58215315D01*
X66755157Y-57980001D01*
X66755157Y-57979998D01*
X66734569Y-57744684D01*
X66734567Y-57744673D01*
X66673433Y-57516516D01*
X66673429Y-57516507D01*
X66573601Y-57302424D01*
X66514925Y-57218626D01*
X65891128Y-57842424D01*
X65875245Y-57783147D01*
X65808102Y-57666853D01*
X65713147Y-57571898D01*
X65596853Y-57504755D01*
X65537574Y-57488871D01*
X66161372Y-56865073D01*
X66161372Y-56865072D01*
X66085405Y-56811879D01*
X66041780Y-56757302D01*
X66034588Y-56687804D01*
X66066110Y-56625449D01*
X66085406Y-56608730D01*
X66271401Y-56478495D01*
X66438495Y-56311401D01*
X66574035Y-56117830D01*
X66673903Y-55903663D01*
X66735063Y-55675408D01*
X66755659Y-55440000D01*
X66735063Y-55204592D01*
X66673903Y-54976337D01*
X66673900Y-54976330D01*
X66672050Y-54971245D01*
X66672362Y-54971131D01*
X66666867Y-54955427D01*
X66361460Y-53689896D01*
X66358000Y-53660807D01*
X66358000Y-53535649D01*
X66359443Y-53516784D01*
X66359444Y-53516781D01*
X66449861Y-52929368D01*
X66454714Y-52909228D01*
X66460174Y-52892753D01*
X66470500Y-52791677D01*
X66470499Y-52218324D01*
X66462082Y-52135930D01*
X66460174Y-52117247D01*
X66450709Y-52088685D01*
X66405908Y-51953484D01*
X66315340Y-51806650D01*
X66193350Y-51684660D01*
X66166264Y-51667953D01*
X66119542Y-51616007D01*
X66108319Y-51547044D01*
X66136163Y-51482962D01*
X66166267Y-51456877D01*
X66218037Y-51424945D01*
X66339944Y-51303038D01*
X66339947Y-51303034D01*
X66430448Y-51156311D01*
X66430453Y-51156300D01*
X66484680Y-50992652D01*
X66494999Y-50891654D01*
X66495000Y-50891641D01*
X66495000Y-50855000D01*
X65594000Y-50855000D01*
X65526961Y-50835315D01*
X65481206Y-50782511D01*
X65470000Y-50731000D01*
X65470000Y-50605000D01*
X65344000Y-50605000D01*
X65276961Y-50585315D01*
X65231206Y-50532511D01*
X65220000Y-50481000D01*
X65220000Y-50355000D01*
X65720000Y-50355000D01*
X66494999Y-50355000D01*
X66494999Y-50318360D01*
X66494998Y-50318345D01*
X66484680Y-50217347D01*
X66430453Y-50053699D01*
X66430448Y-50053688D01*
X66339947Y-49906965D01*
X66339944Y-49906961D01*
X66218038Y-49785055D01*
X66218034Y-49785052D01*
X66071311Y-49694551D01*
X66071300Y-49694546D01*
X65907652Y-49640319D01*
X65806654Y-49630000D01*
X65720000Y-49630000D01*
X65720000Y-50355000D01*
X65220000Y-50355000D01*
X65220000Y-49630000D01*
X65219999Y-49629999D01*
X65133360Y-49630000D01*
X65133343Y-49630001D01*
X65032347Y-49640319D01*
X64868699Y-49694546D01*
X64868688Y-49694551D01*
X64721965Y-49785052D01*
X64721961Y-49785055D01*
X64683033Y-49823983D01*
X64621710Y-49857468D01*
X64552018Y-49852482D01*
X64507672Y-49823982D01*
X64468351Y-49784661D01*
X64468350Y-49784660D01*
X64377129Y-49728395D01*
X64321518Y-49694093D01*
X64321513Y-49694091D01*
X64309167Y-49690000D01*
X64157753Y-49639826D01*
X64157751Y-49639825D01*
X64056678Y-49629500D01*
X63383330Y-49629500D01*
X63383312Y-49629501D01*
X63282247Y-49639825D01*
X63118484Y-49694092D01*
X63118481Y-49694093D01*
X62971648Y-49784661D01*
X62849661Y-49906648D01*
X62759093Y-50053481D01*
X62759091Y-50053486D01*
X62731719Y-50136088D01*
X62704826Y-50217247D01*
X62704826Y-50217248D01*
X62704825Y-50217248D01*
X62694500Y-50318315D01*
X62694500Y-50891669D01*
X62694501Y-50891687D01*
X62704825Y-50992752D01*
X62704826Y-50992755D01*
X62761364Y-51163373D01*
X62760781Y-51163565D01*
X62767262Y-51184187D01*
X62824907Y-51514979D01*
X62823458Y-51564639D01*
X62728380Y-51969150D01*
X62725376Y-51979781D01*
X62679826Y-52117243D01*
X62669500Y-52218315D01*
X62669500Y-52791669D01*
X62669501Y-52791687D01*
X62679825Y-52892752D01*
X62691379Y-52927618D01*
X62734092Y-53056516D01*
X62824660Y-53203350D01*
X62946650Y-53325340D01*
X63093484Y-53415908D01*
X63257247Y-53470174D01*
X63358323Y-53480500D01*
X63956676Y-53480499D01*
X63956684Y-53480498D01*
X63956687Y-53480498D01*
X64012030Y-53474844D01*
X64057753Y-53470174D01*
X64221516Y-53415908D01*
X64368350Y-53325340D01*
X64375363Y-53318326D01*
X64436681Y-53284842D01*
X64506373Y-53289823D01*
X64562308Y-53331692D01*
X64585600Y-53387141D01*
X64605556Y-53516781D01*
X64607000Y-53535647D01*
X64607000Y-53631963D01*
X64599566Y-53674253D01*
X64143313Y-54931831D01*
X64138331Y-54947606D01*
X64132476Y-54962655D01*
X64126097Y-54976335D01*
X64126095Y-54976343D01*
X64064938Y-55204586D01*
X64064936Y-55204596D01*
X64044341Y-55439999D01*
X64044341Y-55440000D01*
X64064936Y-55675403D01*
X64064938Y-55675413D01*
X64126094Y-55903655D01*
X64126096Y-55903659D01*
X64126097Y-55903663D01*
X64187518Y-56035380D01*
X64225965Y-56117830D01*
X64225967Y-56117834D01*
X64334281Y-56272521D01*
X64361505Y-56311401D01*
X64528599Y-56478495D01*
X64701288Y-56599413D01*
X64714595Y-56608731D01*
X64758219Y-56663308D01*
X64765412Y-56732807D01*
X64733890Y-56795161D01*
X64714594Y-56811881D01*
X64638627Y-56865073D01*
X64638626Y-56865073D01*
X65262425Y-57488871D01*
X65203147Y-57504755D01*
X65086853Y-57571898D01*
X64991898Y-57666853D01*
X64924755Y-57783147D01*
X64908871Y-57842424D01*
X64285073Y-57218626D01*
X64285073Y-57218627D01*
X64226400Y-57302421D01*
X64226399Y-57302423D01*
X64126570Y-57516507D01*
X64126566Y-57516516D01*
X64065432Y-57744673D01*
X64065430Y-57744684D01*
X64044843Y-57979998D01*
X64044843Y-57980001D01*
X64065430Y-58215315D01*
X64065432Y-58215326D01*
X64126566Y-58443483D01*
X64126570Y-58443492D01*
X64226398Y-58657576D01*
X64285073Y-58741372D01*
X64908871Y-58117574D01*
X64924755Y-58176853D01*
X64991898Y-58293147D01*
X65086853Y-58388102D01*
X65203147Y-58455245D01*
X65262425Y-58471128D01*
X64638627Y-59094925D01*
X64714595Y-59148119D01*
X64758219Y-59202696D01*
X64765412Y-59272195D01*
X64733890Y-59334549D01*
X64714595Y-59351269D01*
X64528599Y-59481504D01*
X64528595Y-59481508D01*
X64486139Y-59523963D01*
X64465820Y-59540388D01*
X64458577Y-59545073D01*
X64458572Y-59545078D01*
X64441568Y-59559900D01*
X64407543Y-59580987D01*
X64281089Y-59633366D01*
X64281079Y-59633371D01*
X64160091Y-59714214D01*
X64160090Y-59714214D01*
X64117222Y-59742857D01*
X64117214Y-59742863D01*
X63342353Y-60517724D01*
X63336158Y-60523510D01*
X63306663Y-60549223D01*
X63293448Y-60561160D01*
X63292869Y-60561702D01*
X63244673Y-60613601D01*
X63244660Y-60613620D01*
X63233038Y-60627039D01*
X60800080Y-63059999D01*
X60032220Y-63827859D01*
X60032218Y-63827861D01*
X59962538Y-63897540D01*
X59892859Y-63967219D01*
X59783369Y-64131082D01*
X59739649Y-64236634D01*
X59707950Y-64313161D01*
X59707947Y-64313170D01*
X59703823Y-64333905D01*
X59669500Y-64506454D01*
X56020500Y-64506454D01*
X56020500Y-62976079D01*
X55991659Y-62831092D01*
X55991658Y-62831091D01*
X55991658Y-62831087D01*
X55955843Y-62744621D01*
X55935087Y-62694511D01*
X55935080Y-62694498D01*
X55852952Y-62571585D01*
X55845029Y-62563662D01*
X55748416Y-62467049D01*
X54565449Y-61284082D01*
X54539609Y-61246291D01*
X54518313Y-61197834D01*
X53992680Y-60001808D01*
X53971106Y-59958479D01*
X53971103Y-59958476D01*
X53967978Y-59953461D01*
X53968178Y-59953336D01*
X53958145Y-59936764D01*
X53946090Y-59910913D01*
X53914035Y-59842171D01*
X53914032Y-59842167D01*
X53914032Y-59842166D01*
X53778494Y-59648597D01*
X53611402Y-59481506D01*
X53611401Y-59481505D01*
X53425405Y-59351269D01*
X53381781Y-59296692D01*
X53374588Y-59227193D01*
X53406110Y-59164839D01*
X53425404Y-59148120D01*
X53501371Y-59094925D01*
X52877574Y-58471128D01*
X52936853Y-58455245D01*
X53053147Y-58388102D01*
X53148102Y-58293147D01*
X53215245Y-58176853D01*
X53231128Y-58117574D01*
X53854925Y-58741371D01*
X53913599Y-58657580D01*
X54013429Y-58443492D01*
X54013433Y-58443483D01*
X54074567Y-58215326D01*
X54074569Y-58215315D01*
X54095157Y-57980001D01*
X54095157Y-57979998D01*
X54074569Y-57744684D01*
X54074567Y-57744673D01*
X54013433Y-57516516D01*
X54013429Y-57516507D01*
X53913601Y-57302424D01*
X53854925Y-57218626D01*
X53231128Y-57842424D01*
X53215245Y-57783147D01*
X53148102Y-57666853D01*
X53053147Y-57571898D01*
X52936853Y-57504755D01*
X52877574Y-57488871D01*
X53501372Y-56865073D01*
X53501372Y-56865072D01*
X53425405Y-56811879D01*
X53381780Y-56757302D01*
X53374588Y-56687804D01*
X53406110Y-56625449D01*
X53425406Y-56608730D01*
X53611401Y-56478495D01*
X53778495Y-56311401D01*
X53914035Y-56117830D01*
X54013903Y-55903663D01*
X54075063Y-55675408D01*
X54095659Y-55440000D01*
X54075063Y-55204592D01*
X54013903Y-54976337D01*
X53914035Y-54762171D01*
X53900928Y-54743451D01*
X53778494Y-54568597D01*
X53611402Y-54401506D01*
X53611395Y-54401501D01*
X53417834Y-54265967D01*
X53417830Y-54265965D01*
X53417828Y-54265964D01*
X53203663Y-54166097D01*
X53203659Y-54166096D01*
X53203655Y-54166094D01*
X52975413Y-54104938D01*
X52975403Y-54104936D01*
X52740001Y-54084341D01*
X52739999Y-54084341D01*
X52504596Y-54104936D01*
X52504586Y-54104938D01*
X52276344Y-54166094D01*
X52276335Y-54166098D01*
X52062171Y-54265964D01*
X52062169Y-54265965D01*
X51868597Y-54401505D01*
X51701505Y-54568597D01*
X51565965Y-54762169D01*
X51565964Y-54762171D01*
X51466098Y-54976335D01*
X51466094Y-54976344D01*
X51404938Y-55204586D01*
X51404936Y-55204596D01*
X51384341Y-55439999D01*
X51384341Y-55440000D01*
X51404936Y-55675403D01*
X51404938Y-55675413D01*
X51466094Y-55903655D01*
X51466096Y-55903659D01*
X51466097Y-55903663D01*
X51527518Y-56035380D01*
X51565965Y-56117830D01*
X51565967Y-56117834D01*
X51674281Y-56272521D01*
X51701505Y-56311401D01*
X51868599Y-56478495D01*
X52041288Y-56599413D01*
X52054595Y-56608731D01*
X52098219Y-56663308D01*
X52105412Y-56732807D01*
X52073890Y-56795161D01*
X52054594Y-56811881D01*
X51978627Y-56865073D01*
X51978626Y-56865073D01*
X52602425Y-57488871D01*
X52543147Y-57504755D01*
X52426853Y-57571898D01*
X52331898Y-57666853D01*
X52264755Y-57783147D01*
X52248871Y-57842424D01*
X51625073Y-57218626D01*
X51625073Y-57218627D01*
X51566400Y-57302421D01*
X51566399Y-57302423D01*
X51466570Y-57516507D01*
X51466566Y-57516516D01*
X51405432Y-57744673D01*
X51405430Y-57744684D01*
X51384843Y-57979998D01*
X51384843Y-57980001D01*
X51405430Y-58215315D01*
X51405432Y-58215326D01*
X51466566Y-58443483D01*
X51466570Y-58443492D01*
X51566398Y-58657576D01*
X51625073Y-58741372D01*
X52248871Y-58117574D01*
X52264755Y-58176853D01*
X52331898Y-58293147D01*
X52426853Y-58388102D01*
X52543147Y-58455245D01*
X52602425Y-58471128D01*
X51978627Y-59094925D01*
X52054595Y-59148119D01*
X52098219Y-59202696D01*
X52105412Y-59272195D01*
X52073890Y-59334549D01*
X52054595Y-59351269D01*
X51868594Y-59481508D01*
X51701505Y-59648597D01*
X51565965Y-59842169D01*
X51565964Y-59842171D01*
X51466098Y-60056335D01*
X51466094Y-60056344D01*
X51404938Y-60284586D01*
X51404936Y-60284596D01*
X51384341Y-60519999D01*
X51384341Y-60520000D01*
X51404936Y-60755403D01*
X51404938Y-60755413D01*
X51466094Y-60983655D01*
X51466096Y-60983659D01*
X51466097Y-60983663D01*
X51527518Y-61115380D01*
X51565965Y-61197830D01*
X51565967Y-61197834D01*
X51701501Y-61391395D01*
X51701506Y-61391402D01*
X51868597Y-61558493D01*
X51868603Y-61558498D01*
X52054158Y-61688425D01*
X52097783Y-61743002D01*
X52104977Y-61812500D01*
X52073454Y-61874855D01*
X52054158Y-61891575D01*
X51868597Y-62021505D01*
X51701505Y-62188597D01*
X51565965Y-62382169D01*
X51565964Y-62382171D01*
X51466098Y-62596335D01*
X51466094Y-62596344D01*
X51404938Y-62824586D01*
X51404936Y-62824596D01*
X51384341Y-63059999D01*
X51384341Y-63060000D01*
X51404936Y-63295403D01*
X51404938Y-63295413D01*
X51466094Y-63523655D01*
X51466096Y-63523659D01*
X51466097Y-63523663D01*
X51565965Y-63737830D01*
X51565967Y-63737834D01*
X51701501Y-63931395D01*
X51701506Y-63931402D01*
X51868597Y-64098493D01*
X51868603Y-64098498D01*
X52054158Y-64228425D01*
X52097783Y-64283002D01*
X52104977Y-64352500D01*
X52073454Y-64414855D01*
X52054158Y-64431575D01*
X51868597Y-64561505D01*
X51701505Y-64728597D01*
X51565965Y-64922169D01*
X51565964Y-64922171D01*
X51466098Y-65136335D01*
X51466094Y-65136344D01*
X51404938Y-65364586D01*
X51404936Y-65364596D01*
X51384341Y-65599999D01*
X51384341Y-65600000D01*
X51404936Y-65835403D01*
X51404938Y-65835413D01*
X51466094Y-66063655D01*
X51466096Y-66063659D01*
X51466097Y-66063663D01*
X51510500Y-66158885D01*
X51565965Y-66277830D01*
X51565967Y-66277834D01*
X51611283Y-66342551D01*
X51701505Y-66471401D01*
X51868599Y-66638495D01*
X51972597Y-66711315D01*
X52047017Y-66763425D01*
X52090642Y-66818002D01*
X52097836Y-66887500D01*
X52066313Y-66949855D01*
X52047017Y-66966575D01*
X51868597Y-67091505D01*
X51701505Y-67258597D01*
X51565965Y-67452169D01*
X51565964Y-67452171D01*
X51466098Y-67666335D01*
X51466094Y-67666344D01*
X51404938Y-67894586D01*
X51404936Y-67894596D01*
X51384341Y-68129999D01*
X51384341Y-68130000D01*
X51404936Y-68365403D01*
X51404938Y-68365413D01*
X51466094Y-68593655D01*
X51466096Y-68593659D01*
X51466097Y-68593663D01*
X51514259Y-68696946D01*
X51565965Y-68807830D01*
X51565967Y-68807834D01*
X51701501Y-69001395D01*
X51701506Y-69001402D01*
X51868597Y-69168493D01*
X51868603Y-69168498D01*
X52054158Y-69298425D01*
X52097783Y-69353002D01*
X52104977Y-69422500D01*
X52073454Y-69484855D01*
X52054158Y-69501575D01*
X51868597Y-69631505D01*
X51701505Y-69798597D01*
X51565965Y-69992169D01*
X51565964Y-69992171D01*
X51466098Y-70206335D01*
X51466094Y-70206344D01*
X51404938Y-70434586D01*
X51404936Y-70434596D01*
X51384341Y-70669999D01*
X51384341Y-70670000D01*
X51404936Y-70905403D01*
X51404938Y-70905413D01*
X51466094Y-71133655D01*
X51466096Y-71133659D01*
X51466097Y-71133663D01*
X51510500Y-71228885D01*
X51565965Y-71347830D01*
X51565967Y-71347834D01*
X51674281Y-71502521D01*
X51701505Y-71541401D01*
X51868599Y-71708495D01*
X51940389Y-71758763D01*
X52062165Y-71844032D01*
X52062167Y-71844033D01*
X52062170Y-71844035D01*
X52276337Y-71943903D01*
X52276343Y-71943904D01*
X52276344Y-71943905D01*
X52331285Y-71958626D01*
X52504592Y-72005063D01*
X52692918Y-72021539D01*
X52739999Y-72025659D01*
X52740000Y-72025659D01*
X52740001Y-72025659D01*
X52779234Y-72022226D01*
X52975408Y-72005063D01*
X53203663Y-71943903D01*
X53243096Y-71925514D01*
X53312172Y-71915023D01*
X53375956Y-71943542D01*
X53414196Y-72002019D01*
X53419500Y-72037897D01*
X53419500Y-74526523D01*
X53399815Y-74593562D01*
X53347011Y-74639317D01*
X53277853Y-74649261D01*
X53245064Y-74639802D01*
X53072038Y-74562765D01*
X53072033Y-74562763D01*
X52892019Y-74524500D01*
X52707981Y-74524500D01*
X52527966Y-74562763D01*
X52527961Y-74562765D01*
X52359839Y-74637619D01*
X52359834Y-74637621D01*
X52210951Y-74745791D01*
X52210949Y-74745793D01*
X52087804Y-74882561D01*
X51995786Y-75041940D01*
X51995783Y-75041946D01*
X51938916Y-75216967D01*
X51938915Y-75216971D01*
X51921023Y-75387203D01*
X51919678Y-75400000D01*
X51938915Y-75583030D01*
X51938917Y-75583035D01*
X51974481Y-75692493D01*
X51977894Y-75705283D01*
X51982545Y-75727392D01*
X52166978Y-76232494D01*
X52174500Y-76275025D01*
X52174500Y-76345160D01*
X52154815Y-76412199D01*
X52102011Y-76457954D01*
X52032853Y-76467898D01*
X52024721Y-76466451D01*
X52016652Y-76464736D01*
X51992019Y-76459500D01*
X51807981Y-76459500D01*
X51627966Y-76497763D01*
X51599935Y-76510244D01*
X51530685Y-76519528D01*
X51467409Y-76489899D01*
X51430196Y-76430764D01*
X51425500Y-76396964D01*
X51425500Y-73475024D01*
X51433022Y-73432493D01*
X51458622Y-73362382D01*
X51617454Y-72927391D01*
X51626820Y-72897929D01*
X51630402Y-72886665D01*
X51630402Y-72886663D01*
X51630404Y-72886658D01*
X51630776Y-72883638D01*
X51635912Y-72860500D01*
X51661085Y-72783029D01*
X51680322Y-72600000D01*
X51661085Y-72416971D01*
X51604214Y-72241941D01*
X51512195Y-72082560D01*
X51389050Y-71945793D01*
X51389048Y-71945791D01*
X51240165Y-71837621D01*
X51240162Y-71837619D01*
X51240161Y-71837619D01*
X51179112Y-71810438D01*
X51072038Y-71762765D01*
X51072033Y-71762763D01*
X50892019Y-71724500D01*
X50707981Y-71724500D01*
X50527966Y-71762763D01*
X50359841Y-71837617D01*
X50310636Y-71873366D01*
X50244829Y-71896845D01*
X50176775Y-71881018D01*
X50164868Y-71873366D01*
X50122887Y-71842865D01*
X50110160Y-71833618D01*
X49942038Y-71758765D01*
X49942033Y-71758763D01*
X49762019Y-71720500D01*
X49577981Y-71720500D01*
X49397966Y-71758763D01*
X49397961Y-71758765D01*
X49229839Y-71833619D01*
X49229834Y-71833621D01*
X49080951Y-71941791D01*
X49080949Y-71941793D01*
X48957804Y-72078561D01*
X48865786Y-72237940D01*
X48865783Y-72237946D01*
X48808916Y-72412967D01*
X48808915Y-72412971D01*
X48808495Y-72416971D01*
X48789678Y-72596000D01*
X48808915Y-72779030D01*
X48808917Y-72779035D01*
X48844481Y-72888493D01*
X48847894Y-72901283D01*
X48852545Y-72923392D01*
X49036280Y-73426584D01*
X49036978Y-73428494D01*
X49044500Y-73471025D01*
X49044500Y-84329972D01*
X49036978Y-84372503D01*
X48852546Y-84877603D01*
X48839594Y-84918342D01*
X48839593Y-84918349D01*
X48839220Y-84921374D01*
X48834085Y-84944503D01*
X48808917Y-85021964D01*
X48808915Y-85021969D01*
X48789678Y-85205000D01*
X48808915Y-85388030D01*
X48808917Y-85388035D01*
X48844481Y-85497493D01*
X48847894Y-85510283D01*
X48852545Y-85532392D01*
X48980763Y-85883541D01*
X49036978Y-86037494D01*
X49044500Y-86080025D01*
X49044500Y-90851611D01*
X49068535Y-90972444D01*
X49068540Y-90972461D01*
X49115685Y-91086280D01*
X49115686Y-91086282D01*
X49115688Y-91086286D01*
X49127045Y-91103282D01*
X49144431Y-91129303D01*
X49144433Y-91129305D01*
X49184140Y-91188731D01*
X49184141Y-91188732D01*
X49184142Y-91188733D01*
X49271267Y-91275858D01*
X49271268Y-91275858D01*
X49278335Y-91282925D01*
X49278334Y-91282925D01*
X49278338Y-91282928D01*
X52228181Y-94232771D01*
X52261666Y-94294094D01*
X52264500Y-94320452D01*
X52264500Y-94740155D01*
X52244815Y-94807194D01*
X52192011Y-94852949D01*
X52122853Y-94862893D01*
X52067615Y-94840474D01*
X52032397Y-94814887D01*
X51977661Y-94775119D01*
X51923406Y-94750963D01*
X51809538Y-94700265D01*
X51809533Y-94700263D01*
X51629519Y-94662000D01*
X51445481Y-94662000D01*
X51265466Y-94700263D01*
X51265461Y-94700265D01*
X51097339Y-94775119D01*
X51097334Y-94775121D01*
X50948451Y-94883291D01*
X50948449Y-94883293D01*
X50825304Y-95020061D01*
X50733286Y-95179440D01*
X50733284Y-95179444D01*
X50679864Y-95343854D01*
X50665037Y-95374423D01*
X50634914Y-95419506D01*
X50578343Y-95556082D01*
X50578340Y-95556092D01*
X50549500Y-95701079D01*
X50549500Y-96125180D01*
X50548739Y-96137167D01*
X50548863Y-96137178D01*
X50548475Y-96141747D01*
X50548474Y-96141764D01*
X50549492Y-96231932D01*
X50549500Y-96233331D01*
X50549500Y-102830500D01*
X50529815Y-102897539D01*
X50477011Y-102943294D01*
X50425500Y-102954500D01*
X42116080Y-102954500D01*
X41971092Y-102983340D01*
X41971082Y-102983343D01*
X41834511Y-103039912D01*
X41834498Y-103039919D01*
X41711584Y-103122048D01*
X41711580Y-103122051D01*
X39145740Y-105687890D01*
X39084417Y-105721375D01*
X39014725Y-105716391D01*
X38958792Y-105674519D01*
X38943498Y-105647661D01*
X38936635Y-105631092D01*
X38936628Y-105631079D01*
X38827139Y-105467218D01*
X38827136Y-105467214D01*
X38687785Y-105327863D01*
X38687781Y-105327860D01*
X38523920Y-105218371D01*
X38523907Y-105218364D01*
X38341839Y-105142950D01*
X38341829Y-105142947D01*
X38148543Y-105104500D01*
X38148541Y-105104500D01*
X36951459Y-105104500D01*
X36951457Y-105104500D01*
X36758170Y-105142947D01*
X36758160Y-105142950D01*
X36576092Y-105218364D01*
X36570711Y-105221241D01*
X36569791Y-105219520D01*
X36511708Y-105237705D01*
X36444329Y-105219218D01*
X36397641Y-105167237D01*
X36385500Y-105113725D01*
X36385500Y-104556274D01*
X36405185Y-104489235D01*
X36457989Y-104443480D01*
X36527147Y-104433536D01*
X36570056Y-104449983D01*
X36570711Y-104448759D01*
X36576092Y-104451635D01*
X36758160Y-104527049D01*
X36758165Y-104527051D01*
X36758169Y-104527051D01*
X36758170Y-104527052D01*
X36951456Y-104565500D01*
X36951459Y-104565500D01*
X38148543Y-104565500D01*
X38278582Y-104539632D01*
X38341835Y-104527051D01*
X38485895Y-104467380D01*
X38523907Y-104451635D01*
X38523907Y-104451634D01*
X38523914Y-104451632D01*
X38687782Y-104342139D01*
X38827139Y-104202782D01*
X38936632Y-104038914D01*
X39012051Y-103856835D01*
X39050500Y-103663541D01*
X39050500Y-103466459D01*
X39050500Y-103466456D01*
X39012052Y-103273170D01*
X39012051Y-103273169D01*
X39012051Y-103273165D01*
X38960170Y-103147912D01*
X38936635Y-103091092D01*
X38936628Y-103091079D01*
X38827139Y-102927218D01*
X38827136Y-102927214D01*
X38687785Y-102787863D01*
X38687781Y-102787860D01*
X38523920Y-102678371D01*
X38523907Y-102678364D01*
X38341839Y-102602950D01*
X38341829Y-102602947D01*
X38148543Y-102564500D01*
X38148541Y-102564500D01*
X36951459Y-102564500D01*
X36951457Y-102564500D01*
X36758170Y-102602947D01*
X36758160Y-102602950D01*
X36576092Y-102678364D01*
X36570711Y-102681241D01*
X36569791Y-102679520D01*
X36511708Y-102697705D01*
X36444329Y-102679218D01*
X36397641Y-102627237D01*
X36385500Y-102573725D01*
X36385500Y-102016274D01*
X36405185Y-101949235D01*
X36457989Y-101903480D01*
X36527147Y-101893536D01*
X36570056Y-101909983D01*
X36570711Y-101908759D01*
X36576092Y-101911635D01*
X36666868Y-101949235D01*
X36758165Y-101987051D01*
X36758169Y-101987051D01*
X36758170Y-101987052D01*
X36951456Y-102025500D01*
X36951459Y-102025500D01*
X38148543Y-102025500D01*
X38278582Y-101999632D01*
X38341835Y-101987051D01*
X38523914Y-101911632D01*
X38687782Y-101802139D01*
X38827139Y-101662782D01*
X38936632Y-101498914D01*
X39012051Y-101316835D01*
X39050500Y-101123541D01*
X39050500Y-100926459D01*
X39050500Y-100926456D01*
X39012052Y-100733170D01*
X39012051Y-100733169D01*
X39012051Y-100733165D01*
X39012049Y-100733160D01*
X38936635Y-100551092D01*
X38936628Y-100551079D01*
X38827139Y-100387218D01*
X38827136Y-100387214D01*
X38687785Y-100247863D01*
X38687781Y-100247860D01*
X38523920Y-100138371D01*
X38523907Y-100138364D01*
X38341839Y-100062950D01*
X38341829Y-100062947D01*
X38148543Y-100024500D01*
X38148541Y-100024500D01*
X36951459Y-100024500D01*
X36951457Y-100024500D01*
X36758170Y-100062947D01*
X36758160Y-100062950D01*
X36576092Y-100138364D01*
X36570711Y-100141241D01*
X36569791Y-100139520D01*
X36511708Y-100157705D01*
X36444329Y-100139218D01*
X36397641Y-100087237D01*
X36385500Y-100033725D01*
X36385500Y-99476274D01*
X36405185Y-99409235D01*
X36457989Y-99363480D01*
X36527147Y-99353536D01*
X36570056Y-99369983D01*
X36570711Y-99368759D01*
X36576092Y-99371635D01*
X36758160Y-99447049D01*
X36758165Y-99447051D01*
X36758169Y-99447051D01*
X36758170Y-99447052D01*
X36951456Y-99485500D01*
X36951459Y-99485500D01*
X38148543Y-99485500D01*
X38278582Y-99459632D01*
X38341835Y-99447051D01*
X38523914Y-99371632D01*
X38687782Y-99262139D01*
X38827139Y-99122782D01*
X38936632Y-98958914D01*
X39012051Y-98776835D01*
X39049607Y-98588032D01*
X39050500Y-98583543D01*
X39050500Y-98386456D01*
X39012052Y-98193170D01*
X39012051Y-98193169D01*
X39012051Y-98193165D01*
X39012049Y-98193160D01*
X38936635Y-98011092D01*
X38936628Y-98011079D01*
X38827139Y-97847218D01*
X38827136Y-97847214D01*
X38687785Y-97707863D01*
X38687781Y-97707860D01*
X38523920Y-97598371D01*
X38523907Y-97598364D01*
X38341839Y-97522950D01*
X38341829Y-97522947D01*
X38148543Y-97484500D01*
X38148541Y-97484500D01*
X36951459Y-97484500D01*
X36951457Y-97484500D01*
X36758170Y-97522947D01*
X36758160Y-97522950D01*
X36576092Y-97598364D01*
X36570711Y-97601241D01*
X36569791Y-97599520D01*
X36511708Y-97617705D01*
X36444329Y-97599218D01*
X36397641Y-97547237D01*
X36385500Y-97493725D01*
X36385500Y-96936274D01*
X36405185Y-96869235D01*
X36457989Y-96823480D01*
X36527147Y-96813536D01*
X36570056Y-96829983D01*
X36570711Y-96828759D01*
X36576092Y-96831635D01*
X36758160Y-96907049D01*
X36758165Y-96907051D01*
X36758169Y-96907051D01*
X36758170Y-96907052D01*
X36951456Y-96945500D01*
X36951459Y-96945500D01*
X38148543Y-96945500D01*
X38278582Y-96919632D01*
X38341835Y-96907051D01*
X38523914Y-96831632D01*
X38687782Y-96722139D01*
X38827139Y-96582782D01*
X38936632Y-96418914D01*
X39012051Y-96236835D01*
X39030978Y-96141685D01*
X39050500Y-96043543D01*
X39050500Y-95846456D01*
X39012052Y-95653170D01*
X39012051Y-95653169D01*
X39012051Y-95653165D01*
X39012049Y-95653160D01*
X38936635Y-95471092D01*
X38936628Y-95471079D01*
X38827139Y-95307218D01*
X38827136Y-95307214D01*
X38687785Y-95167863D01*
X38687781Y-95167860D01*
X38523920Y-95058371D01*
X38523907Y-95058364D01*
X38341839Y-94982950D01*
X38341829Y-94982947D01*
X38148543Y-94944500D01*
X38148541Y-94944500D01*
X36951459Y-94944500D01*
X36951457Y-94944500D01*
X36758170Y-94982947D01*
X36758160Y-94982950D01*
X36576092Y-95058364D01*
X36570711Y-95061241D01*
X36569791Y-95059520D01*
X36511708Y-95077705D01*
X36444329Y-95059218D01*
X36397641Y-95007237D01*
X36385500Y-94953725D01*
X36385500Y-94396274D01*
X36405185Y-94329235D01*
X36457989Y-94283480D01*
X36527147Y-94273536D01*
X36570056Y-94289983D01*
X36570711Y-94288759D01*
X36576092Y-94291635D01*
X36758160Y-94367049D01*
X36758165Y-94367051D01*
X36758169Y-94367051D01*
X36758170Y-94367052D01*
X36951456Y-94405500D01*
X36951459Y-94405500D01*
X38148543Y-94405500D01*
X38285273Y-94378302D01*
X38341835Y-94367051D01*
X38523914Y-94291632D01*
X38687782Y-94182139D01*
X38827139Y-94042782D01*
X38936632Y-93878914D01*
X39012051Y-93696835D01*
X39039701Y-93557832D01*
X39050500Y-93503543D01*
X39050500Y-93306456D01*
X39012052Y-93113170D01*
X39012051Y-93113169D01*
X39012051Y-93113165D01*
X38989014Y-93057548D01*
X38936635Y-92931092D01*
X38936628Y-92931079D01*
X38827139Y-92767218D01*
X38827136Y-92767214D01*
X38687785Y-92627863D01*
X38687781Y-92627860D01*
X38523920Y-92518371D01*
X38523907Y-92518364D01*
X38341839Y-92442950D01*
X38341829Y-92442947D01*
X38148543Y-92404500D01*
X38148541Y-92404500D01*
X36951459Y-92404500D01*
X36951457Y-92404500D01*
X36758170Y-92442947D01*
X36758160Y-92442950D01*
X36576092Y-92518364D01*
X36570711Y-92521241D01*
X36569791Y-92519520D01*
X36511708Y-92537705D01*
X36444329Y-92519218D01*
X36397641Y-92467237D01*
X36385500Y-92413725D01*
X36385500Y-91856274D01*
X36405185Y-91789235D01*
X36457989Y-91743480D01*
X36527147Y-91733536D01*
X36570056Y-91749983D01*
X36570711Y-91748759D01*
X36576092Y-91751635D01*
X36758160Y-91827049D01*
X36758165Y-91827051D01*
X36758169Y-91827051D01*
X36758170Y-91827052D01*
X36951456Y-91865500D01*
X36951459Y-91865500D01*
X38148543Y-91865500D01*
X38278582Y-91839632D01*
X38341835Y-91827051D01*
X38523914Y-91751632D01*
X38687782Y-91642139D01*
X38827139Y-91502782D01*
X38936632Y-91338914D01*
X39012051Y-91156835D01*
X39027795Y-91077685D01*
X39050500Y-90963543D01*
X39050500Y-90766456D01*
X39012052Y-90573170D01*
X39012051Y-90573169D01*
X39012051Y-90573165D01*
X38993069Y-90527337D01*
X38936635Y-90391092D01*
X38936628Y-90391079D01*
X38827139Y-90227218D01*
X38827136Y-90227214D01*
X38687785Y-90087863D01*
X38687781Y-90087860D01*
X38523920Y-89978371D01*
X38523907Y-89978364D01*
X38341839Y-89902950D01*
X38341829Y-89902947D01*
X38148543Y-89864500D01*
X38148541Y-89864500D01*
X36951459Y-89864500D01*
X36951457Y-89864500D01*
X36758170Y-89902947D01*
X36758160Y-89902950D01*
X36576092Y-89978364D01*
X36570711Y-89981241D01*
X36569791Y-89979520D01*
X36511708Y-89997705D01*
X36444329Y-89979218D01*
X36397641Y-89927237D01*
X36385500Y-89873725D01*
X36385500Y-89316274D01*
X36405185Y-89249235D01*
X36457989Y-89203480D01*
X36527147Y-89193536D01*
X36570056Y-89209983D01*
X36570711Y-89208759D01*
X36576092Y-89211635D01*
X36749384Y-89283414D01*
X36758165Y-89287051D01*
X36758169Y-89287051D01*
X36758170Y-89287052D01*
X36951456Y-89325500D01*
X36951459Y-89325500D01*
X38148543Y-89325500D01*
X38278582Y-89299632D01*
X38341835Y-89287051D01*
X38482655Y-89228721D01*
X38523907Y-89211635D01*
X38523907Y-89211634D01*
X38523914Y-89211632D01*
X38687782Y-89102139D01*
X38827139Y-88962782D01*
X38936632Y-88798914D01*
X39012051Y-88616835D01*
X39029234Y-88530451D01*
X39050500Y-88423543D01*
X39050500Y-88226456D01*
X39012052Y-88033170D01*
X39012051Y-88033169D01*
X39012051Y-88033165D01*
X38941223Y-87862169D01*
X38936635Y-87851092D01*
X38936628Y-87851079D01*
X38827139Y-87687218D01*
X38827136Y-87687214D01*
X38687785Y-87547863D01*
X38687781Y-87547860D01*
X38523920Y-87438371D01*
X38523907Y-87438364D01*
X38341839Y-87362950D01*
X38341829Y-87362947D01*
X38148543Y-87324500D01*
X38148541Y-87324500D01*
X36951459Y-87324500D01*
X36951457Y-87324500D01*
X36758170Y-87362947D01*
X36758160Y-87362950D01*
X36576092Y-87438364D01*
X36570711Y-87441241D01*
X36569791Y-87439520D01*
X36511708Y-87457705D01*
X36444329Y-87439218D01*
X36397641Y-87387237D01*
X36385500Y-87333725D01*
X36385500Y-86776274D01*
X36405185Y-86709235D01*
X36457989Y-86663480D01*
X36527147Y-86653536D01*
X36570056Y-86669983D01*
X36570711Y-86668759D01*
X36576092Y-86671635D01*
X36666868Y-86709235D01*
X36758165Y-86747051D01*
X36758169Y-86747051D01*
X36758170Y-86747052D01*
X36951456Y-86785500D01*
X36951459Y-86785500D01*
X38148543Y-86785500D01*
X38278582Y-86759632D01*
X38341835Y-86747051D01*
X38523914Y-86671632D01*
X38687782Y-86562139D01*
X38827139Y-86422782D01*
X38936632Y-86258914D01*
X39012051Y-86076835D01*
X39050500Y-85883541D01*
X39050500Y-85686459D01*
X39050500Y-85686456D01*
X39012052Y-85493170D01*
X39012051Y-85493169D01*
X39012051Y-85493165D01*
X38968503Y-85388029D01*
X38936635Y-85311092D01*
X38936628Y-85311079D01*
X38827139Y-85147218D01*
X38827136Y-85147214D01*
X38687785Y-85007863D01*
X38687781Y-85007860D01*
X38523920Y-84898371D01*
X38523907Y-84898364D01*
X38341839Y-84822950D01*
X38341829Y-84822947D01*
X38148543Y-84784500D01*
X38148541Y-84784500D01*
X36951459Y-84784500D01*
X36951457Y-84784500D01*
X36758170Y-84822947D01*
X36758160Y-84822950D01*
X36576092Y-84898364D01*
X36570711Y-84901241D01*
X36569791Y-84899520D01*
X36511708Y-84917705D01*
X36444329Y-84899218D01*
X36397641Y-84847237D01*
X36385500Y-84793725D01*
X36385500Y-84236274D01*
X36405185Y-84169235D01*
X36457989Y-84123480D01*
X36527147Y-84113536D01*
X36570056Y-84129983D01*
X36570711Y-84128759D01*
X36576092Y-84131635D01*
X36727299Y-84194266D01*
X36758165Y-84207051D01*
X36758169Y-84207051D01*
X36758170Y-84207052D01*
X36951456Y-84245500D01*
X36951459Y-84245500D01*
X38148543Y-84245500D01*
X38278582Y-84219632D01*
X38341835Y-84207051D01*
X38517555Y-84134266D01*
X38523907Y-84131635D01*
X38523907Y-84131634D01*
X38523914Y-84131632D01*
X38687782Y-84022139D01*
X38827139Y-83882782D01*
X38936632Y-83718914D01*
X39012051Y-83536835D01*
X39024632Y-83473582D01*
X39050500Y-83343543D01*
X39050500Y-83146456D01*
X39012052Y-82953170D01*
X39012051Y-82953169D01*
X39012051Y-82953165D01*
X38992125Y-82905059D01*
X38936635Y-82771092D01*
X38936628Y-82771079D01*
X38827139Y-82607218D01*
X38827136Y-82607214D01*
X38687785Y-82467863D01*
X38687781Y-82467860D01*
X38523920Y-82358371D01*
X38523907Y-82358364D01*
X38341839Y-82282950D01*
X38341829Y-82282947D01*
X38148543Y-82244500D01*
X38148541Y-82244500D01*
X36951459Y-82244500D01*
X36951457Y-82244500D01*
X36758170Y-82282947D01*
X36758160Y-82282950D01*
X36576092Y-82358364D01*
X36570711Y-82361241D01*
X36569791Y-82359520D01*
X36511708Y-82377705D01*
X36444329Y-82359218D01*
X36397641Y-82307237D01*
X36385500Y-82253725D01*
X36385500Y-81696274D01*
X36405185Y-81629235D01*
X36457989Y-81583480D01*
X36527147Y-81573536D01*
X36570056Y-81589983D01*
X36570711Y-81588759D01*
X36576092Y-81591635D01*
X36758160Y-81667049D01*
X36758165Y-81667051D01*
X36758169Y-81667051D01*
X36758170Y-81667052D01*
X36951456Y-81705500D01*
X36951459Y-81705500D01*
X38148543Y-81705500D01*
X38278582Y-81679632D01*
X38341835Y-81667051D01*
X38523914Y-81591632D01*
X38687782Y-81482139D01*
X38827139Y-81342782D01*
X38936632Y-81178914D01*
X39012051Y-80996835D01*
X39050500Y-80803541D01*
X39050500Y-80606459D01*
X39050500Y-80606456D01*
X39012052Y-80413170D01*
X39012051Y-80413169D01*
X39012051Y-80413165D01*
X38974146Y-80321653D01*
X38936635Y-80231092D01*
X38936628Y-80231079D01*
X38827139Y-80067218D01*
X38827136Y-80067214D01*
X38687785Y-79927863D01*
X38687781Y-79927860D01*
X38523920Y-79818371D01*
X38523907Y-79818364D01*
X38341839Y-79742950D01*
X38341829Y-79742947D01*
X38148543Y-79704500D01*
X38148541Y-79704500D01*
X36951459Y-79704500D01*
X36951457Y-79704500D01*
X36758170Y-79742947D01*
X36758160Y-79742950D01*
X36576092Y-79818364D01*
X36570711Y-79821241D01*
X36569791Y-79819520D01*
X36511708Y-79837705D01*
X36444329Y-79819218D01*
X36397641Y-79767237D01*
X36385500Y-79713725D01*
X36385500Y-78922379D01*
X36386179Y-78909418D01*
X36386830Y-78903222D01*
X36390322Y-78870000D01*
X36386179Y-78830580D01*
X36385500Y-78817620D01*
X36385500Y-70758768D01*
X36385499Y-70758766D01*
X36361770Y-70639472D01*
X36351855Y-70589626D01*
X36342535Y-70567126D01*
X36285861Y-70430301D01*
X36285854Y-70430288D01*
X36190046Y-70286902D01*
X36167537Y-70264393D01*
X36125052Y-70221908D01*
X36120602Y-70217218D01*
X36076550Y-70168293D01*
X36076546Y-70168290D01*
X36065745Y-70160442D01*
X36050951Y-70147807D01*
X36045599Y-70142455D01*
X36044972Y-70142036D01*
X35990213Y-70105447D01*
X35986219Y-70102663D01*
X35927662Y-70060119D01*
X35921472Y-70057363D01*
X35903030Y-70047193D01*
X35902206Y-70046642D01*
X35834592Y-70018635D01*
X35831612Y-70017354D01*
X35759533Y-69985263D01*
X35759347Y-69985224D01*
X35748842Y-69981966D01*
X35748707Y-69982414D01*
X35742874Y-69980645D01*
X35664707Y-69965096D01*
X35663119Y-69964769D01*
X35579520Y-69947000D01*
X35579519Y-69947000D01*
X35395481Y-69947000D01*
X35311894Y-69964767D01*
X35310306Y-69965093D01*
X35232124Y-69980644D01*
X35226301Y-69982411D01*
X35226165Y-69981962D01*
X35215657Y-69985223D01*
X35215517Y-69985253D01*
X35215465Y-69985264D01*
X35143367Y-70017363D01*
X35140389Y-70018642D01*
X35072798Y-70046640D01*
X35072789Y-70046645D01*
X35071962Y-70047198D01*
X35053529Y-70057362D01*
X35047348Y-70060114D01*
X35047340Y-70060118D01*
X34988771Y-70102669D01*
X34984782Y-70105448D01*
X34929408Y-70142449D01*
X34929392Y-70142462D01*
X34924038Y-70147816D01*
X34909255Y-70160441D01*
X34898454Y-70168288D01*
X34854396Y-70217219D01*
X34849929Y-70221925D01*
X34807461Y-70264393D01*
X34807453Y-70264403D01*
X34799588Y-70276173D01*
X34788644Y-70290244D01*
X34775305Y-70305058D01*
X34745668Y-70356392D01*
X34741385Y-70363279D01*
X34711642Y-70407793D01*
X34703708Y-70426947D01*
X34696538Y-70441485D01*
X34683287Y-70464436D01*
X34666989Y-70514595D01*
X34663621Y-70523725D01*
X34645645Y-70567124D01*
X34640319Y-70593897D01*
X34636634Y-70608016D01*
X34626415Y-70639469D01*
X34626414Y-70639472D01*
X34621585Y-70685412D01*
X34619883Y-70696635D01*
X34612000Y-70736270D01*
X34612000Y-70770120D01*
X34611321Y-70783080D01*
X34607178Y-70822499D01*
X34611321Y-70861918D01*
X34612000Y-70874879D01*
X34612000Y-70908729D01*
X34619883Y-70948363D01*
X34621585Y-70959588D01*
X34626414Y-71005523D01*
X34626416Y-71005536D01*
X34628430Y-71011732D01*
X34634500Y-71050052D01*
X34634500Y-78817620D01*
X34633821Y-78830580D01*
X34629678Y-78869999D01*
X34633821Y-78909418D01*
X34634500Y-78922379D01*
X34634500Y-89779389D01*
X34614815Y-89846428D01*
X34562011Y-89892183D01*
X34492853Y-89902127D01*
X34439884Y-89881318D01*
X34264329Y-89759694D01*
X34057832Y-89665899D01*
X34057829Y-89665898D01*
X33837912Y-89610483D01*
X33837906Y-89610482D01*
X33704719Y-89600000D01*
X32750000Y-89600000D01*
X32750000Y-90672768D01*
X32606247Y-90650000D01*
X32393753Y-90650000D01*
X32250000Y-90672768D01*
X32250000Y-89600000D01*
X31295280Y-89600000D01*
X31162093Y-89610482D01*
X31162087Y-89610483D01*
X30942170Y-89665898D01*
X30942167Y-89665899D01*
X30735669Y-89759695D01*
X30735663Y-89759698D01*
X30549241Y-89888851D01*
X30549229Y-89888861D01*
X30388861Y-90049229D01*
X30388851Y-90049241D01*
X30259698Y-90235663D01*
X30259695Y-90235669D01*
X30165899Y-90442167D01*
X30165898Y-90442170D01*
X30110483Y-90662087D01*
X30110482Y-90662093D01*
X30100000Y-90795280D01*
X30100000Y-91127283D01*
X30080315Y-91194322D01*
X30027511Y-91240077D01*
X29958353Y-91250021D01*
X29894797Y-91220996D01*
X29858069Y-91165601D01*
X29845618Y-91127283D01*
X29829503Y-91077685D01*
X29695537Y-90792993D01*
X29604791Y-90650000D01*
X29526948Y-90527338D01*
X29526945Y-90527334D01*
X29326393Y-90284909D01*
X29326391Y-90284907D01*
X29097031Y-90069523D01*
X29097021Y-90069515D01*
X28842495Y-89884591D01*
X28842488Y-89884586D01*
X28842484Y-89884584D01*
X28566766Y-89733006D01*
X28566763Y-89733004D01*
X28566758Y-89733002D01*
X28566757Y-89733001D01*
X28274228Y-89617181D01*
X28274225Y-89617180D01*
X27969476Y-89538934D01*
X27969463Y-89538932D01*
X27657329Y-89499500D01*
X27657318Y-89499500D01*
X27342682Y-89499500D01*
X27342670Y-89499500D01*
X27150824Y-89523736D01*
X27099890Y-89519556D01*
X26909107Y-89462737D01*
X26850475Y-89424736D01*
X26821695Y-89361069D01*
X26820500Y-89343895D01*
X26820500Y-84427305D01*
X26840185Y-84360266D01*
X26892989Y-84314511D01*
X26962147Y-84304567D01*
X27006500Y-84319918D01*
X27150007Y-84402772D01*
X27150021Y-84402779D01*
X27374060Y-84495578D01*
X27608312Y-84558346D01*
X27720000Y-84573049D01*
X27720000Y-83094120D01*
X27765818Y-83113099D01*
X27901056Y-83140000D01*
X28038944Y-83140000D01*
X28174182Y-83113099D01*
X28220000Y-83094120D01*
X28220000Y-84573048D01*
X28331687Y-84558346D01*
X28565939Y-84495578D01*
X28789978Y-84402779D01*
X28789993Y-84402772D01*
X29000009Y-84281519D01*
X29192405Y-84133889D01*
X29192412Y-84133883D01*
X29363883Y-83962412D01*
X29363889Y-83962405D01*
X29511519Y-83770009D01*
X29632772Y-83559993D01*
X29632779Y-83559978D01*
X29725578Y-83335939D01*
X29788346Y-83101687D01*
X29819998Y-82861264D01*
X29820000Y-82861248D01*
X29820000Y-82690000D01*
X28624121Y-82690000D01*
X28643099Y-82644182D01*
X28670000Y-82508944D01*
X28670000Y-82371056D01*
X28643099Y-82235818D01*
X28624121Y-82190000D01*
X29820000Y-82190000D01*
X29820000Y-82018751D01*
X29819998Y-82018735D01*
X29819995Y-82018711D01*
X30319500Y-82018711D01*
X30319500Y-82861288D01*
X30351161Y-83101785D01*
X30413947Y-83336104D01*
X30506679Y-83559978D01*
X30506776Y-83560212D01*
X30628064Y-83770289D01*
X30628066Y-83770292D01*
X30628067Y-83770293D01*
X30775733Y-83962736D01*
X30775739Y-83962743D01*
X30947256Y-84134260D01*
X30947262Y-84134265D01*
X31139711Y-84281936D01*
X31349788Y-84403224D01*
X31573900Y-84496054D01*
X31808211Y-84558838D01*
X31988586Y-84582584D01*
X32048711Y-84590500D01*
X32048712Y-84590500D01*
X32291289Y-84590500D01*
X32339388Y-84584167D01*
X32531789Y-84558838D01*
X32766100Y-84496054D01*
X32990212Y-84403224D01*
X33200289Y-84281936D01*
X33392738Y-84134265D01*
X33564265Y-83962738D01*
X33711936Y-83770289D01*
X33833224Y-83560212D01*
X33926054Y-83336100D01*
X33988838Y-83101789D01*
X34020500Y-82861288D01*
X34020500Y-82018712D01*
X33988838Y-81778211D01*
X33926054Y-81543900D01*
X33833224Y-81319788D01*
X33711936Y-81109711D01*
X33633695Y-81007745D01*
X33564266Y-80917263D01*
X33564260Y-80917256D01*
X33392743Y-80745739D01*
X33392736Y-80745733D01*
X33200293Y-80598067D01*
X33200292Y-80598066D01*
X33200289Y-80598064D01*
X32990212Y-80476776D01*
X32983959Y-80474186D01*
X32766104Y-80383947D01*
X32531785Y-80321161D01*
X32291289Y-80289500D01*
X32291288Y-80289500D01*
X32048712Y-80289500D01*
X32048711Y-80289500D01*
X31808214Y-80321161D01*
X31573895Y-80383947D01*
X31349794Y-80476773D01*
X31349785Y-80476777D01*
X31139706Y-80598067D01*
X30947263Y-80745733D01*
X30947256Y-80745739D01*
X30775739Y-80917256D01*
X30775733Y-80917263D01*
X30628067Y-81109706D01*
X30506777Y-81319785D01*
X30506773Y-81319794D01*
X30413947Y-81543895D01*
X30351161Y-81778214D01*
X30319500Y-82018711D01*
X29819995Y-82018711D01*
X29788346Y-81778312D01*
X29725578Y-81544060D01*
X29632779Y-81320021D01*
X29632772Y-81320006D01*
X29511519Y-81109990D01*
X29363889Y-80917594D01*
X29363883Y-80917587D01*
X29192412Y-80746116D01*
X29192405Y-80746110D01*
X29000009Y-80598480D01*
X28789993Y-80477227D01*
X28789978Y-80477220D01*
X28565939Y-80384421D01*
X28331687Y-80321653D01*
X28220000Y-80306948D01*
X28220000Y-81785879D01*
X28174182Y-81766901D01*
X28038944Y-81740000D01*
X27901056Y-81740000D01*
X27765818Y-81766901D01*
X27720000Y-81785879D01*
X27720000Y-80306948D01*
X27719999Y-80306948D01*
X27608312Y-80321653D01*
X27374060Y-80384421D01*
X27150021Y-80477220D01*
X27150006Y-80477227D01*
X27006500Y-80560081D01*
X26938600Y-80576554D01*
X26872573Y-80553701D01*
X26829382Y-80498780D01*
X26820500Y-80452694D01*
X26820500Y-79941392D01*
X26840185Y-79874353D01*
X26871639Y-79841056D01*
X27872681Y-79114162D01*
X27938494Y-79090700D01*
X27945540Y-79090500D01*
X29120003Y-79090500D01*
X29120008Y-79090500D01*
X29222797Y-79079999D01*
X29389334Y-79024814D01*
X29538655Y-78932711D01*
X29662711Y-78808655D01*
X29754814Y-78659334D01*
X29809999Y-78492797D01*
X29820500Y-78390008D01*
X29820500Y-76518711D01*
X30319500Y-76518711D01*
X30319500Y-77361288D01*
X30351161Y-77601785D01*
X30413947Y-77836104D01*
X30506773Y-78060205D01*
X30506776Y-78060212D01*
X30628064Y-78270289D01*
X30628066Y-78270292D01*
X30628067Y-78270293D01*
X30775733Y-78462736D01*
X30775739Y-78462743D01*
X30947256Y-78634260D01*
X30947263Y-78634266D01*
X31058126Y-78719334D01*
X31139711Y-78781936D01*
X31349788Y-78903224D01*
X31573900Y-78996054D01*
X31808211Y-79058838D01*
X31968940Y-79079998D01*
X32048711Y-79090500D01*
X32048712Y-79090500D01*
X32291289Y-79090500D01*
X32371052Y-79079999D01*
X32531789Y-79058838D01*
X32766100Y-78996054D01*
X32990212Y-78903224D01*
X33200289Y-78781936D01*
X33392738Y-78634265D01*
X33564265Y-78462738D01*
X33711936Y-78270289D01*
X33833224Y-78060212D01*
X33926054Y-77836100D01*
X33988838Y-77601789D01*
X34020500Y-77361288D01*
X34020500Y-76518712D01*
X33988838Y-76278211D01*
X33926054Y-76043900D01*
X33833224Y-75819788D01*
X33711936Y-75609711D01*
X33620073Y-75489992D01*
X33564266Y-75417263D01*
X33564260Y-75417256D01*
X33392743Y-75245739D01*
X33392736Y-75245733D01*
X33200293Y-75098067D01*
X33200292Y-75098066D01*
X33200289Y-75098064D01*
X32990212Y-74976776D01*
X32990205Y-74976773D01*
X32766104Y-74883947D01*
X32531785Y-74821161D01*
X32291289Y-74789500D01*
X32291288Y-74789500D01*
X32048712Y-74789500D01*
X32048711Y-74789500D01*
X31808214Y-74821161D01*
X31573895Y-74883947D01*
X31349794Y-74976773D01*
X31349785Y-74976777D01*
X31139706Y-75098067D01*
X30947263Y-75245733D01*
X30947256Y-75245739D01*
X30775739Y-75417256D01*
X30775733Y-75417263D01*
X30628067Y-75609706D01*
X30506777Y-75819785D01*
X30506773Y-75819794D01*
X30413947Y-76043895D01*
X30351161Y-76278214D01*
X30319500Y-76518711D01*
X29820500Y-76518711D01*
X29820500Y-75489992D01*
X29809999Y-75387203D01*
X29754814Y-75220666D01*
X29752532Y-75216967D01*
X29662713Y-75071348D01*
X29662710Y-75071344D01*
X29538654Y-74947288D01*
X29424038Y-74876591D01*
X29377314Y-74824643D01*
X29368838Y-74801127D01*
X29355768Y-74748846D01*
X29265567Y-74388041D01*
X29268405Y-74318231D01*
X29298182Y-74270290D01*
X34513472Y-69055000D01*
X36439678Y-69055000D01*
X36458915Y-69238029D01*
X36458916Y-69238032D01*
X36515783Y-69413053D01*
X36515786Y-69413059D01*
X36607805Y-69572440D01*
X36660984Y-69631501D01*
X36661560Y-69632141D01*
X36664228Y-69635493D01*
X36664273Y-69635455D01*
X36668255Y-69640092D01*
X36674675Y-69646707D01*
X36730952Y-69709210D01*
X36765926Y-69734618D01*
X36772137Y-69739438D01*
X36772221Y-69739507D01*
X36772226Y-69739512D01*
X36787656Y-69750533D01*
X36797593Y-69757631D01*
X36798405Y-69758216D01*
X36879836Y-69817379D01*
X36881973Y-69818613D01*
X36892038Y-69825092D01*
X37068891Y-69951416D01*
X37068906Y-69951428D01*
X37362086Y-70160840D01*
X37377694Y-70174062D01*
X41383181Y-74179549D01*
X41416666Y-74240872D01*
X41419500Y-74267230D01*
X41419500Y-94978918D01*
X41419500Y-94978920D01*
X41419499Y-94978920D01*
X41448340Y-95123907D01*
X41448343Y-95123917D01*
X41504912Y-95260488D01*
X41504916Y-95260495D01*
X41522991Y-95287546D01*
X41522992Y-95287549D01*
X41522993Y-95287549D01*
X41536132Y-95307214D01*
X41587051Y-95383420D01*
X41587052Y-95383421D01*
X44214712Y-98011079D01*
X45087048Y-98883415D01*
X45087049Y-98883416D01*
X45156486Y-98952853D01*
X45191585Y-98987952D01*
X45314498Y-99070080D01*
X45314511Y-99070087D01*
X45451082Y-99126656D01*
X45451087Y-99126658D01*
X45451091Y-99126658D01*
X45451092Y-99126659D01*
X45596079Y-99155500D01*
X45596082Y-99155500D01*
X48417904Y-99155500D01*
X48438289Y-99157187D01*
X49082002Y-99264471D01*
X49087311Y-99265477D01*
X49157981Y-99280500D01*
X49178693Y-99280500D01*
X49191574Y-99281303D01*
X49191579Y-99281248D01*
X49194058Y-99281456D01*
X49194081Y-99281459D01*
X49195973Y-99281618D01*
X49195984Y-99281617D01*
X49195986Y-99281618D01*
X49298366Y-99280563D01*
X49298366Y-99280610D01*
X49300078Y-99280500D01*
X49342019Y-99280500D01*
X49522034Y-99242236D01*
X49690161Y-99167381D01*
X49839050Y-99059207D01*
X49962195Y-98922440D01*
X50054214Y-98763059D01*
X50111085Y-98588029D01*
X50130322Y-98405000D01*
X50111085Y-98221971D01*
X50060088Y-98065019D01*
X50054216Y-98046946D01*
X50054213Y-98046940D01*
X50025659Y-97997483D01*
X49962195Y-97887560D01*
X49839050Y-97750793D01*
X49839048Y-97750791D01*
X49690165Y-97642621D01*
X49690162Y-97642619D01*
X49690161Y-97642619D01*
X49597225Y-97601241D01*
X49522038Y-97567765D01*
X49522033Y-97567763D01*
X49342019Y-97529500D01*
X49157981Y-97529500D01*
X49087368Y-97544508D01*
X49081975Y-97545530D01*
X48438282Y-97652813D01*
X48417896Y-97654500D01*
X46032229Y-97654500D01*
X45965190Y-97634815D01*
X45944548Y-97618181D01*
X42956819Y-94630451D01*
X42923334Y-94569128D01*
X42920500Y-94542770D01*
X42920500Y-73831079D01*
X42891659Y-73686092D01*
X42891658Y-73686091D01*
X42891658Y-73686087D01*
X42835084Y-73549505D01*
X42782963Y-73471500D01*
X42767957Y-73449042D01*
X42752954Y-73426586D01*
X38439062Y-69112694D01*
X38425840Y-69097086D01*
X38061045Y-68586372D01*
X38054561Y-68576300D01*
X38032195Y-68537560D01*
X38005157Y-68507531D01*
X37999438Y-68500700D01*
X37979295Y-68474794D01*
X37979287Y-68474785D01*
X37979282Y-68474778D01*
X37978071Y-68473344D01*
X37949511Y-68445366D01*
X37944145Y-68439770D01*
X37909050Y-68400793D01*
X37909049Y-68400792D01*
X37909043Y-68400787D01*
X37760165Y-68292621D01*
X37760162Y-68292619D01*
X37760161Y-68292619D01*
X37699112Y-68265438D01*
X37592038Y-68217765D01*
X37592033Y-68217763D01*
X37412019Y-68179500D01*
X37227981Y-68179500D01*
X37047966Y-68217763D01*
X37047961Y-68217765D01*
X36879839Y-68292619D01*
X36879834Y-68292621D01*
X36730951Y-68400791D01*
X36730949Y-68400793D01*
X36607804Y-68537561D01*
X36515786Y-68696940D01*
X36515783Y-68696946D01*
X36479754Y-68807834D01*
X36458915Y-68871971D01*
X36439678Y-69055000D01*
X34513472Y-69055000D01*
X51356785Y-52211687D01*
X51417515Y-52178334D01*
X52075149Y-52031925D01*
X52141954Y-52035543D01*
X52386278Y-52118481D01*
X52675620Y-52176034D01*
X52703888Y-52177886D01*
X52969993Y-52195329D01*
X52970000Y-52195329D01*
X52970007Y-52195329D01*
X53212522Y-52179433D01*
X53264380Y-52176034D01*
X53553722Y-52118481D01*
X53833077Y-52023652D01*
X54097665Y-51893172D01*
X54342957Y-51729273D01*
X54564758Y-51534758D01*
X54759273Y-51312957D01*
X54923172Y-51067665D01*
X55053652Y-50803077D01*
X55148481Y-50523722D01*
X55206034Y-50234380D01*
X55217877Y-50053699D01*
X55225329Y-49940007D01*
X55225329Y-49939992D01*
X55206035Y-49645636D01*
X55206034Y-49645620D01*
X55148481Y-49356278D01*
X55053652Y-49076923D01*
X54963825Y-48894773D01*
X55720000Y-48894773D01*
X55720000Y-49690000D01*
X57051116Y-49690000D01*
X57020000Y-49846433D01*
X57020000Y-50033567D01*
X57051116Y-50190000D01*
X55720001Y-50190000D01*
X55720001Y-50985227D01*
X55730566Y-51119474D01*
X55786423Y-51341152D01*
X55880962Y-51549287D01*
X55880967Y-51549296D01*
X56011151Y-51737203D01*
X56172796Y-51898848D01*
X56360703Y-52029032D01*
X56360712Y-52029037D01*
X56568847Y-52123576D01*
X56790525Y-52179433D01*
X56924780Y-52189999D01*
X57719999Y-52189999D01*
X57720000Y-52189998D01*
X57720000Y-50858883D01*
X57876433Y-50890000D01*
X58063567Y-50890000D01*
X58220000Y-50858883D01*
X58220000Y-52189999D01*
X59015212Y-52189999D01*
X59015227Y-52189998D01*
X59149474Y-52179433D01*
X59371152Y-52123576D01*
X59579287Y-52029037D01*
X59579296Y-52029032D01*
X59767203Y-51898848D01*
X59928848Y-51737203D01*
X60059032Y-51549296D01*
X60059037Y-51549287D01*
X60153576Y-51341152D01*
X60209433Y-51119474D01*
X60219999Y-50985226D01*
X60220000Y-50985213D01*
X60220000Y-50190000D01*
X58888884Y-50190000D01*
X58920000Y-50033567D01*
X58920000Y-49846433D01*
X58888884Y-49690000D01*
X60219999Y-49690000D01*
X60219999Y-48894787D01*
X60219998Y-48894772D01*
X60209433Y-48760525D01*
X60153576Y-48538847D01*
X60059037Y-48330712D01*
X60059032Y-48330703D01*
X59928848Y-48142796D01*
X59767203Y-47981151D01*
X59579296Y-47850967D01*
X59579287Y-47850962D01*
X59371152Y-47756423D01*
X59149474Y-47700566D01*
X59015226Y-47690000D01*
X58220000Y-47690000D01*
X58220000Y-49021116D01*
X58063567Y-48990000D01*
X57876433Y-48990000D01*
X57720000Y-49021116D01*
X57720000Y-47690000D01*
X56924787Y-47690000D01*
X56924772Y-47690001D01*
X56790525Y-47700566D01*
X56568847Y-47756423D01*
X56360712Y-47850962D01*
X56360703Y-47850967D01*
X56172796Y-47981151D01*
X56011151Y-48142796D01*
X55880967Y-48330703D01*
X55880962Y-48330712D01*
X55786423Y-48538847D01*
X55730566Y-48760525D01*
X55720000Y-48894773D01*
X54963825Y-48894773D01*
X54923172Y-48812336D01*
X54759273Y-48567043D01*
X54716655Y-48518447D01*
X54564758Y-48345241D01*
X54342955Y-48150725D01*
X54097667Y-47986829D01*
X54097660Y-47986825D01*
X53833080Y-47856349D01*
X53553730Y-47761521D01*
X53553724Y-47761519D01*
X53553722Y-47761519D01*
X53264380Y-47703966D01*
X53264373Y-47703965D01*
X53264363Y-47703964D01*
X52970007Y-47684671D01*
X52969993Y-47684671D01*
X52675636Y-47703964D01*
X52675624Y-47703965D01*
X52675620Y-47703966D01*
X52675612Y-47703967D01*
X52675609Y-47703968D01*
X52386283Y-47761518D01*
X52386269Y-47761521D01*
X52106919Y-47856349D01*
X51842334Y-47986828D01*
X51597041Y-48150728D01*
X51375241Y-48345241D01*
X51180728Y-48567041D01*
X51016828Y-48812334D01*
X50886351Y-49076915D01*
X50860564Y-49152878D01*
X50830826Y-49200698D01*
X49780003Y-50251521D01*
X49772192Y-50258536D01*
X49772262Y-50258618D01*
X49749558Y-50277910D01*
X49748635Y-50278739D01*
X49748632Y-50278742D01*
X49689439Y-50341209D01*
X49683554Y-50347970D01*
X27016174Y-73015351D01*
X27016172Y-73015354D01*
X26966485Y-73083741D01*
X26900476Y-73174594D01*
X26811116Y-73349973D01*
X26807086Y-73362379D01*
X26807085Y-73362382D01*
X26750290Y-73537173D01*
X26719500Y-73731577D01*
X26719500Y-74192502D01*
X26715798Y-74222577D01*
X26571159Y-74801130D01*
X26535802Y-74861393D01*
X26515959Y-74876593D01*
X26401345Y-74947288D01*
X26277289Y-75071344D01*
X26277286Y-75071348D01*
X26185187Y-75220662D01*
X26185186Y-75220664D01*
X26130001Y-75387203D01*
X26130000Y-75387204D01*
X26119500Y-75489984D01*
X26119500Y-76653367D01*
X26099815Y-76720406D01*
X26093380Y-76729495D01*
X24992380Y-78145071D01*
X24935684Y-78185904D01*
X24865912Y-78189603D01*
X24805217Y-78154992D01*
X24772868Y-78093062D01*
X24770500Y-78068943D01*
X24770500Y-65999994D01*
X27904734Y-65999994D01*
X27904734Y-66000005D01*
X27923763Y-66229649D01*
X27980333Y-66453042D01*
X28061679Y-66638493D01*
X28072900Y-66664073D01*
X28198939Y-66856990D01*
X28355012Y-67026531D01*
X28355015Y-67026533D01*
X28355018Y-67026536D01*
X28536853Y-67168064D01*
X28536860Y-67168068D01*
X28536862Y-67168070D01*
X28739528Y-67277747D01*
X28957482Y-67352571D01*
X29184780Y-67390500D01*
X29415220Y-67390500D01*
X29642518Y-67352571D01*
X29860472Y-67277747D01*
X30063138Y-67168070D01*
X30074680Y-67159087D01*
X30161514Y-67091501D01*
X30244988Y-67026531D01*
X30401061Y-66856990D01*
X30527100Y-66664073D01*
X30619667Y-66453042D01*
X30676236Y-66229653D01*
X30695266Y-66000000D01*
X30676236Y-65770347D01*
X30619667Y-65546958D01*
X30527100Y-65335927D01*
X30401061Y-65143010D01*
X30244988Y-64973469D01*
X30244983Y-64973465D01*
X30244981Y-64973463D01*
X30063146Y-64831935D01*
X30063135Y-64831928D01*
X29860478Y-64722256D01*
X29860475Y-64722255D01*
X29860472Y-64722253D01*
X29860466Y-64722251D01*
X29860464Y-64722250D01*
X29642520Y-64647429D01*
X29415220Y-64609500D01*
X29184780Y-64609500D01*
X28957479Y-64647429D01*
X28739535Y-64722250D01*
X28739521Y-64722256D01*
X28536864Y-64831928D01*
X28536853Y-64831935D01*
X28355018Y-64973463D01*
X28355015Y-64973466D01*
X28198939Y-65143010D01*
X28072898Y-65335930D01*
X27980333Y-65546957D01*
X27923763Y-65770350D01*
X27904734Y-65999994D01*
X24770500Y-65999994D01*
X24770500Y-51769993D01*
X27002677Y-51769993D01*
X27002677Y-51770002D01*
X27021929Y-51990062D01*
X27021930Y-51990070D01*
X27079104Y-52203445D01*
X27079105Y-52203447D01*
X27079106Y-52203450D01*
X27086042Y-52218324D01*
X27172466Y-52403662D01*
X27172468Y-52403666D01*
X27299170Y-52584615D01*
X27299175Y-52584621D01*
X27455378Y-52740824D01*
X27455384Y-52740829D01*
X27636333Y-52867531D01*
X27636335Y-52867532D01*
X27636338Y-52867534D01*
X27746929Y-52919103D01*
X27765189Y-52927618D01*
X27817628Y-52973790D01*
X27836780Y-53040984D01*
X27816564Y-53107865D01*
X27765189Y-53152382D01*
X27636340Y-53212465D01*
X27636338Y-53212466D01*
X27455377Y-53339175D01*
X27299175Y-53495377D01*
X27172466Y-53676338D01*
X27172465Y-53676340D01*
X27079107Y-53876548D01*
X27079104Y-53876554D01*
X27021930Y-54089929D01*
X27021929Y-54089937D01*
X27002677Y-54309995D01*
X27002677Y-54310002D01*
X27021929Y-54530062D01*
X27021930Y-54530070D01*
X27079104Y-54743445D01*
X27079105Y-54743447D01*
X27079106Y-54743450D01*
X27157181Y-54910883D01*
X27172466Y-54943662D01*
X27172468Y-54943666D01*
X27299170Y-55124615D01*
X27299175Y-55124621D01*
X27455378Y-55280824D01*
X27455384Y-55280829D01*
X27636333Y-55407531D01*
X27636335Y-55407532D01*
X27636338Y-55407534D01*
X27705960Y-55439999D01*
X27765189Y-55467618D01*
X27817628Y-55513790D01*
X27836780Y-55580984D01*
X27816564Y-55647865D01*
X27765189Y-55692382D01*
X27636340Y-55752465D01*
X27636338Y-55752466D01*
X27455377Y-55879175D01*
X27299175Y-56035377D01*
X27172466Y-56216338D01*
X27172465Y-56216340D01*
X27079107Y-56416548D01*
X27079104Y-56416554D01*
X27021930Y-56629929D01*
X27021929Y-56629937D01*
X27002677Y-56849997D01*
X27002677Y-56850002D01*
X27021929Y-57070062D01*
X27021930Y-57070070D01*
X27079104Y-57283445D01*
X27079105Y-57283447D01*
X27079106Y-57283450D01*
X27087954Y-57302424D01*
X27172466Y-57483662D01*
X27172468Y-57483666D01*
X27299170Y-57664615D01*
X27299175Y-57664621D01*
X27455378Y-57820824D01*
X27455384Y-57820829D01*
X27636333Y-57947531D01*
X27636335Y-57947532D01*
X27636338Y-57947534D01*
X27765781Y-58007894D01*
X27818220Y-58054066D01*
X27837372Y-58121260D01*
X27817156Y-58188141D01*
X27765781Y-58232658D01*
X27636590Y-58292901D01*
X27571811Y-58338258D01*
X28242554Y-59009000D01*
X28219840Y-59009000D01*
X28122939Y-59034964D01*
X28036060Y-59085124D01*
X27965124Y-59156060D01*
X27914964Y-59242939D01*
X27889000Y-59339840D01*
X27889000Y-59362553D01*
X27218258Y-58691811D01*
X27172901Y-58756590D01*
X27079579Y-58956720D01*
X27079575Y-58956729D01*
X27022426Y-59170013D01*
X27022424Y-59170023D01*
X27003179Y-59389995D01*
X27003179Y-59389996D01*
X27022424Y-59609976D01*
X27022426Y-59609986D01*
X27079575Y-59823270D01*
X27079580Y-59823284D01*
X27172898Y-60023405D01*
X27172901Y-60023411D01*
X27218258Y-60088187D01*
X27218258Y-60088188D01*
X27889000Y-59417446D01*
X27889000Y-59440160D01*
X27914964Y-59537061D01*
X27965124Y-59623940D01*
X28036060Y-59694876D01*
X28122939Y-59745036D01*
X28219840Y-59771000D01*
X28242553Y-59771000D01*
X27571810Y-60441740D01*
X27636589Y-60487098D01*
X27765781Y-60547342D01*
X27818220Y-60593514D01*
X27837372Y-60660708D01*
X27817156Y-60727589D01*
X27765781Y-60772106D01*
X27636340Y-60832465D01*
X27636338Y-60832466D01*
X27455377Y-60959175D01*
X27299175Y-61115377D01*
X27172466Y-61296338D01*
X27172465Y-61296340D01*
X27079107Y-61496548D01*
X27079104Y-61496554D01*
X27021930Y-61709929D01*
X27021929Y-61709937D01*
X27002677Y-61929995D01*
X27002677Y-61930002D01*
X27021929Y-62150062D01*
X27021930Y-62150070D01*
X27079104Y-62363445D01*
X27079105Y-62363447D01*
X27079106Y-62363450D01*
X27172466Y-62563662D01*
X27172468Y-62563666D01*
X27299170Y-62744615D01*
X27299175Y-62744621D01*
X27455378Y-62900824D01*
X27455384Y-62900829D01*
X27636333Y-63027531D01*
X27636335Y-63027532D01*
X27636338Y-63027534D01*
X27836550Y-63120894D01*
X28049932Y-63178070D01*
X28207123Y-63191822D01*
X28269998Y-63197323D01*
X28270000Y-63197323D01*
X28270002Y-63197323D01*
X28325017Y-63192509D01*
X28490068Y-63178070D01*
X28703450Y-63120894D01*
X28903662Y-63027534D01*
X29084620Y-62900826D01*
X29240826Y-62744620D01*
X29367534Y-62563662D01*
X29460894Y-62363450D01*
X29518070Y-62150068D01*
X29537323Y-61930000D01*
X29533961Y-61891575D01*
X29525075Y-61790000D01*
X29518070Y-61709932D01*
X29460894Y-61496550D01*
X29367534Y-61296339D01*
X29240826Y-61115380D01*
X29084620Y-60959174D01*
X29084616Y-60959171D01*
X29084615Y-60959170D01*
X28903666Y-60832468D01*
X28903662Y-60832466D01*
X28774218Y-60772105D01*
X28721779Y-60725932D01*
X28702627Y-60658739D01*
X28722843Y-60591858D01*
X28774219Y-60547340D01*
X28903416Y-60487095D01*
X28903417Y-60487094D01*
X28968188Y-60441741D01*
X28297448Y-59771000D01*
X28320160Y-59771000D01*
X28417061Y-59745036D01*
X28503940Y-59694876D01*
X28574876Y-59623940D01*
X28625036Y-59537061D01*
X28651000Y-59440160D01*
X28651000Y-59417447D01*
X29321741Y-60088188D01*
X29367094Y-60023417D01*
X29367100Y-60023407D01*
X29460419Y-59823284D01*
X29460424Y-59823270D01*
X29517573Y-59609986D01*
X29517575Y-59609976D01*
X29536821Y-59389996D01*
X29536821Y-59389995D01*
X29517575Y-59170023D01*
X29517573Y-59170013D01*
X29460424Y-58956729D01*
X29460420Y-58956720D01*
X29367096Y-58756586D01*
X29321741Y-58691811D01*
X29321740Y-58691810D01*
X28651000Y-59362551D01*
X28651000Y-59339840D01*
X28625036Y-59242939D01*
X28574876Y-59156060D01*
X28503940Y-59085124D01*
X28417061Y-59034964D01*
X28320160Y-59009000D01*
X28297447Y-59009000D01*
X28968188Y-58338258D01*
X28903411Y-58292901D01*
X28903409Y-58292900D01*
X28798467Y-58243965D01*
X28746028Y-58197793D01*
X28726876Y-58130599D01*
X28747092Y-58063718D01*
X28800257Y-58018383D01*
X28821632Y-58011080D01*
X29469265Y-57853993D01*
X29498494Y-57850500D01*
X29848543Y-57850500D01*
X29947994Y-57830717D01*
X29997721Y-57820826D01*
X30041836Y-57812051D01*
X30095165Y-57789961D01*
X30223914Y-57736632D01*
X30387782Y-57627139D01*
X30527139Y-57487782D01*
X30527140Y-57487779D01*
X30534206Y-57480714D01*
X30534209Y-57480710D01*
X33068403Y-54946515D01*
X33077397Y-54938363D01*
X33110883Y-54910883D01*
X33138364Y-54877396D01*
X33146515Y-54868404D01*
X33177139Y-54837781D01*
X33177138Y-54837781D01*
X33235719Y-54779202D01*
X33235723Y-54779196D01*
X36244920Y-51769999D01*
X37693179Y-51769999D01*
X37693179Y-51770000D01*
X37712424Y-51989976D01*
X37712426Y-51989986D01*
X37769575Y-52203270D01*
X37769580Y-52203284D01*
X37862898Y-52403405D01*
X37862901Y-52403411D01*
X37908258Y-52468187D01*
X37908258Y-52468188D01*
X38579000Y-51797446D01*
X38579000Y-51820160D01*
X38604964Y-51917061D01*
X38655124Y-52003940D01*
X38726060Y-52074876D01*
X38812939Y-52125036D01*
X38909840Y-52151000D01*
X38932553Y-52151000D01*
X38261810Y-52821740D01*
X38326590Y-52867099D01*
X38326592Y-52867100D01*
X38526715Y-52960419D01*
X38526729Y-52960424D01*
X38740013Y-53017573D01*
X38740023Y-53017575D01*
X38959999Y-53036821D01*
X38960001Y-53036821D01*
X39179976Y-53017575D01*
X39179986Y-53017573D01*
X39393270Y-52960424D01*
X39393284Y-52960419D01*
X39593407Y-52867100D01*
X39593417Y-52867094D01*
X39658188Y-52821741D01*
X39636441Y-52799994D01*
X41104734Y-52799994D01*
X41104734Y-52800005D01*
X41123763Y-53029649D01*
X41180333Y-53253042D01*
X41268252Y-53453478D01*
X41272900Y-53464073D01*
X41398939Y-53656990D01*
X41555012Y-53826531D01*
X41555015Y-53826533D01*
X41555018Y-53826536D01*
X41736853Y-53968064D01*
X41736860Y-53968068D01*
X41736862Y-53968070D01*
X41939528Y-54077747D01*
X42157482Y-54152571D01*
X42384780Y-54190500D01*
X42615220Y-54190500D01*
X42842518Y-54152571D01*
X43060472Y-54077747D01*
X43263138Y-53968070D01*
X43444988Y-53826531D01*
X43601061Y-53656990D01*
X43727100Y-53464073D01*
X43819667Y-53253042D01*
X43876236Y-53029653D01*
X43889706Y-52867099D01*
X43895266Y-52800005D01*
X43895266Y-52799994D01*
X43876236Y-52570350D01*
X43876236Y-52570347D01*
X43819667Y-52346958D01*
X43727100Y-52135927D01*
X43601061Y-51943010D01*
X43444988Y-51773469D01*
X43444983Y-51773465D01*
X43444981Y-51773463D01*
X43263146Y-51631935D01*
X43263135Y-51631928D01*
X43060478Y-51522256D01*
X43060475Y-51522255D01*
X43060472Y-51522253D01*
X43060466Y-51522251D01*
X43060464Y-51522250D01*
X42842520Y-51447429D01*
X42615220Y-51409500D01*
X42384780Y-51409500D01*
X42157479Y-51447429D01*
X41939535Y-51522250D01*
X41939521Y-51522256D01*
X41736864Y-51631928D01*
X41736853Y-51631935D01*
X41555018Y-51773463D01*
X41555015Y-51773466D01*
X41398939Y-51943010D01*
X41272898Y-52135930D01*
X41180333Y-52346957D01*
X41123763Y-52570350D01*
X41104734Y-52799994D01*
X39636441Y-52799994D01*
X38987448Y-52151000D01*
X39010160Y-52151000D01*
X39107061Y-52125036D01*
X39193940Y-52074876D01*
X39264876Y-52003940D01*
X39315036Y-51917061D01*
X39341000Y-51820160D01*
X39341000Y-51797447D01*
X40011741Y-52468188D01*
X40057094Y-52403417D01*
X40057100Y-52403407D01*
X40150419Y-52203284D01*
X40150424Y-52203270D01*
X40207573Y-51989986D01*
X40207575Y-51989976D01*
X40226821Y-51770000D01*
X40226821Y-51769999D01*
X40207575Y-51550023D01*
X40207573Y-51550013D01*
X40150424Y-51336729D01*
X40150420Y-51336720D01*
X40057096Y-51136586D01*
X40011741Y-51071811D01*
X40011740Y-51071810D01*
X39341000Y-51742551D01*
X39341000Y-51719840D01*
X39315036Y-51622939D01*
X39264876Y-51536060D01*
X39193940Y-51465124D01*
X39107061Y-51414964D01*
X39010160Y-51389000D01*
X38987447Y-51389000D01*
X39658188Y-50718258D01*
X39593411Y-50672901D01*
X39593405Y-50672898D01*
X39393284Y-50579580D01*
X39393270Y-50579575D01*
X39179986Y-50522426D01*
X39179976Y-50522424D01*
X38960001Y-50503179D01*
X38959999Y-50503179D01*
X38740023Y-50522424D01*
X38740013Y-50522426D01*
X38526729Y-50579575D01*
X38526720Y-50579579D01*
X38326590Y-50672901D01*
X38261811Y-50718258D01*
X38932554Y-51389000D01*
X38909840Y-51389000D01*
X38812939Y-51414964D01*
X38726060Y-51465124D01*
X38655124Y-51536060D01*
X38604964Y-51622939D01*
X38579000Y-51719840D01*
X38579000Y-51742553D01*
X37908258Y-51071811D01*
X37862901Y-51136590D01*
X37769579Y-51336720D01*
X37769575Y-51336729D01*
X37712426Y-51550013D01*
X37712424Y-51550023D01*
X37693179Y-51769999D01*
X36244920Y-51769999D01*
X40411401Y-47603517D01*
X40459351Y-47573737D01*
X41368670Y-47266210D01*
X41438481Y-47263380D01*
X41439035Y-47263521D01*
X41621139Y-47310277D01*
X41687935Y-47318715D01*
X41939524Y-47350499D01*
X41939533Y-47350499D01*
X41939536Y-47350500D01*
X41939538Y-47350500D01*
X42260462Y-47350500D01*
X42260464Y-47350500D01*
X42260467Y-47350499D01*
X42260475Y-47350499D01*
X42450463Y-47326497D01*
X42578861Y-47310277D01*
X42889706Y-47230466D01*
X43188097Y-47112324D01*
X43469328Y-46957716D01*
X43564445Y-46888608D01*
X43617160Y-46866579D01*
X44887775Y-46657150D01*
X44907941Y-46655500D01*
X59543920Y-46655500D01*
X59641462Y-46636096D01*
X59688913Y-46626658D01*
X59825495Y-46570084D01*
X59874729Y-46537186D01*
X59948416Y-46487952D01*
X60481368Y-45955000D01*
X61844767Y-45955000D01*
X61863676Y-46231450D01*
X61863677Y-46231452D01*
X61920050Y-46502735D01*
X61920055Y-46502754D01*
X61997011Y-46719289D01*
X62012847Y-46763847D01*
X62140330Y-47009876D01*
X62293293Y-47226577D01*
X62309623Y-47258869D01*
X62374999Y-47454999D01*
X62375000Y-47455000D01*
X62580891Y-47523630D01*
X62619931Y-47545077D01*
X62704205Y-47613639D01*
X62940961Y-47757614D01*
X62940963Y-47757615D01*
X62940965Y-47757616D01*
X63110397Y-47831210D01*
X63195116Y-47868009D01*
X63461937Y-47942769D01*
X63703279Y-47975940D01*
X63736451Y-47980500D01*
X63736452Y-47980500D01*
X64013549Y-47980500D01*
X64043144Y-47976432D01*
X64288063Y-47942769D01*
X64554884Y-47868009D01*
X64809039Y-47757614D01*
X65045795Y-47613639D01*
X65130068Y-47545076D01*
X65169107Y-47523629D01*
X65375000Y-47455000D01*
X65440375Y-47258871D01*
X65456704Y-47226580D01*
X65609670Y-47009876D01*
X65737153Y-46763847D01*
X65829946Y-46502750D01*
X65886323Y-46231450D01*
X65905233Y-45955000D01*
X65886323Y-45678550D01*
X65829946Y-45407250D01*
X65737153Y-45146153D01*
X65609670Y-44900124D01*
X65456704Y-44683419D01*
X65440375Y-44651128D01*
X65406666Y-44550000D01*
X65375000Y-44455000D01*
X65374999Y-44454999D01*
X65169108Y-44386369D01*
X65130065Y-44364920D01*
X65045794Y-44296360D01*
X64809034Y-44152383D01*
X64554885Y-44041991D01*
X64288068Y-43967232D01*
X64288064Y-43967231D01*
X64288063Y-43967231D01*
X64150805Y-43948365D01*
X64013549Y-43929500D01*
X64013548Y-43929500D01*
X63736452Y-43929500D01*
X63736451Y-43929500D01*
X63461937Y-43967231D01*
X63461931Y-43967232D01*
X63195114Y-44041991D01*
X62940965Y-44152383D01*
X62704202Y-44296362D01*
X62704199Y-44296364D01*
X62619931Y-44364921D01*
X62580890Y-44386369D01*
X62375000Y-44455000D01*
X62309622Y-44651131D01*
X62293290Y-44683425D01*
X62140331Y-44900121D01*
X62012845Y-45146157D01*
X61920055Y-45407245D01*
X61920050Y-45407264D01*
X61863677Y-45678547D01*
X61863676Y-45678549D01*
X61844767Y-45955000D01*
X60481368Y-45955000D01*
X63579846Y-42856520D01*
X63604090Y-42837658D01*
X64190330Y-42488676D01*
X64241156Y-42471869D01*
X64257753Y-42470174D01*
X64421516Y-42415908D01*
X64568350Y-42325340D01*
X64682319Y-42211371D01*
X64743642Y-42177886D01*
X64813334Y-42182870D01*
X64857681Y-42211371D01*
X64971650Y-42325340D01*
X65118484Y-42415908D01*
X65282247Y-42470174D01*
X65383323Y-42480500D01*
X65981676Y-42480499D01*
X65981684Y-42480498D01*
X65981687Y-42480498D01*
X66038886Y-42474655D01*
X66082753Y-42470174D01*
X66246516Y-42415908D01*
X66393350Y-42325340D01*
X66515340Y-42203350D01*
X66605908Y-42056516D01*
X66660174Y-41892753D01*
X66670500Y-41791677D01*
X66670499Y-41218324D01*
X66660174Y-41117247D01*
X66654711Y-41100764D01*
X66649861Y-41080627D01*
X66640106Y-41017250D01*
X66570667Y-40566137D01*
X66570246Y-40531398D01*
X66625278Y-40105266D01*
X66630551Y-40082147D01*
X66643101Y-40044275D01*
X66660174Y-39992753D01*
X66670500Y-39891677D01*
X66670499Y-39318324D01*
X66669169Y-39305308D01*
X66660174Y-39217247D01*
X66630521Y-39127761D01*
X66605908Y-39053484D01*
X66515340Y-38906650D01*
X66393350Y-38784660D01*
X66259274Y-38701961D01*
X66246518Y-38694093D01*
X66246513Y-38694091D01*
X66245069Y-38693612D01*
X66082753Y-38639826D01*
X66082751Y-38639825D01*
X65981678Y-38629500D01*
X65308330Y-38629500D01*
X65308312Y-38629501D01*
X65207247Y-38639825D01*
X65043484Y-38694092D01*
X65043481Y-38694093D01*
X64896648Y-38784661D01*
X64857326Y-38823983D01*
X64796003Y-38857468D01*
X64726311Y-38852482D01*
X64681965Y-38823982D01*
X64643038Y-38785055D01*
X64643034Y-38785052D01*
X64496311Y-38694551D01*
X64496300Y-38694546D01*
X64332652Y-38640319D01*
X64231654Y-38630000D01*
X64145000Y-38630000D01*
X64145000Y-39481000D01*
X64125315Y-39548039D01*
X64072511Y-39593794D01*
X64021000Y-39605000D01*
X63895000Y-39605000D01*
X63895000Y-39731000D01*
X63875315Y-39798039D01*
X63822511Y-39843794D01*
X63771000Y-39855000D01*
X62870001Y-39855000D01*
X62870001Y-39891654D01*
X62880319Y-39992652D01*
X62934546Y-40156300D01*
X62934551Y-40156311D01*
X63025052Y-40303034D01*
X63025055Y-40303038D01*
X63146960Y-40424943D01*
X63186233Y-40449167D01*
X63232957Y-40501115D01*
X63244180Y-40570078D01*
X63216336Y-40634160D01*
X63186234Y-40660244D01*
X63146650Y-40684659D01*
X63024661Y-40806648D01*
X62934093Y-40953481D01*
X62934091Y-40953486D01*
X62879826Y-41117245D01*
X62879825Y-41117252D01*
X62876755Y-41147303D01*
X62861307Y-41195785D01*
X62534929Y-41772335D01*
X62514700Y-41798930D01*
X59195451Y-45118181D01*
X59134128Y-45151666D01*
X59107770Y-45154500D01*
X45174235Y-45154500D01*
X45107196Y-45134815D01*
X45069719Y-45097227D01*
X44812126Y-44693753D01*
X44631134Y-44410260D01*
X44613848Y-44366773D01*
X44575256Y-44164462D01*
X44476084Y-43859242D01*
X44403378Y-43704734D01*
X44339441Y-43568861D01*
X44339437Y-43568855D01*
X44333843Y-43560041D01*
X44303614Y-43512406D01*
X44167479Y-43297891D01*
X44167477Y-43297888D01*
X43962912Y-43050611D01*
X43781975Y-42880700D01*
X43728964Y-42830920D01*
X43728961Y-42830918D01*
X43728955Y-42830913D01*
X43469339Y-42642291D01*
X43469321Y-42642280D01*
X43188096Y-42487675D01*
X43188093Y-42487674D01*
X42982424Y-42406244D01*
X42889706Y-42369534D01*
X42889704Y-42369533D01*
X42889706Y-42369533D01*
X42578864Y-42289723D01*
X42578851Y-42289721D01*
X42260475Y-42249500D01*
X42260464Y-42249500D01*
X41939536Y-42249500D01*
X41939524Y-42249500D01*
X41621148Y-42289721D01*
X41621135Y-42289723D01*
X41310294Y-42369533D01*
X41011906Y-42487674D01*
X41011903Y-42487675D01*
X40730678Y-42642280D01*
X40730660Y-42642291D01*
X40471044Y-42830913D01*
X40471034Y-42830921D01*
X40237087Y-43050611D01*
X40032522Y-43297888D01*
X40032520Y-43297891D01*
X39860562Y-43568855D01*
X39860558Y-43568861D01*
X39723918Y-43859235D01*
X39723916Y-43859240D01*
X39624745Y-44164457D01*
X39564607Y-44479709D01*
X39564606Y-44479716D01*
X39544457Y-44799994D01*
X39544457Y-44800005D01*
X39564241Y-45114478D01*
X39550158Y-45180126D01*
X39050980Y-46126269D01*
X39028989Y-46156088D01*
X31762220Y-53422860D01*
X31762217Y-53422863D01*
X31731600Y-53453478D01*
X31722589Y-53461645D01*
X31689116Y-53489116D01*
X31661645Y-53522589D01*
X31653475Y-53531603D01*
X29371899Y-55813181D01*
X29310576Y-55846666D01*
X29284218Y-55849500D01*
X29240727Y-55849500D01*
X29197825Y-55841842D01*
X28792679Y-55692440D01*
X28736590Y-55650776D01*
X28711931Y-55585403D01*
X28726529Y-55517075D01*
X28775751Y-55467487D01*
X28783132Y-55463737D01*
X28903662Y-55407534D01*
X29084620Y-55280826D01*
X29240826Y-55124620D01*
X29367534Y-54943662D01*
X29460894Y-54743450D01*
X29518070Y-54530068D01*
X29537323Y-54310000D01*
X29533470Y-54265964D01*
X29526868Y-54190500D01*
X29518070Y-54089932D01*
X29460894Y-53876550D01*
X29367534Y-53676339D01*
X29292869Y-53569706D01*
X29240827Y-53495381D01*
X29168306Y-53422860D01*
X29084620Y-53339174D01*
X29084616Y-53339171D01*
X29084615Y-53339170D01*
X28903666Y-53212468D01*
X28903658Y-53212464D01*
X28774811Y-53152382D01*
X28722371Y-53106210D01*
X28703219Y-53039017D01*
X28723435Y-52972135D01*
X28774811Y-52927618D01*
X28793071Y-52919103D01*
X28903662Y-52867534D01*
X29084620Y-52740826D01*
X29240826Y-52584620D01*
X29367534Y-52403662D01*
X29460894Y-52203450D01*
X29518070Y-51990068D01*
X29537323Y-51770000D01*
X29537323Y-51769999D01*
X29537323Y-51769993D01*
X29520795Y-51581078D01*
X29518070Y-51549932D01*
X29460894Y-51336550D01*
X29367534Y-51136339D01*
X29240826Y-50955380D01*
X29084620Y-50799174D01*
X29084616Y-50799171D01*
X29084615Y-50799170D01*
X28903666Y-50672468D01*
X28903662Y-50672466D01*
X28903660Y-50672465D01*
X28703450Y-50579106D01*
X28703447Y-50579105D01*
X28703445Y-50579104D01*
X28490070Y-50521930D01*
X28490062Y-50521929D01*
X28270002Y-50502677D01*
X28269998Y-50502677D01*
X28049937Y-50521929D01*
X28049929Y-50521930D01*
X27836554Y-50579104D01*
X27836548Y-50579107D01*
X27636340Y-50672465D01*
X27636338Y-50672466D01*
X27455377Y-50799175D01*
X27299175Y-50955377D01*
X27172466Y-51136338D01*
X27172465Y-51136340D01*
X27079107Y-51336548D01*
X27079104Y-51336554D01*
X27021930Y-51549929D01*
X27021929Y-51549937D01*
X27002677Y-51769993D01*
X24770500Y-51769993D01*
X24770500Y-45955000D01*
X26439767Y-45955000D01*
X26458676Y-46231450D01*
X26458677Y-46231452D01*
X26515050Y-46502735D01*
X26515055Y-46502754D01*
X26592011Y-46719289D01*
X26607847Y-46763847D01*
X26735330Y-47009876D01*
X26888293Y-47226577D01*
X26904623Y-47258869D01*
X26969999Y-47454999D01*
X26970000Y-47455000D01*
X27175891Y-47523630D01*
X27214931Y-47545077D01*
X27299205Y-47613639D01*
X27535961Y-47757614D01*
X27535963Y-47757615D01*
X27535965Y-47757616D01*
X27705397Y-47831210D01*
X27790116Y-47868009D01*
X28056937Y-47942769D01*
X28298279Y-47975940D01*
X28331451Y-47980500D01*
X28331452Y-47980500D01*
X28608549Y-47980500D01*
X28638144Y-47976432D01*
X28883063Y-47942769D01*
X29149884Y-47868009D01*
X29404039Y-47757614D01*
X29640795Y-47613639D01*
X29725068Y-47545076D01*
X29764107Y-47523629D01*
X29970000Y-47455000D01*
X30035375Y-47258871D01*
X30051704Y-47226580D01*
X30204670Y-47009876D01*
X30332153Y-46763847D01*
X30424946Y-46502750D01*
X30481323Y-46231450D01*
X30500233Y-45955000D01*
X30481323Y-45678550D01*
X30424946Y-45407250D01*
X30332153Y-45146153D01*
X30204670Y-44900124D01*
X30051704Y-44683419D01*
X30035375Y-44651128D01*
X30001666Y-44550000D01*
X29970000Y-44455000D01*
X29969999Y-44454999D01*
X29764108Y-44386369D01*
X29725065Y-44364920D01*
X29640794Y-44296360D01*
X29404034Y-44152383D01*
X29149885Y-44041991D01*
X28883068Y-43967232D01*
X28883064Y-43967231D01*
X28883063Y-43967231D01*
X28745805Y-43948365D01*
X28608549Y-43929500D01*
X28608548Y-43929500D01*
X28331452Y-43929500D01*
X28331451Y-43929500D01*
X28056937Y-43967231D01*
X28056931Y-43967232D01*
X27790114Y-44041991D01*
X27535965Y-44152383D01*
X27299202Y-44296362D01*
X27299199Y-44296364D01*
X27214931Y-44364921D01*
X27175890Y-44386369D01*
X26970000Y-44455000D01*
X26904622Y-44651131D01*
X26888290Y-44683425D01*
X26735331Y-44900121D01*
X26607845Y-45146157D01*
X26515055Y-45407245D01*
X26515050Y-45407264D01*
X26458677Y-45678547D01*
X26458676Y-45678549D01*
X26439767Y-45955000D01*
X24770500Y-45955000D01*
X24770500Y-43704731D01*
X32350000Y-43704731D01*
X32350000Y-44550000D01*
X33572769Y-44550000D01*
X33550000Y-44693753D01*
X33550000Y-44906247D01*
X33572769Y-45050000D01*
X32350000Y-45050000D01*
X32350000Y-45895268D01*
X32360215Y-46039958D01*
X32360217Y-46039968D01*
X32414313Y-46280165D01*
X32414315Y-46280172D01*
X32506244Y-46508585D01*
X32633620Y-46719289D01*
X32633627Y-46719299D01*
X32793153Y-46906846D01*
X32980700Y-47066372D01*
X32980710Y-47066379D01*
X33191414Y-47193755D01*
X33419827Y-47285684D01*
X33419834Y-47285686D01*
X33660031Y-47339782D01*
X33660041Y-47339784D01*
X33804731Y-47349999D01*
X33804734Y-47350000D01*
X34650000Y-47350000D01*
X34650000Y-46127231D01*
X34793753Y-46150000D01*
X35006247Y-46150000D01*
X35150000Y-46127231D01*
X35150000Y-47350000D01*
X35995266Y-47350000D01*
X35995268Y-47349999D01*
X36139958Y-47339784D01*
X36139968Y-47339782D01*
X36380165Y-47285686D01*
X36380172Y-47285684D01*
X36608585Y-47193755D01*
X36819289Y-47066379D01*
X36819299Y-47066372D01*
X37006846Y-46906846D01*
X37166372Y-46719299D01*
X37166379Y-46719289D01*
X37293755Y-46508585D01*
X37385684Y-46280172D01*
X37385686Y-46280165D01*
X37439782Y-46039968D01*
X37439784Y-46039958D01*
X37449999Y-45895268D01*
X37450000Y-45895266D01*
X37450000Y-45050000D01*
X36227231Y-45050000D01*
X36250000Y-44906247D01*
X36250000Y-44693753D01*
X36227231Y-44550000D01*
X37450000Y-44550000D01*
X37450000Y-43704734D01*
X37449999Y-43704731D01*
X37439784Y-43560041D01*
X37439782Y-43560031D01*
X37385686Y-43319834D01*
X37385684Y-43319827D01*
X37293755Y-43091414D01*
X37166379Y-42880710D01*
X37166372Y-42880700D01*
X37006846Y-42693153D01*
X36819299Y-42533627D01*
X36819289Y-42533620D01*
X36608585Y-42406244D01*
X36380172Y-42314315D01*
X36380165Y-42314313D01*
X36139968Y-42260217D01*
X36139958Y-42260215D01*
X35995268Y-42250000D01*
X35150000Y-42250000D01*
X35150000Y-43472768D01*
X35006247Y-43450000D01*
X34793753Y-43450000D01*
X34650000Y-43472768D01*
X34650000Y-42250000D01*
X33804731Y-42250000D01*
X33660041Y-42260215D01*
X33660031Y-42260217D01*
X33419834Y-42314313D01*
X33419827Y-42314315D01*
X33191414Y-42406244D01*
X32980710Y-42533620D01*
X32980700Y-42533627D01*
X32793153Y-42693153D01*
X32633627Y-42880700D01*
X32633620Y-42880710D01*
X32506244Y-43091414D01*
X32414315Y-43319827D01*
X32414313Y-43319834D01*
X32360217Y-43560031D01*
X32360215Y-43560041D01*
X32350000Y-43704731D01*
X24770500Y-43704731D01*
X24770500Y-41118315D01*
X25469500Y-41118315D01*
X25469500Y-41691669D01*
X25469501Y-41691687D01*
X25479825Y-41792752D01*
X25479826Y-41792755D01*
X25534091Y-41956515D01*
X25535654Y-41959867D01*
X25538470Y-41965051D01*
X25690950Y-42286984D01*
X25701857Y-42355998D01*
X25700099Y-42366199D01*
X25661454Y-42545424D01*
X25658889Y-42557793D01*
X25658442Y-42557700D01*
X25655341Y-42571415D01*
X25638915Y-42621969D01*
X25619678Y-42804999D01*
X25619678Y-42805000D01*
X25638915Y-42988029D01*
X25638916Y-42988032D01*
X25695783Y-43163053D01*
X25695786Y-43163059D01*
X25787805Y-43322440D01*
X25897327Y-43444077D01*
X25910949Y-43459206D01*
X25910951Y-43459208D01*
X26059834Y-43567378D01*
X26059835Y-43567378D01*
X26059839Y-43567381D01*
X26196953Y-43628428D01*
X26227961Y-43642234D01*
X26227966Y-43642236D01*
X26407981Y-43680500D01*
X26592019Y-43680500D01*
X26772034Y-43642236D01*
X26940161Y-43567381D01*
X27089050Y-43459207D01*
X27212195Y-43322440D01*
X27304214Y-43163059D01*
X27361085Y-42988029D01*
X27380322Y-42805000D01*
X27361085Y-42621971D01*
X27326654Y-42516005D01*
X27323080Y-42502431D01*
X27318669Y-42480754D01*
X27282801Y-42380499D01*
X27255774Y-42304953D01*
X27251726Y-42235201D01*
X27260462Y-42210104D01*
X27280263Y-42168298D01*
X27326748Y-42116139D01*
X27394055Y-42097391D01*
X27460814Y-42118008D01*
X27480008Y-42133698D01*
X27571650Y-42225340D01*
X27718484Y-42315908D01*
X27882247Y-42370174D01*
X27983323Y-42380500D01*
X28581676Y-42380499D01*
X28581684Y-42380498D01*
X28581687Y-42380498D01*
X28637030Y-42374844D01*
X28682753Y-42370174D01*
X28846516Y-42315908D01*
X28993350Y-42225340D01*
X29115340Y-42103350D01*
X29205908Y-41956516D01*
X29260174Y-41792753D01*
X29270500Y-41691677D01*
X29270499Y-41118324D01*
X29270389Y-41117252D01*
X29260174Y-41017250D01*
X29260174Y-41017248D01*
X29253712Y-40997748D01*
X29234559Y-40939949D01*
X29230654Y-40925161D01*
X29225641Y-40899981D01*
X29072247Y-40465425D01*
X29063518Y-40440695D01*
X29059765Y-40370926D01*
X29063011Y-40359609D01*
X29191371Y-39981075D01*
X29203266Y-39955797D01*
X29205908Y-39951516D01*
X29260174Y-39787753D01*
X29270500Y-39686677D01*
X29270499Y-39113324D01*
X29260174Y-39012247D01*
X29205908Y-38848484D01*
X29115340Y-38701650D01*
X28993350Y-38579660D01*
X28902129Y-38523395D01*
X28846518Y-38489093D01*
X28846513Y-38489091D01*
X28845069Y-38488612D01*
X28682753Y-38434826D01*
X28682751Y-38434825D01*
X28581678Y-38424500D01*
X27908330Y-38424500D01*
X27908312Y-38424501D01*
X27807247Y-38434825D01*
X27643484Y-38489092D01*
X27643481Y-38489093D01*
X27496648Y-38579661D01*
X27457326Y-38618983D01*
X27396003Y-38652468D01*
X27326311Y-38647482D01*
X27281965Y-38618982D01*
X27243038Y-38580055D01*
X27243034Y-38580052D01*
X27096311Y-38489551D01*
X27096300Y-38489546D01*
X26932652Y-38435319D01*
X26831654Y-38425000D01*
X26745000Y-38425000D01*
X26745000Y-39276000D01*
X26725315Y-39343039D01*
X26672511Y-39388794D01*
X26621000Y-39400000D01*
X26495000Y-39400000D01*
X26495000Y-39526000D01*
X26475315Y-39593039D01*
X26422511Y-39638794D01*
X26371000Y-39650000D01*
X25470001Y-39650000D01*
X25470001Y-39686654D01*
X25480319Y-39787652D01*
X25534546Y-39951300D01*
X25534551Y-39951311D01*
X25625052Y-40098034D01*
X25625055Y-40098038D01*
X25746961Y-40219944D01*
X25746965Y-40219947D01*
X25871348Y-40296668D01*
X25918073Y-40348616D01*
X25929294Y-40417578D01*
X25901451Y-40481660D01*
X25871348Y-40507744D01*
X25746653Y-40584657D01*
X25746649Y-40584660D01*
X25624661Y-40706648D01*
X25534093Y-40853481D01*
X25534091Y-40853486D01*
X25517974Y-40902124D01*
X25479826Y-41017247D01*
X25479826Y-41017248D01*
X25479825Y-41017248D01*
X25469500Y-41118315D01*
X24770500Y-41118315D01*
X24770500Y-39113345D01*
X25470000Y-39113345D01*
X25470000Y-39150000D01*
X26245000Y-39150000D01*
X26245000Y-38425000D01*
X26244999Y-38424999D01*
X26158360Y-38425000D01*
X26158343Y-38425001D01*
X26057347Y-38435319D01*
X25893699Y-38489546D01*
X25893688Y-38489551D01*
X25746965Y-38580052D01*
X25746961Y-38580055D01*
X25625055Y-38701961D01*
X25625052Y-38701965D01*
X25534551Y-38848688D01*
X25534546Y-38848699D01*
X25480319Y-39012347D01*
X25470000Y-39113345D01*
X24770500Y-39113345D01*
X24770500Y-38443051D01*
X24770649Y-38436967D01*
X24779853Y-38249617D01*
X24788015Y-38083465D01*
X24789208Y-38071359D01*
X24824977Y-37830225D01*
X24836560Y-37752135D01*
X30799500Y-37752135D01*
X30799500Y-39847870D01*
X30799501Y-39847876D01*
X30805908Y-39907483D01*
X30856202Y-40042328D01*
X30856206Y-40042335D01*
X30942452Y-40157544D01*
X30942455Y-40157547D01*
X31057664Y-40243793D01*
X31057671Y-40243797D01*
X31192517Y-40294091D01*
X31192516Y-40294091D01*
X31199444Y-40294835D01*
X31252127Y-40300500D01*
X32247872Y-40300499D01*
X32307483Y-40294091D01*
X32442331Y-40243796D01*
X32557546Y-40157546D01*
X32643796Y-40042331D01*
X32694091Y-39907483D01*
X32700500Y-39847873D01*
X32700499Y-37752135D01*
X44299500Y-37752135D01*
X44299500Y-39847870D01*
X44299501Y-39847876D01*
X44305908Y-39907483D01*
X44356202Y-40042328D01*
X44356206Y-40042335D01*
X44442452Y-40157544D01*
X44442455Y-40157547D01*
X44557664Y-40243793D01*
X44557671Y-40243797D01*
X44692517Y-40294091D01*
X44692516Y-40294091D01*
X44699444Y-40294835D01*
X44752127Y-40300500D01*
X45747872Y-40300499D01*
X45807483Y-40294091D01*
X45942331Y-40243796D01*
X46057546Y-40157546D01*
X46143796Y-40042331D01*
X46181963Y-39939999D01*
X48764357Y-39939999D01*
X48764357Y-39940000D01*
X48784884Y-40161535D01*
X48784885Y-40161537D01*
X48845769Y-40375523D01*
X48845775Y-40375538D01*
X48944938Y-40574683D01*
X48944943Y-40574691D01*
X49079020Y-40752238D01*
X49243437Y-40902123D01*
X49243439Y-40902125D01*
X49432595Y-41019245D01*
X49432596Y-41019245D01*
X49432599Y-41019247D01*
X49640060Y-41099618D01*
X49858757Y-41140500D01*
X49858759Y-41140500D01*
X50081241Y-41140500D01*
X50081243Y-41140500D01*
X50299940Y-41099618D01*
X50507401Y-41019247D01*
X50696562Y-40902124D01*
X50805866Y-40802479D01*
X50865218Y-40748374D01*
X50866363Y-40749630D01*
X50919314Y-40717435D01*
X50989162Y-40719174D01*
X51046981Y-40758400D01*
X51074415Y-40822659D01*
X51062753Y-40891548D01*
X51054379Y-40906134D01*
X51016829Y-40962332D01*
X50886349Y-41226919D01*
X50791521Y-41506269D01*
X50791518Y-41506283D01*
X50733968Y-41795609D01*
X50733964Y-41795636D01*
X50714671Y-42089992D01*
X50714671Y-42090007D01*
X50733964Y-42384363D01*
X50733965Y-42384373D01*
X50733966Y-42384380D01*
X50765999Y-42545425D01*
X50791518Y-42673716D01*
X50791521Y-42673730D01*
X50886349Y-42953080D01*
X51016825Y-43217660D01*
X51016829Y-43217667D01*
X51180725Y-43462955D01*
X51375241Y-43684758D01*
X51597044Y-43879274D01*
X51842332Y-44043170D01*
X51842335Y-44043172D01*
X52106923Y-44173652D01*
X52386278Y-44268481D01*
X52675620Y-44326034D01*
X52703888Y-44327886D01*
X52969993Y-44345329D01*
X52970000Y-44345329D01*
X52970007Y-44345329D01*
X53205675Y-44329881D01*
X53264380Y-44326034D01*
X53553722Y-44268481D01*
X53833077Y-44173652D01*
X54097665Y-44043172D01*
X54342957Y-43879273D01*
X54564758Y-43684758D01*
X54759273Y-43462957D01*
X54923172Y-43217665D01*
X55053652Y-42953077D01*
X55148481Y-42673722D01*
X55206034Y-42384380D01*
X55216458Y-42225340D01*
X55225329Y-42090007D01*
X55225329Y-42089992D01*
X55206035Y-41795636D01*
X55206034Y-41795620D01*
X55148481Y-41506278D01*
X55053652Y-41226923D01*
X54963813Y-41044747D01*
X55719500Y-41044747D01*
X55719500Y-43135238D01*
X55719501Y-43135253D01*
X55725986Y-43217660D01*
X55730070Y-43269553D01*
X55777859Y-43459207D01*
X55785949Y-43491315D01*
X55880528Y-43699537D01*
X55880531Y-43699543D01*
X56010759Y-43887514D01*
X56010763Y-43887519D01*
X56010766Y-43887523D01*
X56172477Y-44049234D01*
X56172481Y-44049237D01*
X56172485Y-44049240D01*
X56360456Y-44179468D01*
X56360462Y-44179471D01*
X56360463Y-44179471D01*
X56360464Y-44179472D01*
X56568684Y-44274051D01*
X56790447Y-44329930D01*
X56924753Y-44340500D01*
X59015246Y-44340499D01*
X59149553Y-44329930D01*
X59371316Y-44274051D01*
X59579536Y-44179472D01*
X59579538Y-44179470D01*
X59579543Y-44179468D01*
X59767514Y-44049240D01*
X59767523Y-44049234D01*
X59929234Y-43887523D01*
X60010462Y-43770278D01*
X60059468Y-43699543D01*
X60059471Y-43699537D01*
X60059472Y-43699536D01*
X60154051Y-43491316D01*
X60209930Y-43269553D01*
X60220500Y-43135247D01*
X60220499Y-41110541D01*
X60240184Y-41043503D01*
X60292987Y-40997748D01*
X60362146Y-40987804D01*
X60409773Y-41005113D01*
X60432599Y-41019247D01*
X60640060Y-41099618D01*
X60858757Y-41140500D01*
X60858759Y-41140500D01*
X61081241Y-41140500D01*
X61081243Y-41140500D01*
X61299940Y-41099618D01*
X61507401Y-41019247D01*
X61696562Y-40902124D01*
X61836282Y-40774751D01*
X61860979Y-40752238D01*
X61862949Y-40749630D01*
X61995058Y-40574689D01*
X62011770Y-40541128D01*
X62094224Y-40375538D01*
X62094223Y-40375538D01*
X62094229Y-40375528D01*
X62155115Y-40161536D01*
X62175643Y-39940000D01*
X62167105Y-39847864D01*
X62155115Y-39718464D01*
X62155114Y-39718462D01*
X62146072Y-39686684D01*
X62094229Y-39504472D01*
X62094224Y-39504461D01*
X62001549Y-39318345D01*
X62870000Y-39318345D01*
X62870000Y-39355000D01*
X63645000Y-39355000D01*
X63645000Y-38630000D01*
X63644999Y-38629999D01*
X63558360Y-38630000D01*
X63558343Y-38630001D01*
X63457347Y-38640319D01*
X63293699Y-38694546D01*
X63293688Y-38694551D01*
X63146965Y-38785052D01*
X63146961Y-38785055D01*
X63025055Y-38906961D01*
X63025052Y-38906965D01*
X62934551Y-39053688D01*
X62934546Y-39053699D01*
X62880319Y-39217347D01*
X62870000Y-39318345D01*
X62001549Y-39318345D01*
X61995061Y-39305316D01*
X61995056Y-39305308D01*
X61860979Y-39127761D01*
X61696562Y-38977876D01*
X61696560Y-38977874D01*
X61507404Y-38860754D01*
X61507398Y-38860752D01*
X61498921Y-38857468D01*
X61299940Y-38780382D01*
X61081243Y-38739500D01*
X60858757Y-38739500D01*
X60640060Y-38780382D01*
X60527516Y-38823982D01*
X60432601Y-38860752D01*
X60432595Y-38860754D01*
X60243439Y-38977874D01*
X60243437Y-38977876D01*
X60079020Y-39127761D01*
X59944943Y-39305308D01*
X59944938Y-39305316D01*
X59845775Y-39504461D01*
X59845769Y-39504476D01*
X59784885Y-39718462D01*
X59784885Y-39718464D01*
X59767507Y-39905997D01*
X59741721Y-39970934D01*
X59684920Y-40011621D01*
X59615139Y-40015141D01*
X59582844Y-40002405D01*
X59579535Y-40000527D01*
X59446281Y-39940000D01*
X59371316Y-39905949D01*
X59149553Y-39850070D01*
X59015247Y-39839500D01*
X59015245Y-39839500D01*
X56924761Y-39839500D01*
X56924746Y-39839501D01*
X56790447Y-39850070D01*
X56568684Y-39905949D01*
X56360462Y-40000528D01*
X56360456Y-40000531D01*
X56172485Y-40130759D01*
X56172473Y-40130769D01*
X56010769Y-40292473D01*
X56010759Y-40292485D01*
X55880531Y-40480456D01*
X55880528Y-40480462D01*
X55785949Y-40688684D01*
X55730070Y-40910447D01*
X55719500Y-41044747D01*
X54963813Y-41044747D01*
X54923172Y-40962336D01*
X54923169Y-40962332D01*
X54850438Y-40853481D01*
X54759273Y-40717043D01*
X54665597Y-40610226D01*
X54564758Y-40495241D01*
X54342955Y-40300725D01*
X54097667Y-40136829D01*
X54097660Y-40136825D01*
X53833080Y-40006349D01*
X53553730Y-39911521D01*
X53553724Y-39911519D01*
X53553722Y-39911519D01*
X53264380Y-39853966D01*
X53264373Y-39853965D01*
X53264363Y-39853964D01*
X52970007Y-39834671D01*
X52969993Y-39834671D01*
X52675636Y-39853964D01*
X52675624Y-39853965D01*
X52675620Y-39853966D01*
X52675612Y-39853967D01*
X52675609Y-39853968D01*
X52386283Y-39911518D01*
X52386269Y-39911521D01*
X52106919Y-40006349D01*
X51842334Y-40136828D01*
X51597041Y-40300728D01*
X51375241Y-40495241D01*
X51217536Y-40675069D01*
X51158534Y-40712493D01*
X51088665Y-40712077D01*
X51030113Y-40673953D01*
X51001467Y-40610226D01*
X51011822Y-40541128D01*
X51013308Y-40538038D01*
X51017560Y-40529500D01*
X51094229Y-40375528D01*
X51155115Y-40161536D01*
X51175643Y-39940000D01*
X51167105Y-39847864D01*
X51155115Y-39718464D01*
X51155114Y-39718462D01*
X51146072Y-39686684D01*
X51094229Y-39504472D01*
X51094224Y-39504461D01*
X50995061Y-39305316D01*
X50995056Y-39305308D01*
X50860979Y-39127761D01*
X50696562Y-38977876D01*
X50696560Y-38977874D01*
X50507404Y-38860754D01*
X50507398Y-38860752D01*
X50498921Y-38857468D01*
X50299940Y-38780382D01*
X50081243Y-38739500D01*
X49858757Y-38739500D01*
X49640060Y-38780382D01*
X49527516Y-38823982D01*
X49432601Y-38860752D01*
X49432595Y-38860754D01*
X49243439Y-38977874D01*
X49243437Y-38977876D01*
X49079020Y-39127761D01*
X48944943Y-39305308D01*
X48944938Y-39305316D01*
X48845775Y-39504461D01*
X48845769Y-39504476D01*
X48784885Y-39718462D01*
X48784884Y-39718464D01*
X48764357Y-39939999D01*
X46181963Y-39939999D01*
X46194091Y-39907483D01*
X46200500Y-39847873D01*
X46200499Y-37752128D01*
X46194091Y-37692517D01*
X46143796Y-37557669D01*
X46143795Y-37557668D01*
X46143793Y-37557664D01*
X46057547Y-37442455D01*
X46057544Y-37442452D01*
X45942335Y-37356206D01*
X45942328Y-37356202D01*
X45807482Y-37305908D01*
X45807483Y-37305908D01*
X45747883Y-37299501D01*
X45747881Y-37299500D01*
X45747873Y-37299500D01*
X45747864Y-37299500D01*
X44752129Y-37299500D01*
X44752123Y-37299501D01*
X44692516Y-37305908D01*
X44557671Y-37356202D01*
X44557664Y-37356206D01*
X44442455Y-37442452D01*
X44442452Y-37442455D01*
X44356206Y-37557664D01*
X44356202Y-37557671D01*
X44305908Y-37692517D01*
X44299501Y-37752116D01*
X44299501Y-37752123D01*
X44299500Y-37752135D01*
X32700499Y-37752135D01*
X32700499Y-37752128D01*
X32694091Y-37692517D01*
X32643796Y-37557669D01*
X32643795Y-37557668D01*
X32643793Y-37557664D01*
X32557547Y-37442455D01*
X32557544Y-37442452D01*
X32442335Y-37356206D01*
X32442328Y-37356202D01*
X32307482Y-37305908D01*
X32307483Y-37305908D01*
X32247883Y-37299501D01*
X32247881Y-37299500D01*
X32247873Y-37299500D01*
X32247864Y-37299500D01*
X31252129Y-37299500D01*
X31252123Y-37299501D01*
X31192516Y-37305908D01*
X31057671Y-37356202D01*
X31057664Y-37356206D01*
X30942455Y-37442452D01*
X30942452Y-37442455D01*
X30856206Y-37557664D01*
X30856202Y-37557671D01*
X30805908Y-37692517D01*
X30799501Y-37752116D01*
X30799501Y-37752123D01*
X30799500Y-37752135D01*
X24836560Y-37752135D01*
X24840692Y-37724278D01*
X24843061Y-37712367D01*
X24928322Y-37371986D01*
X24931852Y-37360353D01*
X24933052Y-37357001D01*
X25028587Y-37089999D01*
X48764357Y-37089999D01*
X48764357Y-37090000D01*
X48784884Y-37311535D01*
X48784885Y-37311537D01*
X48845769Y-37525523D01*
X48845775Y-37525538D01*
X48944938Y-37724683D01*
X48944943Y-37724691D01*
X49079020Y-37902238D01*
X49243437Y-38052123D01*
X49243439Y-38052125D01*
X49432595Y-38169245D01*
X49432596Y-38169245D01*
X49432599Y-38169247D01*
X49640060Y-38249618D01*
X49858757Y-38290500D01*
X49858759Y-38290500D01*
X50081241Y-38290500D01*
X50081243Y-38290500D01*
X50299940Y-38249618D01*
X50507401Y-38169247D01*
X50696562Y-38052124D01*
X50860981Y-37902236D01*
X50995058Y-37724689D01*
X51094229Y-37525528D01*
X51155115Y-37311536D01*
X51175643Y-37090000D01*
X51175643Y-37089999D01*
X59764357Y-37089999D01*
X59764357Y-37090000D01*
X59784884Y-37311535D01*
X59784885Y-37311537D01*
X59845769Y-37525523D01*
X59845775Y-37525538D01*
X59944938Y-37724683D01*
X59944943Y-37724691D01*
X60079020Y-37902238D01*
X60243437Y-38052123D01*
X60243439Y-38052125D01*
X60432595Y-38169245D01*
X60432596Y-38169245D01*
X60432599Y-38169247D01*
X60640060Y-38249618D01*
X60858757Y-38290500D01*
X60858759Y-38290500D01*
X61081241Y-38290500D01*
X61081243Y-38290500D01*
X61299940Y-38249618D01*
X61507401Y-38169247D01*
X61696562Y-38052124D01*
X61860981Y-37902236D01*
X61995058Y-37724689D01*
X62094229Y-37525528D01*
X62155115Y-37311536D01*
X62175643Y-37090000D01*
X62155115Y-36868464D01*
X62094229Y-36654472D01*
X62094224Y-36654461D01*
X61995061Y-36455316D01*
X61995056Y-36455308D01*
X61860979Y-36277761D01*
X61696562Y-36127876D01*
X61696560Y-36127874D01*
X61507404Y-36010754D01*
X61507398Y-36010752D01*
X61299940Y-35930382D01*
X61081243Y-35889500D01*
X60858757Y-35889500D01*
X60640060Y-35930382D01*
X60508864Y-35981207D01*
X60432601Y-36010752D01*
X60432595Y-36010754D01*
X60243439Y-36127874D01*
X60243437Y-36127876D01*
X60079020Y-36277761D01*
X59944943Y-36455308D01*
X59944938Y-36455316D01*
X59845775Y-36654461D01*
X59845769Y-36654476D01*
X59784885Y-36868462D01*
X59784884Y-36868464D01*
X59764357Y-37089999D01*
X51175643Y-37089999D01*
X51155115Y-36868464D01*
X51094229Y-36654472D01*
X51094224Y-36654461D01*
X50995061Y-36455316D01*
X50995056Y-36455308D01*
X50860979Y-36277761D01*
X50696562Y-36127876D01*
X50696560Y-36127874D01*
X50507404Y-36010754D01*
X50507398Y-36010752D01*
X50299940Y-35930382D01*
X50081243Y-35889500D01*
X49858757Y-35889500D01*
X49640060Y-35930382D01*
X49508864Y-35981207D01*
X49432601Y-36010752D01*
X49432595Y-36010754D01*
X49243439Y-36127874D01*
X49243437Y-36127876D01*
X49079020Y-36277761D01*
X48944943Y-36455308D01*
X48944938Y-36455316D01*
X48845775Y-36654461D01*
X48845769Y-36654476D01*
X48784885Y-36868462D01*
X48784884Y-36868464D01*
X48764357Y-37089999D01*
X25028587Y-37089999D01*
X25050055Y-37029999D01*
X25054710Y-37018762D01*
X25125796Y-36868462D01*
X25204735Y-36701557D01*
X25210454Y-36690857D01*
X25390851Y-36389884D01*
X25397594Y-36379791D01*
X25606630Y-36097939D01*
X25614333Y-36088554D01*
X25849983Y-35828553D01*
X25858553Y-35819983D01*
X26118554Y-35584333D01*
X26127939Y-35576630D01*
X26409791Y-35367594D01*
X26419884Y-35360851D01*
X26720857Y-35180454D01*
X26731557Y-35174735D01*
X27048762Y-35024710D01*
X27059999Y-35020055D01*
X27390361Y-34901849D01*
X27401986Y-34898322D01*
X27742367Y-34813061D01*
X27754278Y-34810692D01*
X28101359Y-34759207D01*
X28113465Y-34758015D01*
X28466961Y-34740648D01*
X28473045Y-34740500D01*
X28527232Y-34740500D01*
X28527525Y-34740475D01*
X63808170Y-34725523D01*
X63808241Y-34725530D01*
G37*
G04 #@! TD.AperFunction*
G04 #@! TA.AperFunction,Conductor*
G36*
X24975703Y-92253978D02*
G01*
X25013477Y-92312756D01*
X25016302Y-92324450D01*
X25056983Y-92537705D01*
X25073270Y-92623083D01*
X25170497Y-92922316D01*
X25170499Y-92922321D01*
X25304461Y-93207003D01*
X25304464Y-93207009D01*
X25473051Y-93472661D01*
X25473054Y-93472665D01*
X25673606Y-93715090D01*
X25673608Y-93715092D01*
X25673610Y-93715094D01*
X25848067Y-93878920D01*
X25902968Y-93930476D01*
X25902975Y-93930482D01*
X25981331Y-93987410D01*
X26023998Y-94042740D01*
X26030456Y-94065598D01*
X26160547Y-94782797D01*
X26206271Y-95034881D01*
X26207509Y-95041703D01*
X26209500Y-95063834D01*
X26209500Y-98743566D01*
X26207162Y-98767532D01*
X26018417Y-99725669D01*
X25986146Y-99787640D01*
X25969642Y-99802019D01*
X25862970Y-99879522D01*
X25862968Y-99879523D01*
X25862965Y-99879526D01*
X25633608Y-100094907D01*
X25633606Y-100094909D01*
X25433054Y-100337334D01*
X25433051Y-100337338D01*
X25264464Y-100602990D01*
X25264461Y-100602996D01*
X25130499Y-100887678D01*
X25130497Y-100887683D01*
X25033270Y-101186916D01*
X25033269Y-101186920D01*
X25033269Y-101186921D01*
X25016303Y-101275859D01*
X24984406Y-101338022D01*
X24923963Y-101373072D01*
X24854167Y-101369880D01*
X24797175Y-101329460D01*
X24771084Y-101264645D01*
X24770500Y-101252623D01*
X24770500Y-92347691D01*
X24790185Y-92280652D01*
X24842989Y-92234897D01*
X24912147Y-92224953D01*
X24975703Y-92253978D01*
G37*
G04 #@! TD.AperFunction*
G04 #@! TA.AperFunction,Conductor*
G36*
X30030711Y-92761439D02*
G01*
X30082187Y-92808683D01*
X30100000Y-92872716D01*
X30100000Y-93204719D01*
X30110482Y-93337906D01*
X30110483Y-93337912D01*
X30165898Y-93557829D01*
X30165899Y-93557832D01*
X30259695Y-93764330D01*
X30259698Y-93764336D01*
X30388851Y-93950758D01*
X30388861Y-93950770D01*
X30549229Y-94111138D01*
X30549241Y-94111148D01*
X30735663Y-94240301D01*
X30735669Y-94240304D01*
X30942167Y-94334100D01*
X30942170Y-94334101D01*
X31162087Y-94389516D01*
X31162093Y-94389517D01*
X31295280Y-94399999D01*
X31295294Y-94400000D01*
X32250000Y-94400000D01*
X32250000Y-93327231D01*
X32393753Y-93350000D01*
X32606247Y-93350000D01*
X32750000Y-93327231D01*
X32750000Y-94400000D01*
X33704706Y-94400000D01*
X33704719Y-94399999D01*
X33837906Y-94389517D01*
X33837912Y-94389516D01*
X34057829Y-94334101D01*
X34057832Y-94334100D01*
X34264330Y-94240304D01*
X34264336Y-94240301D01*
X34439884Y-94118682D01*
X34506201Y-94096685D01*
X34573882Y-94114033D01*
X34621440Y-94165219D01*
X34634500Y-94220610D01*
X34634500Y-99623228D01*
X34614815Y-99690267D01*
X34562011Y-99736022D01*
X34492853Y-99745966D01*
X34429297Y-99716941D01*
X34422822Y-99710912D01*
X34410772Y-99698862D01*
X34410758Y-99698851D01*
X34224336Y-99569698D01*
X34224330Y-99569695D01*
X34017832Y-99475899D01*
X34017829Y-99475898D01*
X33797912Y-99420483D01*
X33797906Y-99420482D01*
X33664719Y-99410000D01*
X32710000Y-99410000D01*
X32710000Y-100482768D01*
X32566247Y-100460000D01*
X32353753Y-100460000D01*
X32210000Y-100482768D01*
X32210000Y-99410000D01*
X31255280Y-99410000D01*
X31122093Y-99420482D01*
X31122087Y-99420483D01*
X30902170Y-99475898D01*
X30902167Y-99475899D01*
X30695669Y-99569695D01*
X30695663Y-99569698D01*
X30509241Y-99698851D01*
X30509229Y-99698861D01*
X30348861Y-99859229D01*
X30348851Y-99859241D01*
X30219698Y-100045663D01*
X30219695Y-100045669D01*
X30125899Y-100252167D01*
X30125898Y-100252170D01*
X30070483Y-100472087D01*
X30070482Y-100472093D01*
X30060000Y-100605280D01*
X30060000Y-100937283D01*
X30040315Y-101004322D01*
X29987511Y-101050077D01*
X29918353Y-101060021D01*
X29854797Y-101030996D01*
X29818069Y-100975601D01*
X29805618Y-100937283D01*
X29789503Y-100887685D01*
X29655537Y-100602993D01*
X29538130Y-100417989D01*
X29486948Y-100337338D01*
X29486945Y-100337334D01*
X29286393Y-100094909D01*
X29286391Y-100094907D01*
X29057033Y-99879525D01*
X29057029Y-99879521D01*
X28950359Y-99802021D01*
X28907693Y-99746691D01*
X28901582Y-99725669D01*
X28900501Y-99720183D01*
X28743354Y-98922438D01*
X28712838Y-98767527D01*
X28710500Y-98743561D01*
X28710500Y-95069377D01*
X28713216Y-95043567D01*
X28715064Y-95034882D01*
X28913315Y-94103295D01*
X28946521Y-94041824D01*
X28961706Y-94028795D01*
X29097030Y-93930478D01*
X29326390Y-93715094D01*
X29526947Y-93472663D01*
X29695537Y-93207007D01*
X29829503Y-92922315D01*
X29858069Y-92834397D01*
X29897506Y-92776723D01*
X29961865Y-92749524D01*
X30030711Y-92761439D01*
G37*
G04 #@! TD.AperFunction*
G04 #@! TA.AperFunction,Conductor*
G36*
X63963639Y-96099275D02*
G01*
X64029465Y-96213289D01*
X64122557Y-96306381D01*
X64236571Y-96372207D01*
X64300153Y-96389244D01*
X63668191Y-97021207D01*
X63744159Y-97074401D01*
X63787783Y-97128978D01*
X63794976Y-97198477D01*
X63763454Y-97260831D01*
X63744159Y-97277551D01*
X63558158Y-97407790D01*
X63391069Y-97574879D01*
X63261139Y-97760440D01*
X63206562Y-97804065D01*
X63137064Y-97811259D01*
X63074709Y-97779736D01*
X63057989Y-97760440D01*
X62928058Y-97574879D01*
X62760966Y-97407788D01*
X62760960Y-97407783D01*
X62575406Y-97277857D01*
X62531781Y-97223280D01*
X62524587Y-97153782D01*
X62556110Y-97091427D01*
X62575406Y-97074707D01*
X62651812Y-97021207D01*
X62760965Y-96944777D01*
X62928059Y-96777683D01*
X63058294Y-96591687D01*
X63112871Y-96548063D01*
X63182369Y-96540869D01*
X63244724Y-96572392D01*
X63261443Y-96591687D01*
X63314636Y-96667654D01*
X63314637Y-96667654D01*
X63946601Y-96035690D01*
X63963639Y-96099275D01*
G37*
G04 #@! TD.AperFunction*
G04 #@! TA.AperFunction,Conductor*
G36*
X60025640Y-92890185D02*
G01*
X60069965Y-92939964D01*
X60440612Y-93696839D01*
X60526428Y-93872077D01*
X60539064Y-93926613D01*
X60539064Y-94264151D01*
X60539065Y-94264158D01*
X60545472Y-94323765D01*
X60595766Y-94458610D01*
X60595770Y-94458617D01*
X60682016Y-94573826D01*
X60682019Y-94573829D01*
X60797228Y-94660075D01*
X60797235Y-94660079D01*
X60928645Y-94709092D01*
X60984579Y-94750963D01*
X61008996Y-94816427D01*
X60994144Y-94884700D01*
X60972994Y-94912955D01*
X60851067Y-95034882D01*
X60715529Y-95228451D01*
X60715528Y-95228453D01*
X60615662Y-95442617D01*
X60615658Y-95442626D01*
X60554502Y-95670868D01*
X60554500Y-95670878D01*
X60533905Y-95906281D01*
X60533905Y-95906282D01*
X60554500Y-96141685D01*
X60554502Y-96141695D01*
X60615658Y-96369937D01*
X60615663Y-96369951D01*
X60661429Y-96468096D01*
X60671921Y-96537173D01*
X60643401Y-96600957D01*
X60584924Y-96639196D01*
X60549047Y-96644500D01*
X58737889Y-96644500D01*
X58670850Y-96624815D01*
X58625095Y-96572011D01*
X58615151Y-96502853D01*
X58634786Y-96451610D01*
X58656629Y-96418918D01*
X58656632Y-96418914D01*
X58732051Y-96236835D01*
X58750978Y-96141685D01*
X58770500Y-96043543D01*
X58770500Y-95846456D01*
X58732052Y-95653170D01*
X58732051Y-95653169D01*
X58732051Y-95653165D01*
X58732049Y-95653160D01*
X58656635Y-95471092D01*
X58656628Y-95471079D01*
X58547139Y-95307218D01*
X58547136Y-95307214D01*
X58407785Y-95167863D01*
X58407781Y-95167860D01*
X58243920Y-95058371D01*
X58243907Y-95058364D01*
X58061839Y-94982950D01*
X58061829Y-94982947D01*
X57868543Y-94944500D01*
X57868541Y-94944500D01*
X56671459Y-94944500D01*
X56671457Y-94944500D01*
X56478170Y-94982947D01*
X56478160Y-94982950D01*
X56296092Y-95058364D01*
X56296079Y-95058371D01*
X56132218Y-95167860D01*
X56132214Y-95167863D01*
X55992863Y-95307214D01*
X55992860Y-95307218D01*
X55883371Y-95471079D01*
X55883364Y-95471092D01*
X55807950Y-95653160D01*
X55807947Y-95653170D01*
X55769500Y-95846456D01*
X55769500Y-96025547D01*
X55749815Y-96092586D01*
X55697011Y-96138341D01*
X55627853Y-96148285D01*
X55564297Y-96119260D01*
X55557819Y-96113228D01*
X54691819Y-95247228D01*
X54658334Y-95185905D01*
X54655500Y-95159547D01*
X54655500Y-93178395D01*
X54653891Y-93170306D01*
X54660120Y-93100715D01*
X54702983Y-93045538D01*
X54768873Y-93022294D01*
X54801284Y-93024825D01*
X54827981Y-93030500D01*
X54827984Y-93030500D01*
X55012019Y-93030500D01*
X55192034Y-92992236D01*
X55192042Y-92992232D01*
X55198218Y-92990226D01*
X55198388Y-92990749D01*
X55210807Y-92986663D01*
X55693217Y-92880890D01*
X55762914Y-92885760D01*
X55818917Y-92927539D01*
X55843441Y-92992963D01*
X55834334Y-93049464D01*
X55807949Y-93113165D01*
X55807947Y-93113170D01*
X55769500Y-93306456D01*
X55769500Y-93306459D01*
X55769500Y-93503541D01*
X55769500Y-93503543D01*
X55769499Y-93503543D01*
X55807947Y-93696829D01*
X55807950Y-93696839D01*
X55883364Y-93878907D01*
X55883371Y-93878920D01*
X55992860Y-94042781D01*
X55992863Y-94042785D01*
X56132214Y-94182136D01*
X56132218Y-94182139D01*
X56296079Y-94291628D01*
X56296092Y-94291635D01*
X56478160Y-94367049D01*
X56478165Y-94367051D01*
X56478169Y-94367051D01*
X56478170Y-94367052D01*
X56671456Y-94405500D01*
X56671459Y-94405500D01*
X57868543Y-94405500D01*
X58005273Y-94378302D01*
X58061835Y-94367051D01*
X58243914Y-94291632D01*
X58407782Y-94182139D01*
X58547139Y-94042782D01*
X58656632Y-93878914D01*
X58732051Y-93696835D01*
X58759701Y-93557832D01*
X58770500Y-93503543D01*
X58770500Y-93306456D01*
X58732052Y-93113170D01*
X58732051Y-93113169D01*
X58732051Y-93113165D01*
X58702553Y-93041952D01*
X58695085Y-92972483D01*
X58726360Y-92910004D01*
X58786449Y-92874352D01*
X58817115Y-92870500D01*
X59958601Y-92870500D01*
X60025640Y-92890185D01*
G37*
G04 #@! TD.AperFunction*
G04 #@! TA.AperFunction,Conductor*
G36*
X63407982Y-94261699D02*
G01*
X63436237Y-94282851D01*
X63558163Y-94404777D01*
X63695902Y-94501223D01*
X63744159Y-94535013D01*
X63787783Y-94589590D01*
X63794976Y-94659089D01*
X63763454Y-94721443D01*
X63744158Y-94738163D01*
X63668191Y-94791355D01*
X63668190Y-94791355D01*
X64300154Y-95423319D01*
X64236571Y-95440357D01*
X64122557Y-95506183D01*
X64029465Y-95599275D01*
X63963639Y-95713289D01*
X63946601Y-95776872D01*
X63314637Y-95144908D01*
X63314636Y-95144909D01*
X63261444Y-95220877D01*
X63206867Y-95264502D01*
X63137369Y-95271696D01*
X63075014Y-95240173D01*
X63058294Y-95220877D01*
X63051314Y-95210909D01*
X62948332Y-95063834D01*
X62928060Y-95034882D01*
X62872096Y-94978918D01*
X62806131Y-94912953D01*
X62772648Y-94851633D01*
X62777632Y-94781941D01*
X62819503Y-94726007D01*
X62850479Y-94709092D01*
X62981895Y-94660078D01*
X63097110Y-94573828D01*
X63183360Y-94458613D01*
X63232374Y-94327198D01*
X63274245Y-94271266D01*
X63339709Y-94246848D01*
X63407982Y-94261699D01*
G37*
G04 #@! TD.AperFunction*
G04 #@! TA.AperFunction,Conductor*
G36*
X51630703Y-81450739D02*
G01*
X51637181Y-81456771D01*
X52008964Y-81828554D01*
X52033719Y-81863946D01*
X52261277Y-82353263D01*
X52263232Y-82357325D01*
X52265785Y-82363057D01*
X52270666Y-82371511D01*
X52273403Y-82376513D01*
X52280131Y-82389513D01*
X52283225Y-82394337D01*
X52283170Y-82394372D01*
X52288007Y-82401548D01*
X52357805Y-82522440D01*
X52480949Y-82659206D01*
X52480951Y-82659208D01*
X52629834Y-82767378D01*
X52629835Y-82767378D01*
X52629839Y-82767381D01*
X52766953Y-82828428D01*
X52797961Y-82842234D01*
X52797966Y-82842236D01*
X52977981Y-82880500D01*
X53162018Y-82880500D01*
X53162019Y-82880500D01*
X53269719Y-82857607D01*
X53339385Y-82862923D01*
X53395119Y-82905059D01*
X53419225Y-82970639D01*
X53419500Y-82978897D01*
X53419500Y-88878918D01*
X53419500Y-88878920D01*
X53419499Y-88878920D01*
X53448340Y-89023907D01*
X53448343Y-89023917D01*
X53504914Y-89160492D01*
X53537812Y-89209727D01*
X53537813Y-89209730D01*
X53587046Y-89283414D01*
X53587052Y-89283421D01*
X54872307Y-90568675D01*
X54889148Y-90589640D01*
X54892862Y-90595459D01*
X54892863Y-90595460D01*
X55330113Y-91103282D01*
X55358939Y-91166929D01*
X55348778Y-91236056D01*
X55302858Y-91288716D01*
X55235757Y-91308190D01*
X55221235Y-91307291D01*
X55044296Y-91285859D01*
X55033429Y-91284050D01*
X55012020Y-91279500D01*
X55012019Y-91279500D01*
X54996746Y-91279500D01*
X54985498Y-91278989D01*
X54963962Y-91277027D01*
X54962588Y-91276943D01*
X54962569Y-91276942D01*
X54874873Y-91278843D01*
X54865120Y-91279500D01*
X54827981Y-91279500D01*
X54647966Y-91317763D01*
X54647961Y-91317765D01*
X54479839Y-91392619D01*
X54479834Y-91392621D01*
X54330951Y-91500791D01*
X54330949Y-91500793D01*
X54207804Y-91637561D01*
X54115786Y-91796940D01*
X54115783Y-91796946D01*
X54058916Y-91971967D01*
X54058915Y-91971971D01*
X54055969Y-92000000D01*
X54046871Y-92086561D01*
X54020286Y-92151175D01*
X53962988Y-92191159D01*
X53893169Y-92193819D01*
X53835869Y-92161279D01*
X51461819Y-89787229D01*
X51428334Y-89725906D01*
X51425500Y-89699548D01*
X51425500Y-84780024D01*
X51433022Y-84737493D01*
X51617454Y-84232391D01*
X51630404Y-84191658D01*
X51630776Y-84188638D01*
X51635912Y-84165500D01*
X51646061Y-84134266D01*
X51661085Y-84088029D01*
X51680322Y-83905000D01*
X51661085Y-83721971D01*
X51625509Y-83612481D01*
X51622101Y-83599704D01*
X51617454Y-83577607D01*
X51443715Y-83101789D01*
X51433022Y-83072504D01*
X51425500Y-83029973D01*
X51425500Y-81544452D01*
X51445185Y-81477413D01*
X51497989Y-81431658D01*
X51567147Y-81421714D01*
X51630703Y-81450739D01*
G37*
G04 #@! TD.AperFunction*
G04 #@! TA.AperFunction,Conductor*
G36*
X42089202Y-44805135D02*
G01*
X42094212Y-44812557D01*
X42093773Y-44818810D01*
X41422049Y-46709827D01*
X41416051Y-46716476D01*
X41414772Y-46716994D01*
X40175578Y-47136084D01*
X40166643Y-47135489D01*
X40163557Y-47133274D01*
X39467689Y-46437406D01*
X39464262Y-46429133D01*
X39465613Y-46423675D01*
X40105720Y-45210416D01*
X40112611Y-45204699D01*
X40113721Y-45204415D01*
X42080413Y-44803430D01*
X42089202Y-44805135D01*
G37*
G04 #@! TD.AperFunction*
G04 #@! TA.AperFunction,Conductor*
G36*
X29425151Y-56464445D02*
G01*
X29429375Y-56467149D01*
X30119934Y-57157708D01*
X30123361Y-57165981D01*
X30119934Y-57174254D01*
X30114419Y-57177351D01*
X28571327Y-57551637D01*
X28562479Y-57550257D01*
X28557765Y-57544758D01*
X28271156Y-56855191D01*
X28271146Y-56846239D01*
X28557298Y-56156385D01*
X28563632Y-56150058D01*
X28572151Y-56149893D01*
X29425151Y-56464445D01*
G37*
G04 #@! TD.AperFunction*
G04 #@! TA.AperFunction,Conductor*
G36*
X44113420Y-44540033D02*
G01*
X44116151Y-44543013D01*
X44824245Y-45652121D01*
X44826083Y-45658417D01*
X44826083Y-46145070D01*
X44822656Y-46153343D01*
X44816286Y-46156614D01*
X43378563Y-46393587D01*
X43369842Y-46391551D01*
X43367516Y-46389342D01*
X42111938Y-44816210D01*
X42109455Y-44807606D01*
X42113783Y-44799767D01*
X42119562Y-44797311D01*
X44104773Y-44537708D01*
X44113420Y-44540033D01*
G37*
G04 #@! TD.AperFunction*
G04 #@! TA.AperFunction,Conductor*
G36*
X63379340Y-41326761D02*
G01*
X63853434Y-41502523D01*
X63860000Y-41508612D01*
X63860166Y-41508990D01*
X64052692Y-41970633D01*
X64052713Y-41979587D01*
X64047878Y-41985189D01*
X63303271Y-42428446D01*
X63294409Y-42429734D01*
X63289013Y-42426666D01*
X62948189Y-42085842D01*
X62944762Y-42077569D01*
X62946278Y-42071809D01*
X63365093Y-41331967D01*
X63372150Y-41326457D01*
X63379340Y-41326761D01*
G37*
G04 #@! TD.AperFunction*
G04 #@! TA.AperFunction,Conductor*
G36*
X28719138Y-74293428D02*
G01*
X28722216Y-74298863D01*
X28968817Y-75285271D01*
X28967499Y-75294129D01*
X28967473Y-75294170D01*
X27980007Y-76924478D01*
X27972790Y-76929779D01*
X27963939Y-76928424D01*
X27959993Y-76924478D01*
X26972526Y-75294170D01*
X26971171Y-75285319D01*
X26971182Y-75285271D01*
X27217784Y-74298863D01*
X27223115Y-74291668D01*
X27229135Y-74290001D01*
X28710865Y-74290001D01*
X28719138Y-74293428D01*
G37*
G04 #@! TD.AperFunction*
G04 #@! TA.AperFunction,Conductor*
G36*
X51256633Y-49719511D02*
G01*
X52954220Y-49937179D01*
X52961990Y-49941630D01*
X52964337Y-49950272D01*
X52963154Y-49954100D01*
X52181758Y-51485966D01*
X52174946Y-51491779D01*
X52173879Y-51492070D01*
X51144235Y-51721300D01*
X51135414Y-51719753D01*
X51133419Y-51718153D01*
X50086529Y-50671263D01*
X50083102Y-50662990D01*
X50086529Y-50654717D01*
X50087467Y-50653874D01*
X51247912Y-49722004D01*
X51256508Y-49719497D01*
X51256633Y-49719511D01*
G37*
G04 #@! TD.AperFunction*
G04 #@! TA.AperFunction,Conductor*
G36*
X64806683Y-59926665D02*
G01*
X65399049Y-60517639D01*
X65401600Y-60521456D01*
X65720082Y-61292709D01*
X65720073Y-61301664D01*
X65713734Y-61307989D01*
X65712052Y-61308539D01*
X64342923Y-61644014D01*
X64334072Y-61642654D01*
X64331866Y-61640923D01*
X63638277Y-60947334D01*
X63634850Y-60939061D01*
X63638277Y-60930788D01*
X63638854Y-60930248D01*
X64790735Y-59926127D01*
X64799220Y-59923275D01*
X64806683Y-59926665D01*
G37*
G04 #@! TD.AperFunction*
G04 #@! TA.AperFunction,Conductor*
G36*
X62504721Y-79847733D02*
G01*
X62504780Y-79847792D01*
X63556435Y-80914448D01*
X63559803Y-80922745D01*
X63559462Y-80925465D01*
X63173909Y-82487730D01*
X63168600Y-82494941D01*
X63159747Y-82496286D01*
X63158268Y-82495815D01*
X61850719Y-81981616D01*
X61844274Y-81975399D01*
X61843309Y-81971173D01*
X61789594Y-80551609D01*
X61792706Y-80543214D01*
X61792987Y-80542921D01*
X62488176Y-79847732D01*
X62496448Y-79844306D01*
X62504721Y-79847733D01*
G37*
G04 #@! TD.AperFunction*
G04 #@! TA.AperFunction,Conductor*
G36*
X56513581Y-78627263D02*
G01*
X57240224Y-78748370D01*
X57247821Y-78753111D01*
X57250000Y-78759911D01*
X57250000Y-79240088D01*
X57246573Y-79248361D01*
X57240223Y-79251629D01*
X56513586Y-79372735D01*
X56504863Y-79370715D01*
X56500122Y-79363117D01*
X56499963Y-79361225D01*
X56499666Y-79250000D01*
X56499000Y-79000000D01*
X56499963Y-78638773D01*
X56503412Y-78630510D01*
X56511694Y-78627105D01*
X56513581Y-78627263D01*
G37*
G04 #@! TD.AperFunction*
G04 #@! TA.AperFunction,Conductor*
G36*
X63411580Y-91990641D02*
G01*
X63417129Y-91993080D01*
X64744371Y-92576381D01*
X64750567Y-92582847D01*
X64750478Y-92591558D01*
X64432126Y-93362496D01*
X64425801Y-93368835D01*
X64425778Y-93368844D01*
X63654840Y-93687196D01*
X63645885Y-93687187D01*
X63639663Y-93681089D01*
X63053924Y-92348300D01*
X63053732Y-92339348D01*
X63056360Y-92335322D01*
X63398603Y-91993079D01*
X63406875Y-91989653D01*
X63411580Y-91990641D01*
G37*
G04 #@! TD.AperFunction*
G04 #@! TA.AperFunction,Conductor*
G36*
X65213242Y-93045376D02*
G01*
X65219464Y-93051474D01*
X65805203Y-94384263D01*
X65805395Y-94393215D01*
X65802765Y-94397243D01*
X65460525Y-94739483D01*
X65452252Y-94742910D01*
X65447545Y-94741921D01*
X64114756Y-94156182D01*
X64108560Y-94149716D01*
X64108648Y-94141007D01*
X64427002Y-93370065D01*
X64433323Y-93363730D01*
X65204289Y-93045367D01*
X65213242Y-93045376D01*
G37*
G04 #@! TD.AperFunction*
G04 #@! TA.AperFunction,Conductor*
G36*
X58619354Y-114873352D02*
G01*
X58962096Y-115216094D01*
X58965523Y-115224367D01*
X58964878Y-115228199D01*
X58557804Y-116402578D01*
X58551856Y-116409272D01*
X58545034Y-116410320D01*
X57575858Y-116266680D01*
X57568176Y-116262077D01*
X57566759Y-116259572D01*
X57243014Y-115475619D01*
X57243023Y-115466664D01*
X57249165Y-115460423D01*
X58606421Y-114870893D01*
X58615373Y-114870741D01*
X58619354Y-114873352D01*
G37*
G04 #@! TD.AperFunction*
G04 #@! TA.AperFunction,Conductor*
G36*
X53136132Y-75539200D02*
G01*
X53142448Y-75545547D01*
X53142618Y-75554011D01*
X52927807Y-76142313D01*
X52921751Y-76148909D01*
X52916817Y-76150000D01*
X52683183Y-76150000D01*
X52674910Y-76146573D01*
X52672193Y-76142313D01*
X52457381Y-75554011D01*
X52457762Y-75545064D01*
X52463865Y-75539201D01*
X52795497Y-75400877D01*
X52804449Y-75400856D01*
X53136132Y-75539200D01*
G37*
G04 #@! TD.AperFunction*
G04 #@! TA.AperFunction,Conductor*
G36*
X52928347Y-79569881D02*
G01*
X53326105Y-79931596D01*
X53329920Y-79939697D01*
X53326889Y-79948124D01*
X53326522Y-79948510D01*
X53073442Y-80202544D01*
X53065175Y-80205986D01*
X53065122Y-80205986D01*
X52706308Y-80205030D01*
X52698044Y-80201581D01*
X52694645Y-80193697D01*
X52675378Y-79578902D01*
X52678544Y-79570527D01*
X52686706Y-79566843D01*
X52687072Y-79566837D01*
X52920475Y-79566837D01*
X52928347Y-79569881D01*
G37*
G04 #@! TD.AperFunction*
G04 #@! TA.AperFunction,Conductor*
G36*
X52635476Y-81389731D02*
G01*
X53203366Y-81653829D01*
X53209421Y-81660424D01*
X53209251Y-81668888D01*
X53072563Y-82001194D01*
X53066247Y-82007541D01*
X53066194Y-82007563D01*
X52733888Y-82144251D01*
X52724933Y-82144229D01*
X52718829Y-82138366D01*
X52454731Y-81570477D01*
X52454351Y-81561532D01*
X52457066Y-81557274D01*
X52622273Y-81392067D01*
X52630545Y-81388641D01*
X52635476Y-81389731D01*
G37*
G04 #@! TD.AperFunction*
G04 #@! TA.AperFunction,Conductor*
G36*
X52236132Y-77474200D02*
G01*
X52242448Y-77480547D01*
X52242618Y-77489011D01*
X52027807Y-78077313D01*
X52021751Y-78083909D01*
X52016817Y-78085000D01*
X51783183Y-78085000D01*
X51774910Y-78081573D01*
X51772193Y-78077313D01*
X51557381Y-77489011D01*
X51557762Y-77480064D01*
X51563865Y-77474201D01*
X51895497Y-77335877D01*
X51904449Y-77335856D01*
X52236132Y-77474200D01*
G37*
G04 #@! TD.AperFunction*
G04 #@! TA.AperFunction,Conductor*
G36*
X63266859Y-116458801D02*
G01*
X63272211Y-116465981D01*
X63272463Y-116467284D01*
X63489718Y-118074482D01*
X63487430Y-118083139D01*
X63484844Y-118085626D01*
X62268373Y-118939355D01*
X62259633Y-118941302D01*
X62253379Y-118938051D01*
X61734014Y-118418686D01*
X61730587Y-118410413D01*
X61730668Y-118409047D01*
X61921692Y-116803319D01*
X61926072Y-116795510D01*
X61930438Y-116793360D01*
X63257998Y-116457508D01*
X63266859Y-116458801D01*
G37*
G04 #@! TD.AperFunction*
G04 #@! TA.AperFunction,Conductor*
G36*
X38566719Y-107118327D02*
G01*
X38567767Y-107123167D01*
X38567767Y-107604999D01*
X38750156Y-108280923D01*
X38749003Y-108289803D01*
X38741908Y-108295267D01*
X38741529Y-108295363D01*
X37258519Y-108642770D01*
X37249682Y-108641320D01*
X37245114Y-108636028D01*
X36913109Y-107869479D01*
X36912965Y-107860525D01*
X36919004Y-107854177D01*
X38551228Y-107112514D01*
X38560177Y-107112212D01*
X38566719Y-107118327D01*
G37*
G04 #@! TD.AperFunction*
G04 #@! TA.AperFunction,Conductor*
G36*
X60369290Y-91875478D02*
G01*
X62180829Y-92512391D01*
X62187497Y-92518368D01*
X62187986Y-92527310D01*
X62187976Y-92527338D01*
X61892186Y-93361706D01*
X61886191Y-93368359D01*
X61886178Y-93368365D01*
X61050007Y-93765578D01*
X61041064Y-93766033D01*
X61034479Y-93760156D01*
X60354901Y-92372434D01*
X60353709Y-92367288D01*
X60353709Y-91886516D01*
X60357136Y-91878243D01*
X60365409Y-91874816D01*
X60369290Y-91875478D01*
G37*
G04 #@! TD.AperFunction*
G04 #@! TA.AperFunction,Conductor*
G36*
X54933067Y-91781582D02*
G01*
X55652745Y-91868753D01*
X55660546Y-91873150D01*
X55663038Y-91880368D01*
X55663038Y-92360586D01*
X55659611Y-92368859D01*
X55653844Y-92372015D01*
X55073048Y-92499362D01*
X55064233Y-92497786D01*
X55059745Y-92492438D01*
X54919907Y-92157176D01*
X54919006Y-92152642D01*
X54919732Y-91880368D01*
X54919964Y-91793164D01*
X54923413Y-91784903D01*
X54931695Y-91781498D01*
X54933067Y-91781582D01*
G37*
G04 #@! TD.AperFunction*
G04 #@! TA.AperFunction,Conductor*
G36*
X51295136Y-103334284D02*
G01*
X51299877Y-103341882D01*
X51300036Y-103343774D01*
X51301000Y-103705000D01*
X51301000Y-103705062D01*
X51300036Y-104066225D01*
X51296587Y-104074489D01*
X51288305Y-104077894D01*
X51286413Y-104077735D01*
X50559777Y-103956629D01*
X50552179Y-103951888D01*
X50550000Y-103945088D01*
X50550000Y-103464911D01*
X50553427Y-103456638D01*
X50559775Y-103453370D01*
X51286414Y-103332264D01*
X51295136Y-103334284D01*
G37*
G04 #@! TD.AperFunction*
G04 #@! TA.AperFunction,Conductor*
G36*
X36302311Y-107163409D02*
G01*
X37572010Y-107840012D01*
X37577700Y-107846926D01*
X37577322Y-107854803D01*
X37253240Y-108639572D01*
X37246915Y-108645911D01*
X37244141Y-108646680D01*
X36274090Y-108790449D01*
X36265404Y-108788272D01*
X36261724Y-108783717D01*
X35834954Y-107845000D01*
X35767688Y-107697043D01*
X35767385Y-107688096D01*
X35770065Y-107683932D01*
X36288537Y-107165460D01*
X36296809Y-107162034D01*
X36302311Y-107163409D01*
G37*
G04 #@! TD.AperFunction*
G04 #@! TA.AperFunction,Conductor*
G36*
X51539676Y-95537407D02*
G01*
X51871014Y-95675608D01*
X51877330Y-95681955D01*
X51877308Y-95690910D01*
X51876328Y-95692770D01*
X51553459Y-96190814D01*
X51546083Y-96195892D01*
X51543641Y-96196150D01*
X51063868Y-96196150D01*
X51055595Y-96192723D01*
X51052168Y-96184450D01*
X51052335Y-96182480D01*
X51135979Y-95692770D01*
X51160842Y-95547201D01*
X51165613Y-95539625D01*
X51172341Y-95537473D01*
X51535143Y-95536506D01*
X51539676Y-95537407D01*
G37*
G04 #@! TD.AperFunction*
G04 #@! TA.AperFunction,Conductor*
G36*
X51548362Y-102958427D02*
G01*
X51551630Y-102964777D01*
X51672735Y-103691413D01*
X51670715Y-103700136D01*
X51663117Y-103704877D01*
X51661225Y-103705036D01*
X51300031Y-103705999D01*
X51299969Y-103705999D01*
X50938774Y-103705036D01*
X50930510Y-103701587D01*
X50927105Y-103693305D01*
X50927264Y-103691413D01*
X51048370Y-102964777D01*
X51053111Y-102957179D01*
X51059911Y-102955000D01*
X51540089Y-102955000D01*
X51548362Y-102958427D01*
G37*
G04 #@! TD.AperFunction*
G04 #@! TA.AperFunction,Conductor*
G36*
X38740210Y-109009408D02*
G01*
X38747431Y-109014704D01*
X38748939Y-109018683D01*
X38879755Y-109739491D01*
X38877861Y-109748243D01*
X38876516Y-109749853D01*
X38356902Y-110269467D01*
X38348629Y-110272894D01*
X38342726Y-110271295D01*
X36913275Y-109435905D01*
X36907861Y-109428772D01*
X36908464Y-109421103D01*
X37245344Y-108653292D01*
X37251805Y-108647095D01*
X37258840Y-108646631D01*
X38740210Y-109009408D01*
G37*
G04 #@! TD.AperFunction*
G04 #@! TA.AperFunction,Conductor*
G36*
X26464220Y-41408715D02*
G01*
X26918843Y-41727719D01*
X26923647Y-41735276D01*
X26922697Y-41742304D01*
X26635670Y-42348308D01*
X26629032Y-42354318D01*
X26625096Y-42355000D01*
X26289904Y-42355000D01*
X26281631Y-42351573D01*
X26279330Y-42348308D01*
X25992302Y-41742304D01*
X25991858Y-41733360D01*
X25996155Y-41727720D01*
X26450780Y-41408714D01*
X26459520Y-41406768D01*
X26464220Y-41408715D01*
G37*
G04 #@! TD.AperFunction*
G04 #@! TA.AperFunction,Conductor*
G36*
X26632533Y-42066881D02*
G01*
X26635276Y-42071213D01*
X26842712Y-42651032D01*
X26842272Y-42659976D01*
X26836200Y-42665771D01*
X26504504Y-42804121D01*
X26495549Y-42804143D01*
X26495496Y-42804121D01*
X26162530Y-42665241D01*
X26156214Y-42658894D01*
X26155597Y-42651977D01*
X26280509Y-42072688D01*
X26285603Y-42065323D01*
X26291946Y-42063454D01*
X26624260Y-42063454D01*
X26632533Y-42066881D01*
G37*
G04 #@! TD.AperFunction*
G04 #@! TA.AperFunction,Conductor*
G36*
X37591945Y-68799592D02*
G01*
X37593171Y-68801043D01*
X38021345Y-69400488D01*
X38023365Y-69409211D01*
X38020097Y-69415561D01*
X37680561Y-69755097D01*
X37672288Y-69758524D01*
X37665488Y-69756345D01*
X37366881Y-69543055D01*
X37066042Y-69328170D01*
X37061302Y-69320573D01*
X37063322Y-69311850D01*
X37064542Y-69310406D01*
X37319293Y-69054293D01*
X37575400Y-68799547D01*
X37583681Y-68796143D01*
X37591945Y-68799592D01*
G37*
G04 #@! TD.AperFunction*
G04 #@! TA.AperFunction,Conductor*
G36*
X49245136Y-98034284D02*
G01*
X49249877Y-98041882D01*
X49250036Y-98043774D01*
X49251000Y-98405000D01*
X49251000Y-98405062D01*
X49250036Y-98766225D01*
X49246587Y-98774489D01*
X49238305Y-98777894D01*
X49236413Y-98777735D01*
X48509777Y-98656629D01*
X48502179Y-98651888D01*
X48500000Y-98645088D01*
X48500000Y-98164911D01*
X48503427Y-98156638D01*
X48509775Y-98153370D01*
X49236414Y-98032264D01*
X49245136Y-98034284D01*
G37*
G04 #@! TD.AperFunction*
G04 #@! TA.AperFunction,Conductor*
G36*
X27957850Y-76938688D02*
G01*
X27965952Y-76942500D01*
X27968986Y-76950925D01*
X27968881Y-76952034D01*
X27734914Y-78585099D01*
X27730348Y-78592803D01*
X27730207Y-78592907D01*
X26451308Y-79521564D01*
X26442600Y-79523652D01*
X26436160Y-79520370D01*
X25389868Y-78474078D01*
X25386441Y-78465805D01*
X25388906Y-78458622D01*
X26616276Y-76880572D01*
X26624059Y-76876147D01*
X26626049Y-76876070D01*
X27957850Y-76938688D01*
G37*
G04 #@! TD.AperFunction*
G04 #@! TA.AperFunction,Conductor*
G36*
X65856561Y-53759837D02*
G01*
X65859661Y-53765365D01*
X66182953Y-55105003D01*
X66181563Y-55113849D01*
X66176069Y-55118553D01*
X65404489Y-55439134D01*
X65395534Y-55439143D01*
X65395511Y-55439134D01*
X64625023Y-55119007D01*
X64618698Y-55112668D01*
X64618513Y-55104214D01*
X65104703Y-53764120D01*
X65110746Y-53757511D01*
X65115702Y-53756410D01*
X65848288Y-53756410D01*
X65856561Y-53759837D01*
G37*
G04 #@! TD.AperFunction*
G04 #@! TA.AperFunction,Conductor*
G36*
X65488766Y-52507975D02*
G01*
X65951040Y-52801242D01*
X65956190Y-52808567D01*
X65956336Y-52812901D01*
X65859027Y-53445080D01*
X65854381Y-53452735D01*
X65847463Y-53455000D01*
X65117537Y-53455000D01*
X65109264Y-53451573D01*
X65105973Y-53445080D01*
X65008663Y-52812898D01*
X65010792Y-52804203D01*
X65013954Y-52801245D01*
X65476232Y-52507975D01*
X65485054Y-52506438D01*
X65488766Y-52507975D01*
G37*
G04 #@! TD.AperFunction*
G04 #@! TA.AperFunction,Conductor*
G36*
X27505720Y-92012172D02*
G01*
X27509863Y-92016430D01*
X28474737Y-93721516D01*
X28475998Y-93729713D01*
X28211972Y-94970378D01*
X28206898Y-94977757D01*
X28200528Y-94979643D01*
X26719769Y-94979643D01*
X26711496Y-94976216D01*
X26708257Y-94970031D01*
X26477926Y-93700197D01*
X26479418Y-93692069D01*
X27489661Y-92016150D01*
X27496866Y-92010836D01*
X27505720Y-92012172D01*
G37*
G04 #@! TD.AperFunction*
G04 #@! TA.AperFunction,Conductor*
G36*
X28208653Y-98833784D02*
G01*
X28211859Y-98839796D01*
X28459144Y-100095112D01*
X28457767Y-100103275D01*
X27470102Y-101793709D01*
X27462970Y-101799124D01*
X27454098Y-101797909D01*
X27449898Y-101793709D01*
X26462232Y-100103275D01*
X26460855Y-100095113D01*
X26708141Y-98839796D01*
X26713102Y-98832341D01*
X26719620Y-98830357D01*
X28200380Y-98830357D01*
X28208653Y-98833784D01*
G37*
G04 #@! TD.AperFunction*
G04 #@! TA.AperFunction,Conductor*
G36*
X26321635Y-89815220D02*
G01*
X26347094Y-89822802D01*
X27105417Y-90048644D01*
X27112366Y-90054288D01*
X27113551Y-90057574D01*
X27496074Y-91981256D01*
X27494327Y-91990039D01*
X27486881Y-91995013D01*
X27480902Y-91994639D01*
X25615158Y-91373266D01*
X25608424Y-91367463D01*
X24941638Y-90054288D01*
X24828631Y-89831730D01*
X24827941Y-89822802D01*
X24833766Y-89816001D01*
X24839063Y-89814733D01*
X26318295Y-89814733D01*
X26321635Y-89815220D01*
G37*
G04 #@! TD.AperFunction*
G04 #@! TA.AperFunction,Conductor*
G36*
X50006132Y-85344200D02*
G01*
X50012448Y-85350547D01*
X50012618Y-85359011D01*
X49797807Y-85947313D01*
X49791751Y-85953909D01*
X49786817Y-85955000D01*
X49553183Y-85955000D01*
X49544910Y-85951573D01*
X49542193Y-85947313D01*
X49327381Y-85359011D01*
X49327762Y-85350064D01*
X49333865Y-85344201D01*
X49665497Y-85205877D01*
X49674449Y-85205856D01*
X50006132Y-85344200D01*
G37*
G04 #@! TD.AperFunction*
G04 #@! TA.AperFunction,Conductor*
G36*
X49795090Y-84458427D02*
G01*
X49797807Y-84462687D01*
X50012618Y-85050988D01*
X50012237Y-85059935D01*
X50006132Y-85065799D01*
X49674504Y-85204121D01*
X49665549Y-85204143D01*
X49665496Y-85204121D01*
X49333867Y-85065799D01*
X49327551Y-85059452D01*
X49327381Y-85050988D01*
X49542193Y-84462687D01*
X49548249Y-84456091D01*
X49553183Y-84455000D01*
X49786817Y-84455000D01*
X49795090Y-84458427D01*
G37*
G04 #@! TD.AperFunction*
G04 #@! TA.AperFunction,Conductor*
G36*
X50006132Y-72735200D02*
G01*
X50012448Y-72741547D01*
X50012618Y-72750011D01*
X49797807Y-73338313D01*
X49791751Y-73344909D01*
X49786817Y-73346000D01*
X49553183Y-73346000D01*
X49544910Y-73342573D01*
X49542193Y-73338313D01*
X49327381Y-72750011D01*
X49327762Y-72741064D01*
X49333865Y-72735201D01*
X49665497Y-72596877D01*
X49674449Y-72596856D01*
X50006132Y-72735200D01*
G37*
G04 #@! TD.AperFunction*
G04 #@! TA.AperFunction,Conductor*
G36*
X63655670Y-98125710D02*
G01*
X64425779Y-98443720D01*
X64432116Y-98450043D01*
X64432126Y-98450067D01*
X64750131Y-99220165D01*
X64750122Y-99229120D01*
X64743783Y-99235445D01*
X64743193Y-99235670D01*
X63322815Y-99734313D01*
X63313873Y-99733821D01*
X63310666Y-99731547D01*
X63144298Y-99565179D01*
X63140871Y-99556906D01*
X63141532Y-99553030D01*
X63253025Y-99235445D01*
X63640176Y-98132650D01*
X63646148Y-98125981D01*
X63655090Y-98125489D01*
X63655670Y-98125710D01*
G37*
G04 #@! TD.AperFunction*
G04 #@! TA.AperFunction,Conductor*
G36*
X51136132Y-84044200D02*
G01*
X51142448Y-84050547D01*
X51142618Y-84059011D01*
X50927807Y-84647313D01*
X50921751Y-84653909D01*
X50916817Y-84655000D01*
X50683183Y-84655000D01*
X50674910Y-84651573D01*
X50672193Y-84647313D01*
X50457381Y-84059011D01*
X50457762Y-84050064D01*
X50463865Y-84044201D01*
X50795497Y-83905877D01*
X50804449Y-83905856D01*
X51136132Y-84044200D01*
G37*
G04 #@! TD.AperFunction*
G04 #@! TA.AperFunction,Conductor*
G36*
X51136132Y-72739200D02*
G01*
X51142448Y-72745547D01*
X51142618Y-72754011D01*
X50927807Y-73342313D01*
X50921751Y-73348909D01*
X50916817Y-73350000D01*
X50683183Y-73350000D01*
X50674910Y-73346573D01*
X50672193Y-73342313D01*
X50457381Y-72754011D01*
X50457762Y-72745064D01*
X50463865Y-72739201D01*
X50795497Y-72600877D01*
X50804449Y-72600856D01*
X51136132Y-72739200D01*
G37*
G04 #@! TD.AperFunction*
G04 #@! TA.AperFunction,Conductor*
G36*
X50925090Y-83158427D02*
G01*
X50927807Y-83162687D01*
X51142618Y-83750988D01*
X51142237Y-83759935D01*
X51136132Y-83765799D01*
X50804504Y-83904121D01*
X50795549Y-83904143D01*
X50795496Y-83904121D01*
X50463867Y-83765799D01*
X50457551Y-83759452D01*
X50457381Y-83750988D01*
X50672193Y-83162687D01*
X50678249Y-83156091D01*
X50683183Y-83155000D01*
X50916817Y-83155000D01*
X50925090Y-83158427D01*
G37*
G04 #@! TD.AperFunction*
G04 #@! TA.AperFunction,Conductor*
G36*
X60692213Y-97150172D02*
G01*
X62202973Y-97657001D01*
X62209726Y-97662880D01*
X62210343Y-97671813D01*
X62210065Y-97672558D01*
X61892417Y-98441793D01*
X61886092Y-98448132D01*
X61886076Y-98448138D01*
X61116111Y-98766662D01*
X61107156Y-98766658D01*
X61100827Y-98760324D01*
X61100464Y-98759321D01*
X60677321Y-97396693D01*
X60676795Y-97393223D01*
X60676795Y-97161265D01*
X60680222Y-97152992D01*
X60688495Y-97149565D01*
X60692213Y-97150172D01*
G37*
G04 #@! TD.AperFunction*
G04 #@! TA.AperFunction,Conductor*
G36*
X66055736Y-40558427D02*
G01*
X66059027Y-40564920D01*
X66156336Y-41197097D01*
X66154207Y-41205795D01*
X66151040Y-41208757D01*
X65688768Y-41502023D01*
X65679946Y-41503561D01*
X65676232Y-41502023D01*
X65404159Y-41329420D01*
X65213958Y-41208756D01*
X65208809Y-41201431D01*
X65208663Y-41197102D01*
X65305973Y-40564919D01*
X65310619Y-40557265D01*
X65317537Y-40555000D01*
X66047463Y-40555000D01*
X66055736Y-40558427D01*
G37*
G04 #@! TD.AperFunction*
G04 #@! TA.AperFunction,Conductor*
G36*
X65652536Y-39609476D02*
G01*
X66128775Y-39955540D01*
X66133453Y-39963176D01*
X66133501Y-39966504D01*
X66058817Y-40544799D01*
X66054358Y-40552565D01*
X66047213Y-40555000D01*
X65316891Y-40555000D01*
X65308618Y-40551573D01*
X65305468Y-40545832D01*
X65274074Y-40404210D01*
X65186916Y-40011014D01*
X65188471Y-40002197D01*
X65190650Y-39999665D01*
X65637974Y-39610117D01*
X65646464Y-39607269D01*
X65652536Y-39609476D01*
G37*
G04 #@! TD.AperFunction*
G04 #@! TA.AperFunction,Conductor*
G36*
X63727273Y-50609775D02*
G01*
X64189555Y-50976836D01*
X64193904Y-50984664D01*
X64193806Y-50988008D01*
X64096689Y-51545309D01*
X64091893Y-51552871D01*
X64085163Y-51555000D01*
X63354837Y-51555000D01*
X63346564Y-51551573D01*
X63343311Y-51545309D01*
X63246193Y-50988008D01*
X63248148Y-50979269D01*
X63250438Y-50976841D01*
X63712725Y-50609775D01*
X63721335Y-50607315D01*
X63727273Y-50609775D01*
G37*
G04 #@! TD.AperFunction*
G04 #@! TA.AperFunction,Conductor*
G36*
X64092366Y-51558427D02*
G01*
X64095764Y-51565881D01*
X64144448Y-52259635D01*
X64141609Y-52268128D01*
X64137919Y-52270964D01*
X63664081Y-52502779D01*
X63655143Y-52503336D01*
X63651728Y-52501482D01*
X63210654Y-52156251D01*
X63206251Y-52148454D01*
X63206475Y-52144361D01*
X63342879Y-51564022D01*
X63348108Y-51556753D01*
X63354269Y-51555000D01*
X64084093Y-51555000D01*
X64092366Y-51558427D01*
G37*
G04 #@! TD.AperFunction*
G04 #@! TA.AperFunction,Conductor*
G36*
X28532495Y-40458427D02*
G01*
X28535255Y-40462806D01*
X28748966Y-41068241D01*
X28748488Y-41077183D01*
X28744653Y-41081712D01*
X28289220Y-41401284D01*
X28280480Y-41403231D01*
X28275780Y-41401284D01*
X27820346Y-41081712D01*
X27815542Y-41074155D01*
X27816032Y-41068245D01*
X28029745Y-40462806D01*
X28035730Y-40456145D01*
X28040778Y-40455000D01*
X28524222Y-40455000D01*
X28532495Y-40458427D01*
G37*
G04 #@! TD.AperFunction*
G04 #@! TA.AperFunction,Conductor*
G36*
X28252536Y-39404476D02*
G01*
X28727422Y-39749557D01*
X28732100Y-39757193D01*
X28731624Y-39762779D01*
X28535193Y-40342057D01*
X28529291Y-40348792D01*
X28524113Y-40350000D01*
X28040075Y-40350000D01*
X28031802Y-40346573D01*
X28029400Y-40343089D01*
X27948905Y-40163662D01*
X27788961Y-39807141D01*
X27788702Y-39798192D01*
X27791951Y-39793533D01*
X28237974Y-39405117D01*
X28246464Y-39402269D01*
X28252536Y-39404476D01*
G37*
G04 #@! TD.AperFunction*
G04 #@! TA.AperFunction,Conductor*
G36*
X53523678Y-62739094D02*
G01*
X53529900Y-62745192D01*
X54115639Y-64077981D01*
X54115831Y-64086933D01*
X54113201Y-64090961D01*
X53770961Y-64433201D01*
X53762688Y-64436628D01*
X53757981Y-64435639D01*
X52425192Y-63849900D01*
X52418996Y-63843434D01*
X52419084Y-63834725D01*
X52737438Y-63063783D01*
X52743759Y-63057448D01*
X53514725Y-62739085D01*
X53523678Y-62739094D01*
G37*
G04 #@! TD.AperFunction*
G04 #@! TA.AperFunction,Conductor*
G36*
X55627743Y-89904259D02*
G01*
X57674627Y-90062129D01*
X57698981Y-90064008D01*
X57706966Y-90068061D01*
X57709746Y-90076573D01*
X57709603Y-90077704D01*
X57572112Y-90857732D01*
X57567301Y-90865285D01*
X57562749Y-90867200D01*
X56046674Y-91151829D01*
X56037910Y-91149988D01*
X56035649Y-91147964D01*
X55275932Y-90265629D01*
X55273130Y-90257124D01*
X55276524Y-90249723D01*
X55618596Y-89907651D01*
X55626868Y-89904225D01*
X55627743Y-89904259D01*
G37*
G04 #@! TD.AperFunction*
G04 #@! TA.AperFunction,Conductor*
G36*
X55704490Y-87180998D02*
G01*
X57736678Y-87522954D01*
X57744268Y-87527706D01*
X57746275Y-87536433D01*
X57746158Y-87537033D01*
X57572572Y-88317320D01*
X57567430Y-88324651D01*
X57562146Y-88326437D01*
X55992137Y-88460373D01*
X55983602Y-88457661D01*
X55981514Y-88455363D01*
X55350540Y-87541577D01*
X55348659Y-87532822D01*
X55351893Y-87526658D01*
X55694288Y-87184263D01*
X55702560Y-87180837D01*
X55704490Y-87180998D01*
G37*
G04 #@! TD.AperFunction*
G04 #@! TA.AperFunction,Conductor*
G36*
X53523678Y-60199094D02*
G01*
X53529900Y-60205192D01*
X54115639Y-61537981D01*
X54115831Y-61546933D01*
X54113201Y-61550961D01*
X53770961Y-61893201D01*
X53762688Y-61896628D01*
X53757981Y-61895639D01*
X52425192Y-61309900D01*
X52418996Y-61303434D01*
X52419084Y-61294725D01*
X52737438Y-60523783D01*
X52743759Y-60517448D01*
X53514725Y-60199085D01*
X53523678Y-60199094D01*
G37*
G04 #@! TD.AperFunction*
G04 #@! TA.AperFunction,Conductor*
G36*
X64807271Y-62467535D02*
G01*
X64808940Y-62468917D01*
X65399049Y-63057639D01*
X65401600Y-63061456D01*
X65721506Y-63836156D01*
X65721497Y-63845111D01*
X65716897Y-63850541D01*
X64542343Y-64585220D01*
X64533511Y-64586702D01*
X64527865Y-64583574D01*
X63834198Y-63889907D01*
X63830771Y-63881634D01*
X63832804Y-63875044D01*
X64791013Y-62470605D01*
X64798506Y-62465703D01*
X64807271Y-62467535D01*
G37*
G04 #@! TD.AperFunction*
G04 #@! TA.AperFunction,Conductor*
G36*
X63671042Y-74353428D02*
G01*
X63673234Y-74356469D01*
X64167113Y-75344227D01*
X64167748Y-75353159D01*
X64166655Y-75355520D01*
X63180007Y-76984478D01*
X63172790Y-76989779D01*
X63163939Y-76988424D01*
X63159993Y-76984478D01*
X62173344Y-75355520D01*
X62171989Y-75346669D01*
X62172884Y-75344230D01*
X62666766Y-74356469D01*
X62673531Y-74350601D01*
X62677231Y-74350001D01*
X63662769Y-74350001D01*
X63671042Y-74353428D01*
G37*
G04 #@! TD.AperFunction*
M02*
