M48
; DRILL file {KiCad 8.0.7} date 2025-01-20T10:57:12-0600
; FORMAT={-:-/ absolute / metric / decimal}
; #@! TF.CreationDate,2025-01-20T10:57:12-06:00
; #@! TF.GenerationSoftware,Kicad,Pcbnew,8.0.7
; #@! TF.FileFunction,Plated,1,2,PTH
FMAT,2
METRIC
; #@! TA.AperFunction,Plated,PTH,ViaDrill
T1C0.300
; #@! TA.AperFunction,Plated,PTH,ComponentDrill
T2C0.600
; #@! TA.AperFunction,Plated,PTH,ComponentDrill
T3C0.762
; #@! TA.AperFunction,Plated,PTH,ComponentDrill
T4C1.000
; #@! TA.AperFunction,Plated,PTH,ComponentDrill
T5C1.020
; #@! TA.AperFunction,Plated,PTH,ComponentDrill
T6C1.400
; #@! TA.AperFunction,Plated,PTH,ComponentDrill
T7C1.900
; #@! TA.AperFunction,Plated,PTH,ComponentDrill
T8C2.700
%
G90
G05
T1
X25.7Y-60.995
X25.7Y-63.535
X25.7Y-66.075
X25.7Y-68.615
X25.7Y-71.155
X25.7Y-73.695
X25.7Y-96.555
X25.7Y-99.095
X25.7Y-106.715
X25.7Y-109.255
X25.7Y-111.795
X25.7Y-114.335
X25.7Y-116.875
X25.7Y-119.415
X25.7Y-121.955
X26.5Y-42.805
X28.24Y-35.595
X28.24Y-68.615
X28.24Y-86.395
X28.24Y-88.935
X28.24Y-106.715
X28.24Y-114.335
X28.24Y-119.415
X30.78Y-35.595
X30.78Y-40.675
X30.78Y-43.215
X30.78Y-48.295
X30.78Y-50.835
X30.78Y-53.375
X30.78Y-58.455
X30.78Y-60.995
X30.78Y-73.695
X30.78Y-86.395
X30.78Y-88.935
X30.78Y-119.415
X32.4Y-54.2
X33.0Y-50.0
X33.32Y-35.595
X33.32Y-38.135
X33.32Y-40.675
X33.32Y-48.295
X33.32Y-73.695
X33.32Y-86.395
X33.32Y-88.935
X33.32Y-109.255
X33.32Y-116.875
X33.32Y-119.415
X33.32Y-121.955
X33.32Y-124.495
X35.487Y-70.822
X35.51Y-78.87
X35.86Y-35.595
X35.86Y-38.135
X35.86Y-40.675
X35.86Y-53.375
X35.86Y-55.915
X35.86Y-58.455
X35.86Y-60.995
X35.86Y-114.335
X35.86Y-116.875
X35.86Y-119.415
X35.86Y-121.955
X35.86Y-124.495
X37.32Y-69.055
X37.68Y-77.55
X38.4Y-35.595
X38.4Y-38.135
X38.4Y-40.675
X38.4Y-43.215
X38.4Y-53.375
X38.4Y-55.915
X38.4Y-58.455
X38.4Y-66.075
X38.4Y-114.335
X38.4Y-116.875
X38.4Y-119.415
X38.4Y-121.955
X38.4Y-124.495
X38.5Y-72.0
X39.97Y-99.98
X40.25Y-75.5
X40.32Y-77.55
X40.75Y-85.01
X40.94Y-35.595
X40.94Y-38.135
X40.94Y-40.675
X40.94Y-48.295
X40.94Y-55.915
X40.94Y-63.535
X40.94Y-66.075
X40.94Y-68.615
X40.94Y-81.315
X40.94Y-88.935
X40.94Y-91.475
X40.94Y-94.015
X40.94Y-116.875
X40.94Y-119.415
X40.94Y-121.955
X40.94Y-124.495
X41.91Y-110.06
X41.94Y-106.95
X42.78Y-102.47
X43.48Y-35.595
X43.48Y-38.135
X43.48Y-40.675
X43.48Y-48.295
X43.48Y-60.995
X43.48Y-63.535
X43.48Y-66.075
X43.48Y-68.615
X43.48Y-71.155
X43.48Y-78.775
X43.48Y-119.415
X43.48Y-121.955
X43.48Y-124.495
X45.89Y-82.61
X46.02Y-35.595
X46.02Y-40.675
X46.02Y-43.215
X46.02Y-48.295
X46.02Y-50.835
X46.02Y-58.455
X46.02Y-60.995
X46.02Y-63.535
X46.02Y-66.075
X46.02Y-68.615
X46.02Y-71.155
X46.02Y-78.775
X46.02Y-94.015
X46.02Y-101.635
X46.02Y-106.715
X46.02Y-109.255
X46.02Y-114.335
X46.02Y-121.955
X46.02Y-124.495
X47.89Y-108.27
X48.1Y-75.4
X48.2Y-73.3
X48.56Y-35.595
X48.56Y-43.215
X48.56Y-48.295
X48.56Y-55.915
X48.56Y-58.455
X48.56Y-60.995
X48.56Y-63.535
X48.56Y-66.075
X48.56Y-68.615
X48.56Y-71.155
X48.56Y-91.475
X48.56Y-94.015
X48.56Y-96.555
X48.56Y-101.635
X48.56Y-114.335
X48.56Y-116.875
X48.56Y-121.955
X48.56Y-124.495
X49.25Y-98.405
X49.67Y-72.596
X49.67Y-85.205
X50.8Y-72.6
X50.8Y-83.905
X51.1Y-106.715
X51.1Y-109.255
X51.1Y-111.795
X51.1Y-114.335
X51.1Y-116.875
X51.1Y-119.415
X51.1Y-121.955
X51.1Y-124.495
X51.3Y-103.705
X51.537Y-95.537
X51.9Y-77.335
X52.5Y-73.5
X52.5Y-83.75
X52.8Y-75.4
X53.07Y-80.205
X53.07Y-82.005
X53.3Y-90.9
X53.64Y-35.595
X53.64Y-38.135
X53.64Y-109.255
X53.64Y-111.795
X53.64Y-114.335
X53.64Y-116.875
X53.64Y-119.415
X53.64Y-121.955
X53.64Y-124.495
X54.92Y-92.155
X55.25Y-94.5
X56.18Y-35.595
X56.18Y-38.135
X56.18Y-58.455
X56.18Y-60.995
X56.18Y-121.955
X56.18Y-124.495
X56.5Y-79.0
X58.17Y-77.4
X58.72Y-35.595
X58.72Y-38.135
X58.72Y-58.455
X58.72Y-60.995
X58.72Y-63.535
X58.72Y-66.075
X58.72Y-71.155
X58.72Y-121.955
X58.72Y-124.495
X61.26Y-48.295
X61.26Y-50.835
X61.26Y-53.375
X61.26Y-58.455
X61.26Y-60.995
X61.26Y-86.395
X61.26Y-101.635
X61.26Y-121.955
X61.26Y-124.495
X63.8Y-35.595
X63.8Y-38.135
X63.8Y-86.395
X63.8Y-88.935
X63.8Y-101.635
X63.8Y-119.415
X66.34Y-38.135
X66.34Y-43.215
X66.34Y-48.295
X66.34Y-73.695
X66.34Y-76.235
X66.34Y-78.775
X66.34Y-81.315
X66.34Y-83.855
X66.34Y-86.395
X66.34Y-88.935
X66.34Y-91.475
X66.34Y-109.255
X66.34Y-111.795
X66.34Y-114.335
X66.34Y-116.875
X66.34Y-119.415
X66.34Y-121.955
T3
X28.27Y-51.77
X28.27Y-54.31
X28.27Y-56.85
X28.27Y-59.39
X28.27Y-61.93
X38.96Y-51.77
T4
X37.25Y-80.705
X37.25Y-83.245
X37.25Y-85.785
X37.25Y-88.325
X37.25Y-90.865
X37.25Y-93.405
X37.25Y-95.945
X37.25Y-98.485
X37.25Y-101.025
X37.25Y-103.565
X37.25Y-106.105
X37.25Y-108.645
X49.97Y-37.09
X49.97Y-39.94
X57.57Y-80.705
X57.57Y-83.245
X57.57Y-85.785
X57.57Y-88.325
X57.57Y-90.865
X57.57Y-93.405
X57.57Y-95.945
X57.57Y-98.485
X57.57Y-101.025
X57.57Y-103.565
X57.57Y-106.105
X57.57Y-108.645
X57.57Y-111.185
X57.57Y-113.725
X57.57Y-116.265
X57.57Y-118.805
X60.97Y-37.09
X60.97Y-39.94
X61.89Y-93.366
X61.89Y-95.906
X61.89Y-98.446
X64.43Y-93.366
X64.43Y-95.906
X64.43Y-98.446
T5
X52.74Y-55.44
X52.74Y-57.98
X52.74Y-60.52
X52.74Y-63.06
X52.74Y-65.6
X52.74Y-68.13
X52.74Y-70.67
X65.4Y-55.44
X65.4Y-57.98
X65.4Y-60.52
X65.4Y-63.06
X65.4Y-65.6
X65.4Y-68.13
X65.4Y-70.67
T6
X27.97Y-76.94
X27.97Y-82.44
X30.06Y-110.9
X30.06Y-116.4
X32.17Y-76.94
X32.17Y-82.44
X63.17Y-77.0
X63.17Y-82.5
X63.27Y-110.955
X63.27Y-116.455
T7
X52.97Y-42.09
X52.97Y-49.94
X57.97Y-42.09
X57.97Y-49.94
T8
X27.46Y-101.81
X27.5Y-92.0
X32.46Y-101.81
X32.5Y-92.0
X34.9Y-44.8
X42.1Y-44.8
T2
X31.75Y-38.25G85X31.75Y-39.35
G05
X45.25Y-38.25G85X45.25Y-39.35
G05
M30
