G04 #@! TF.GenerationSoftware,KiCad,Pcbnew,8.0.7*
G04 #@! TF.CreationDate,2025-01-20T10:56:57-06:00*
G04 #@! TF.ProjectId,Digit,44696769-742e-46b6-9963-61645f706362,1.2*
G04 #@! TF.SameCoordinates,Original*
G04 #@! TF.FileFunction,Paste,Bot*
G04 #@! TF.FilePolarity,Positive*
%FSLAX46Y46*%
G04 Gerber Fmt 4.6, Leading zero omitted, Abs format (unit mm)*
G04 Created by KiCad (PCBNEW 8.0.7) date 2025-01-20 10:56:57*
%MOMM*%
%LPD*%
G01*
G04 APERTURE LIST*
G04 Aperture macros list*
%AMRoundRect*
0 Rectangle with rounded corners*
0 $1 Rounding radius*
0 $2 $3 $4 $5 $6 $7 $8 $9 X,Y pos of 4 corners*
0 Add a 4 corners polygon primitive as box body*
4,1,4,$2,$3,$4,$5,$6,$7,$8,$9,$2,$3,0*
0 Add four circle primitives for the rounded corners*
1,1,$1+$1,$2,$3*
1,1,$1+$1,$4,$5*
1,1,$1+$1,$6,$7*
1,1,$1+$1,$8,$9*
0 Add four rect primitives between the rounded corners*
20,1,$1+$1,$2,$3,$4,$5,0*
20,1,$1+$1,$4,$5,$6,$7,0*
20,1,$1+$1,$6,$7,$8,$9,0*
20,1,$1+$1,$8,$9,$2,$3,0*%
G04 Aperture macros list end*
%ADD10RoundRect,0.037800X-0.342200X-0.232200X0.342200X-0.232200X0.342200X0.232200X-0.342200X0.232200X0*%
%ADD11R,1.016000X0.482600*%
%ADD12RoundRect,0.237500X-0.250000X-0.237500X0.250000X-0.237500X0.250000X0.237500X-0.250000X0.237500X0*%
%ADD13RoundRect,0.237500X0.300000X0.237500X-0.300000X0.237500X-0.300000X-0.237500X0.300000X-0.237500X0*%
%ADD14RoundRect,0.237500X-0.300000X-0.237500X0.300000X-0.237500X0.300000X0.237500X-0.300000X0.237500X0*%
%ADD15RoundRect,0.237500X0.250000X0.237500X-0.250000X0.237500X-0.250000X-0.237500X0.250000X-0.237500X0*%
%ADD16RoundRect,0.237500X-0.237500X0.250000X-0.237500X-0.250000X0.237500X-0.250000X0.237500X0.250000X0*%
%ADD17RoundRect,0.150000X-0.825000X-0.150000X0.825000X-0.150000X0.825000X0.150000X-0.825000X0.150000X0*%
G04 APERTURE END LIST*
D10*
X60785000Y-107055000D03*
X60785000Y-105155000D03*
X62955000Y-106105000D03*
D11*
X43753600Y-111405000D03*
X43753600Y-110135000D03*
X43753600Y-108865000D03*
X43753600Y-107595000D03*
X49646400Y-107595000D03*
X49646400Y-108865000D03*
X49646400Y-110135000D03*
X49646400Y-111405000D03*
D12*
X46267500Y-88170000D03*
X48092500Y-88170000D03*
D13*
X47002500Y-92510000D03*
X45277500Y-92510000D03*
D12*
X52657500Y-103705000D03*
X54482500Y-103705000D03*
D14*
X46627500Y-80740000D03*
X48352500Y-80740000D03*
D12*
X61307500Y-68205000D03*
X63132500Y-68205000D03*
D15*
X54482500Y-96705000D03*
X52657500Y-96705000D03*
D16*
X65070000Y-105192500D03*
X65070000Y-107017500D03*
D12*
X42497500Y-88180000D03*
X44322500Y-88180000D03*
D15*
X54482500Y-101905000D03*
X52657500Y-101905000D03*
D12*
X52657500Y-98405000D03*
X54482500Y-98405000D03*
D14*
X43157500Y-80730000D03*
X44882500Y-80730000D03*
D12*
X52657500Y-100205000D03*
X54482500Y-100205000D03*
D17*
X42970000Y-86460000D03*
X42970000Y-85190000D03*
X42970000Y-83920000D03*
X42970000Y-82650000D03*
X47920000Y-82650000D03*
X47920000Y-83920000D03*
X47920000Y-85190000D03*
X47920000Y-86460000D03*
D15*
X54470000Y-105405000D03*
X52645000Y-105405000D03*
M02*
