G04 #@! TF.GenerationSoftware,KiCad,Pcbnew,8.0.7*
G04 #@! TF.CreationDate,2025-01-20T10:56:57-06:00*
G04 #@! TF.ProjectId,Digit,44696769-742e-46b6-9963-61645f706362,1.2*
G04 #@! TF.SameCoordinates,Original*
G04 #@! TF.FileFunction,Soldermask,Bot*
G04 #@! TF.FilePolarity,Negative*
%FSLAX46Y46*%
G04 Gerber Fmt 4.6, Leading zero omitted, Abs format (unit mm)*
G04 Created by KiCad (PCBNEW 8.0.7) date 2025-01-20 10:56:57*
%MOMM*%
%LPD*%
G01*
G04 APERTURE LIST*
G04 Aperture macros list*
%AMRoundRect*
0 Rectangle with rounded corners*
0 $1 Rounding radius*
0 $2 $3 $4 $5 $6 $7 $8 $9 X,Y pos of 4 corners*
0 Add a 4 corners polygon primitive as box body*
4,1,4,$2,$3,$4,$5,$6,$7,$8,$9,$2,$3,0*
0 Add four circle primitives for the rounded corners*
1,1,$1+$1,$2,$3*
1,1,$1+$1,$4,$5*
1,1,$1+$1,$6,$7*
1,1,$1+$1,$8,$9*
0 Add four rect primitives between the rounded corners*
20,1,$1+$1,$2,$3,$4,$5,0*
20,1,$1+$1,$4,$5,$6,$7,0*
20,1,$1+$1,$6,$7,$8,$9,0*
20,1,$1+$1,$8,$9,$2,$3,0*%
G04 Aperture macros list end*
%ADD10R,1.000000X1.500000*%
%ADD11C,1.700000*%
%ADD12RoundRect,0.250000X1.050000X0.550000X-1.050000X0.550000X-1.050000X-0.550000X1.050000X-0.550000X0*%
%ADD13O,2.600000X1.600000*%
%ADD14RoundRect,0.760000X1.140000X1.140000X-1.140000X1.140000X-1.140000X-1.140000X1.140000X-1.140000X0*%
%ADD15C,4.000000*%
%ADD16R,0.900000X2.000000*%
%ADD17RoundRect,1.025000X-1.025000X-1.025000X1.025000X-1.025000X1.025000X1.025000X-1.025000X1.025000X0*%
%ADD18C,4.100000*%
%ADD19RoundRect,0.250001X-1.099999X-1.399999X1.099999X-1.399999X1.099999X1.399999X-1.099999X1.399999X0*%
%ADD20O,2.700000X3.300000*%
%ADD21R,1.700000X1.700000*%
%ADD22O,1.700000X1.700000*%
%ADD23C,1.524000*%
%ADD24C,1.400000*%
%ADD25RoundRect,0.770000X-0.980000X-0.980000X0.980000X-0.980000X0.980000X0.980000X-0.980000X0.980000X0*%
%ADD26C,3.500000*%
%ADD27RoundRect,0.052080X-0.429920X-0.319920X0.429920X-0.319920X0.429920X0.319920X-0.429920X0.319920X0*%
%ADD28R,1.016000X0.482600*%
%ADD29RoundRect,0.237500X-0.250000X-0.237500X0.250000X-0.237500X0.250000X0.237500X-0.250000X0.237500X0*%
%ADD30RoundRect,0.237500X0.300000X0.237500X-0.300000X0.237500X-0.300000X-0.237500X0.300000X-0.237500X0*%
%ADD31RoundRect,0.237500X-0.300000X-0.237500X0.300000X-0.237500X0.300000X0.237500X-0.300000X0.237500X0*%
%ADD32RoundRect,0.237500X0.250000X0.237500X-0.250000X0.237500X-0.250000X-0.237500X0.250000X-0.237500X0*%
%ADD33RoundRect,0.770000X0.980000X0.980000X-0.980000X0.980000X-0.980000X-0.980000X0.980000X-0.980000X0*%
%ADD34RoundRect,0.237500X-0.237500X0.250000X-0.237500X-0.250000X0.237500X-0.250000X0.237500X0.250000X0*%
%ADD35RoundRect,0.150000X-0.825000X-0.150000X0.825000X-0.150000X0.825000X0.150000X-0.825000X0.150000X0*%
G04 APERTURE END LIST*
D10*
X46590000Y-90320000D03*
X45290000Y-90320000D03*
X43990000Y-90320000D03*
D11*
X52740000Y-55440000D03*
X52740000Y-57980000D03*
X52740000Y-60520000D03*
X52740000Y-63060000D03*
X52740000Y-65600000D03*
X52740000Y-68130000D03*
X52740000Y-70670000D03*
X65400000Y-55440000D03*
X65400000Y-57980000D03*
X65400000Y-60520000D03*
X65400000Y-63060000D03*
X65400000Y-65600000D03*
X65400000Y-68130000D03*
X65400000Y-70670000D03*
D12*
X57270000Y-118805000D03*
D13*
X57270000Y-116265000D03*
X57270000Y-113725000D03*
X57270000Y-111185000D03*
X57270000Y-108645000D03*
X57270000Y-106105000D03*
X57270000Y-103565000D03*
X57270000Y-101025000D03*
X57270000Y-98485000D03*
X57270000Y-95945000D03*
X57270000Y-93405000D03*
X57270000Y-90865000D03*
X57270000Y-88325000D03*
X57270000Y-85785000D03*
X57270000Y-83245000D03*
X57270000Y-80705000D03*
X37550000Y-80705000D03*
X37550000Y-83245000D03*
X37550000Y-85785000D03*
X37550000Y-88325000D03*
X37550000Y-90865000D03*
X37550000Y-93405000D03*
X37550000Y-95945000D03*
X37550000Y-98485000D03*
X37550000Y-101025000D03*
X37550000Y-103565000D03*
X37550000Y-106105000D03*
X37550000Y-108645000D03*
D14*
X32500000Y-92000000D03*
D15*
X27500000Y-92000000D03*
D16*
X31750000Y-38800000D03*
X45250000Y-38800000D03*
D17*
X34900000Y-44800000D03*
D18*
X42100000Y-44800000D03*
D19*
X63170000Y-77000000D03*
D20*
X63170000Y-82500000D03*
D21*
X61889564Y-93366282D03*
D22*
X64429564Y-93366282D03*
X61889564Y-95906282D03*
X64429564Y-95906282D03*
X61889564Y-98446282D03*
X64429564Y-98446282D03*
D23*
X28270000Y-51770000D03*
X28270000Y-54310000D03*
X28270000Y-56850000D03*
X28270000Y-59390000D03*
X28270000Y-61930000D03*
X38960000Y-51770000D03*
D14*
X32460000Y-101810000D03*
D15*
X27460000Y-101810000D03*
D19*
X63270000Y-110955000D03*
D20*
X63270000Y-116455000D03*
D19*
X30060000Y-110900000D03*
D20*
X30060000Y-116400000D03*
D24*
X49970000Y-39940000D03*
X60970000Y-39940000D03*
D25*
X57970000Y-49940000D03*
D26*
X52970000Y-49940000D03*
D19*
X27970000Y-76940000D03*
D20*
X32170000Y-76940000D03*
X27970000Y-82440000D03*
X32170000Y-82440000D03*
D27*
X60785000Y-107055000D03*
X60785000Y-105155000D03*
X62955000Y-106105000D03*
D28*
X43753600Y-111405000D03*
X43753600Y-110135000D03*
X43753600Y-108865000D03*
X43753600Y-107595000D03*
X49646400Y-107595000D03*
X49646400Y-108865000D03*
X49646400Y-110135000D03*
X49646400Y-111405000D03*
D29*
X46267500Y-88170000D03*
X48092500Y-88170000D03*
D30*
X47002500Y-92510000D03*
X45277500Y-92510000D03*
D29*
X52657500Y-103705000D03*
X54482500Y-103705000D03*
D31*
X46627500Y-80740000D03*
X48352500Y-80740000D03*
D29*
X61307500Y-68205000D03*
X63132500Y-68205000D03*
D32*
X54482500Y-96705000D03*
X52657500Y-96705000D03*
D24*
X60970000Y-37090000D03*
X49970000Y-37090000D03*
D33*
X57970000Y-42090000D03*
D26*
X52970000Y-42090000D03*
D34*
X65070000Y-105192500D03*
X65070000Y-107017500D03*
D29*
X42497500Y-88180000D03*
X44322500Y-88180000D03*
D32*
X54482500Y-101905000D03*
X52657500Y-101905000D03*
D29*
X52657500Y-98405000D03*
X54482500Y-98405000D03*
D31*
X43157500Y-80730000D03*
X44882500Y-80730000D03*
D29*
X52657500Y-100205000D03*
X54482500Y-100205000D03*
D35*
X42970000Y-86460000D03*
X42970000Y-85190000D03*
X42970000Y-83920000D03*
X42970000Y-82650000D03*
X47920000Y-82650000D03*
X47920000Y-83920000D03*
X47920000Y-85190000D03*
X47920000Y-86460000D03*
D32*
X54470000Y-105405000D03*
X52645000Y-105405000D03*
M02*
