G04 #@! TF.GenerationSoftware,KiCad,Pcbnew,9.0.1*
G04 #@! TF.CreationDate,2026-04-24T09:15:24-05:00*
G04 #@! TF.ProjectId,Arm,41726d2e-6b69-4636-9164-5f7063625858,rev?*
G04 #@! TF.SameCoordinates,Original*
G04 #@! TF.FileFunction,Paste,Bot*
G04 #@! TF.FilePolarity,Positive*
%FSLAX46Y46*%
G04 Gerber Fmt 4.6, Leading zero omitted, Abs format (unit mm)*
G04 Created by KiCad (PCBNEW 9.0.1) date 2026-04-24 09:15:24*
%MOMM*%
%LPD*%
G01*
G04 APERTURE LIST*
G04 Aperture macros list*
%AMRoundRect*
0 Rectangle with rounded corners*
0 $1 Rounding radius*
0 $2 $3 $4 $5 $6 $7 $8 $9 X,Y pos of 4 corners*
0 Add a 4 corners polygon primitive as box body*
4,1,4,$2,$3,$4,$5,$6,$7,$8,$9,$2,$3,0*
0 Add four circle primitives for the rounded corners*
1,1,$1+$1,$2,$3*
1,1,$1+$1,$4,$5*
1,1,$1+$1,$6,$7*
1,1,$1+$1,$8,$9*
0 Add four rect primitives between the rounded corners*
20,1,$1+$1,$2,$3,$4,$5,0*
20,1,$1+$1,$4,$5,$6,$7,0*
20,1,$1+$1,$6,$7,$8,$9,0*
20,1,$1+$1,$8,$9,$2,$3,0*%
G04 Aperture macros list end*
%ADD10R,1.750000X0.450000*%
%ADD11RoundRect,0.237500X-0.237500X0.300000X-0.237500X-0.300000X0.237500X-0.300000X0.237500X0.300000X0*%
%ADD12RoundRect,0.150000X0.150000X-0.825000X0.150000X0.825000X-0.150000X0.825000X-0.150000X-0.825000X0*%
%ADD13RoundRect,0.237500X0.300000X0.237500X-0.300000X0.237500X-0.300000X-0.237500X0.300000X-0.237500X0*%
%ADD14RoundRect,0.237500X0.237500X-0.300000X0.237500X0.300000X-0.237500X0.300000X-0.237500X-0.300000X0*%
%ADD15RoundRect,0.237500X-0.250000X-0.237500X0.250000X-0.237500X0.250000X0.237500X-0.250000X0.237500X0*%
%ADD16RoundRect,0.237500X0.250000X0.237500X-0.250000X0.237500X-0.250000X-0.237500X0.250000X-0.237500X0*%
%ADD17RoundRect,0.237500X-0.237500X0.250000X-0.237500X-0.250000X0.237500X-0.250000X0.237500X0.250000X0*%
%ADD18RoundRect,0.237500X0.377236X-0.064025X-0.024242X0.381862X-0.377236X0.064025X0.024242X-0.381862X0*%
%ADD19R,2.100000X1.800000*%
G04 APERTURE END LIST*
D10*
X114000000Y-126600000D03*
X114000000Y-125950000D03*
X114000000Y-125300000D03*
X114000000Y-124650000D03*
X114000000Y-124000000D03*
X114000000Y-123350000D03*
X114000000Y-122700000D03*
X114000000Y-122050000D03*
X114000000Y-121400000D03*
X114000000Y-120750000D03*
X114000000Y-120100000D03*
X114000000Y-119450000D03*
X114000000Y-118800000D03*
X114000000Y-118150000D03*
X121200000Y-118150000D03*
X121200000Y-118800000D03*
X121200000Y-119450000D03*
X121200000Y-120100000D03*
X121200000Y-120750000D03*
X121200000Y-121400000D03*
X121200000Y-122050000D03*
X121200000Y-122700000D03*
X121200000Y-123350000D03*
X121200000Y-124000000D03*
X121200000Y-124650000D03*
X121200000Y-125300000D03*
X121200000Y-125950000D03*
X121200000Y-126600000D03*
D11*
X113000000Y-102112500D03*
X113000000Y-100387500D03*
D12*
X116770000Y-105000000D03*
X115500000Y-105000000D03*
X114230000Y-105000000D03*
X112960000Y-105000000D03*
X112960000Y-109950000D03*
X114230000Y-109950000D03*
X115500000Y-109950000D03*
X116770000Y-109950000D03*
D13*
X112137500Y-113000000D03*
X113862500Y-113000000D03*
D14*
X116750000Y-113675000D03*
X116750000Y-115400000D03*
D13*
X127000000Y-121200000D03*
X128725000Y-121200000D03*
D11*
X114000000Y-130600000D03*
X114000000Y-128875000D03*
D15*
X105662500Y-118000000D03*
X103837500Y-118000000D03*
X106113500Y-112000000D03*
X104288500Y-112000000D03*
D16*
X104302255Y-106035244D03*
X106127255Y-106035244D03*
D17*
X105659731Y-91037364D03*
X105659731Y-89212364D03*
D11*
X66282500Y-144750000D03*
X66282500Y-143025000D03*
D13*
X128737500Y-128000000D03*
X130462500Y-128000000D03*
D14*
X114550000Y-134875000D03*
X114550000Y-136600000D03*
D16*
X115550000Y-133100000D03*
X117375000Y-133100000D03*
X111637500Y-133100000D03*
X113462500Y-133100000D03*
D18*
X119422874Y-129359037D03*
X120577126Y-130640963D03*
D15*
X112412500Y-92500000D03*
X110587500Y-92500000D03*
D19*
X127100000Y-123725000D03*
X130000000Y-123725000D03*
X130000000Y-126025000D03*
X127100000Y-126025000D03*
M02*
